<svg xmlns="http://www.w3.org/2000/svg" viewBox="0 0 32 32"><g fill="currentColor" class="nc-icon-wrapper"><path d="M.46 16.582L15.947 1.095c.375-.377.894-.61 1.468-.61h10.511a3.13 3.13 0 0 1 3.125 3.125v10.487a2.09 2.09 0 0 1-.655 1.518l-.001.001L13.92 31.092a1.548 1.548 0 0 1-1.066.424h-.003l-.058-.001a1.555 1.555 0 0 1-1.092-.502l-.001-.001L.416 18.746a1.55 1.55 0 0 1-.414-1.058c0-.432.175-.822.459-1.104zm12.416 12.631l16.091-15.117V3.61a1.04 1.04 0 0 0-1.041-1.041H17.42L2.286 17.703l10.59 11.51z"></path><path d="M22.456 5.693a3.38 3.38 0 0 1 3.387 3.387 3.383 3.383 0 0 1-2.705 3.314l-.022.004a3.39 3.39 0 0 1-3.467-1.428l-.008-.012a3.354 3.354 0 0 1-.57-1.879c0-.935.38-1.782.993-2.394a3.383 3.383 0 0 1 2.392-.993zm0 4.688a1.306 1.306 0 0 0 1.199-.795l.003-.009a1.29 1.29 0 0 0-.283-1.419 1.3 1.3 0 0 0-1.42-.282 1.3 1.3 0 0 0-.807 1.201 1.306 1.306 0 0 0 1.305 1.304z"></path></g></svg>