<svg xmlns="http://www.w3.org/2000/svg" viewBox="0 0 38 37"><g fill="none" class="nc-icon-wrapper"><path d="M16.323.51a7.29 7.29 0 0 1 5.354 0l14.247 5.634C37.18 6.64 38 7.829 38 9.15v17.89c0 1.322-.821 2.51-2.076 3.007L21.677 35.68a7.291 7.291 0 0 1-5.354 0L2.076 30.047C.82 29.55 0 28.362 0 27.04V9.15c0-1.321.821-2.51 2.076-3.006L16.323.509zm4.283 2.576a4.374 4.374 0 0 0-3.212 0l-3.636 1.438 14.3 5.425 5.072-1.91-12.524-4.953zm3.507 8.35L9.908 6.045 4.922 8.018l14.08 5.342 5.111-1.925zM2.85 27.04c0 .189.117.358.297.43l14.247 5.634c.06.024.12.046.182.067v-17.37L2.85 10.216V27.04zm17.756 6.064l14.247-5.635a.463.463 0 0 0 .297-.43V10.259l-14.724 5.546v17.368c.06-.021.12-.043.18-.067z" fill="currentColor"></path></g></svg>