<svg xmlns="http://www.w3.org/2000/svg" viewBox="0 0 10 7"><g fill="currentColor" class="nc-icon-wrapper"><path d="M8.446.223A.992.992 0 0 1 9.086 0a.988.988 0 0 1 .638.232c.17.147.27.346.276.556a.756.756 0 0 1-.242.568L4.864 6.741a.927.927 0 0 1-.3.188 1.027 1.027 0 0 1-.719.012.939.939 0 0 1-.306-.178L.293 3.907a.82.82 0 0 1-.213-.262.729.729 0 0 1-.013-.633.81.81 0 0 1 .202-.269.938.938 0 0 1 .306-.178 1.032 1.032 0 0 1 .72.011.927.927 0 0 1 .298.188l2.569 2.258L8.422.247l.024-.024z" fill="currentColor" class="nc-icon-wrapper"></path></g></svg>