<svg xmlns="http://www.w3.org/2000/svg" viewBox="0 0 30 30"><g fill="none" class="nc-icon-wrapper"><path d="M4.238 4.299C7.104 1.433 10.535 0 14.531 0c3.996 0 7.407 1.433 10.233 4.299 2.866 2.825 4.299 6.236 4.299 10.232 0 3.996-1.433 7.427-4.3 10.293-2.825 2.826-6.236 4.238-10.232 4.238-3.996 0-7.427-1.412-10.293-4.238C1.413 21.958 0 18.527 0 14.531 0 10.535 1.413 7.124 4.238 4.3zm1.393 19.133c2.462 2.462 5.429 3.693 8.9 3.693 3.472 0 6.438-1.231 8.9-3.693 2.463-2.463 3.694-5.43 3.694-8.9 0-3.472-1.231-6.439-3.693-8.901-2.463-2.462-5.43-3.694-8.9-3.694-3.472 0-6.439 1.232-8.901 3.694-2.462 2.462-3.694 5.429-3.694 8.9 0 3.472 1.232 6.438 3.694 8.9zm9.869-9.325l4.541 4.602c.484.444.484.888 0 1.332-.161.202-.383.303-.666.303-.283 0-.505-.101-.666-.303l-4.844-4.844c-.202-.161-.303-.383-.303-.666v-7.75c0-.282.081-.504.243-.666a.99.99 0 0 1 .726-.303c.283 0 .505.101.666.303.202.162.303.384.303.666v7.326z" fill="currentColor"></path></g></svg>