<svg xmlns="http://www.w3.org/2000/svg" viewBox="0 0 20 20"><g fill="currentColor" class="nc-icon-wrapper"><path fill-rule="evenodd" clip-rule="evenodd" d="M10 2a8 8 0 1 0 0 16 8 8 0 0 0 0-16zM0 10C0 4.477 4.477 0 10 0s10 4.477 10 10-4.477 10-10 10S0 15.523 0 10zm7.293-2.707a1 1 0 0 1 1.414 0L10 8.586l1.293-1.293a1 1 0 1 1 1.414 1.414L11.414 10l1.293 1.293a1 1 0 0 1-1.414 1.414L10 11.414l-1.293 1.293a1 1 0 0 1-1.414-1.414L8.586 10 7.293 8.707a1 1 0 0 1 0-1.414z" fill="currentColor" class="nc-icon-wrapper"></path></g></svg>