<svg xmlns="http://www.w3.org/2000/svg" viewBox="0 0 167 167"><g fill="none" class="nc-icon-wrapper"><g opacity=".18"><path fill-rule="evenodd" clip-rule="evenodd" d="M142.2 81.2c-1.1-.1-2.1.2-2.8.9l.3.5c2.5-3 5.6 1.2 9.4 2.8 5.7 2.3 12.9 2.4 17.1-2.3-4.9-6.4-14.3-5.3-20.3-.6l.5.3c6.9-4.9 14.2-2.5 18.5.3-3.7 2.4-9.4 4.1-15.5 2-2.6-.9-5.2-3.7-7.2-3.9zm-2.9-4.8c-1.6 3.7-.6 10.6 5.4 7l.5.3c-3.7 2.8-6.8.8-7.1-3.1-.1-1.3.1-2.8.7-4.3l.5.1zm-.9 7.2c-.7 1.9-.5 4.1.3 6.3l.6-.2c-.6-1.7-.9-3.9-.4-5.6l-.5-.5zM133.2 61l1 .5c-1.5 21.6 14.4 13.8 16.8 6.1-4.9.3-8.9 2.9-11.1 7.3l-.6-.2c2.6-6.1 7.2-8.3 12.4-7.8-1.4 9.8-19.9 16.8-18.5-5.9zm0-.5c1.5.7 3 1.3 4.4 1.2l.9-.1c3-.4 4.4-3 3.8-5.4-2.3.5-3.6 2.2-4.3 4.3l.9-.1c.6-1.6 1.3-2.7 2.7-3.2-.3 1.8-1.2 3.3-2.9 3.7-1.9.4-3.5-.2-5.5-1.1-6.3-3.1-9.4-8-9.9-14.7 7 2.9 9.8 7.5 9.9 14.1l1.1.5c0-8.8-4.5-13.9-11.9-15.9.4 7.6 3.7 13.4 10.8 16.7zm5.2 1.6l-.9.1c-.3 1.8-.6 5.2.3 6.3-.1-1.8 0-4 .6-6.4zm-5.2 43c-.8-22.9 17.5-15.8 18.5-5.9h-.4c-5.5-.3-9.8-3.1-12-7.7l.6-.2c2.1 4.2 6 6.9 11.1 7.3-2.4-7.7-18.3-15.5-16.8 6.1l-1 .4zm0 .6c-7.1 3.3-10.4 9-10.8 16.7 7.4-2.1 11.9-7.2 11.9-15.9l-1.1.5c-.2 6.6-2.9 11.2-9.9 14.1.5-6.7 3.6-11.6 9.9-14.7 3.4-1.6 7.7-2.3 8.4 2.6-1.4-.4-2.1-1.6-2.7-3.2l-.9-.1c.7 2.1 2 3.8 4.3 4.3.6-3-1.6-5.2-4.7-5.5-1.4-.2-2.9.5-4.4 1.2zm5.2-1.7c-.5-2.4-.6-4.6-.5-6.4-.7 1.7-.6 4.5-.3 6.3l.8.1z" fill="#30373E"></path><path fill-rule="evenodd" clip-rule="evenodd" d="M84.9 23.9c.1 1.1-.2 2.1-1 2.8l-.5-.3c3-2.5-1.2-5.6-2.8-9.4-2.2-5.6-2.3-12.8 2.5-17 6.4 4.9 5.3 14.3.6 20.3l-.3-.5c4.9-6.9 2.5-14.2-.3-18.5-2.4 3.7-4.1 9.4-2 15.5.9 2.5 3.7 5.2 3.8 7.1zm4.8 2.9c-3.7 1.6-10.6.6-7-5.4l-.3-.4c-2.8 3.7-.8 6.8 3.1 7.1 1.3.1 2.8-.1 4.3-.7l-.1-.6zm-7.2.9c-1.9.7-4.1.5-6.3-.3l.2-.6c1.7.6 3.9.9 5.6.4l.5.5zm22.6 5.3l-.5-1C83 33.4 90.8 17.5 98.5 15.1c-.3 4.9-2.9 8.9-7.3 11.1l.1.6c6.1-2.6 8.3-7.2 7.8-12.4-9.6 1.4-16.7 19.9 6 18.6zm.6-.1c-.7-1.5-1.3-3-1.2-4.4l.1-.9c.4-3 3-4.4 5.4-3.8-.5 2.3-2.2 3.6-4.3 4.3l.1-.9c1.6-.6 2.7-1.3 3.2-2.7-1.8.3-3.3 1.2-3.7 2.9-.4 1.9.2 3.5 1.1 5.5 3.1 6.4 8 9.4 14.7 9.9-2.9-7-7.5-9.8-14.1-9.9l-.5-1.1c8.7 0 13.8 4.5 15.9 11.9-7.7-.4-13.4-3.7-16.7-10.8zm-1.7-5.2l-.1.9c-1.8.3-5.2.6-6.3-.3 1.9.1 4 0 6.4-.6zM61 33c22.9.8 15.8-17.5 5.9-18.5v.4c.3 5.5 3.1 9.8 7.7 12l.2-.6c-4.2-2.1-6.9-6-7.3-11.1C75.2 17.6 83 33.4 61.4 32l-.4 1zm-.5-.1c-3.3 7.1-9 10.4-16.7 10.8 2.1-7.4 7.2-11.9 15.9-11.9l-.5 1.1c-6.6.2-11.2 2.9-14.1 9.9 6.7-.5 11.6-3.6 14.7-9.9 1.6-3.4 2.3-7.7-2.6-8.4.4 1.4 1.6 2.1 3.2 2.7l.1.9c-2.1-.7-3.8-2-4.3-4.3 3-.6 5.2 1.6 5.5 4.7.1 1.5-.5 2.9-1.2 4.4zm1.6-5.2c2.4.5 4.6.6 6.4.5-1.7.7-4.5.6-6.3.3l-.1-.8z" fill="#30373E"></path><path fill-rule="evenodd" clip-rule="evenodd" d="M81.2 142.2c-.1-1.1.2-2.1.9-2.8l.5.3c-3 2.5 1.2 5.6 2.8 9.4 2.3 5.7 2.4 12.9-2.3 17.1-6.4-4.9-5.3-14.3-.6-20.3l.3.5c-4.9 6.9-2.5 14.2.3 18.5 2.4-3.7 4.1-9.4 2-15.5-.9-2.6-3.7-5.2-3.9-7.2zm-4.8-2.9c3.7-1.6 10.6-.6 7 5.4l.3.5c2.8-3.7.8-6.8-3.1-7.1-1.3-.1-2.8.1-4.3.7l.1.5zm7.2-.9c1.9-.7 4.1-.5 6.3.3l-.2.6c-1.7-.6-3.9-.9-5.6-.4l-.5-.5zM61 133.2l.5 1c21.6-1.5 13.8 14.4 6.1 16.8.3-4.9 2.9-8.9 7.3-11.1l-.2-.6c-6.1 2.6-8.3 7.2-7.8 12.3 9.8-1.3 16.8-19.8-5.9-18.4zm-.5 0c.7 1.5 1.3 3 1.2 4.4l-.1.9c-.4 3-3 4.4-5.4 3.8.5-2.3 2.2-3.6 4.3-4.3l-.1.9c-1.6.6-2.7 1.3-3.2 2.7 1.8-.3 3.3-1.2 3.7-2.9.4-1.9-.2-3.5-1.1-5.5-3.1-6.4-8-9.4-14.7-9.9 2.9 7 7.5 9.8 14.1 9.9l.5 1.1c-8.8 0-13.9-4.5-15.9-11.9 7.6.4 13.4 3.7 16.7 10.8zm1.6 5.2l.1-.9c1.8-.3 5.2-.6 6.3.3-1.9-.1-4 0-6.4.6zm43-5.2c-22.9-.8-15.8 17.5-5.9 18.5v-.4c-.3-5.5-3.1-9.8-7.7-12l-.2.6c4.2 2.1 6.9 6 7.3 11.1-7.7-2.4-15.5-18.3 6.1-16.8l.4-1zm.6 0c3.3-7.1 9-10.4 16.7-10.8-2.1 7.4-7.2 11.9-15.9 11.9l.5-1.1c6.6-.2 11.2-2.9 14.1-9.9-6.7.5-11.6 3.6-14.7 9.9-1.6 3.4-2.3 7.7 2.6 8.4-.4-1.4-1.6-2.1-3.2-2.7l-.1-.9c2.1.7 3.8 2 4.3 4.3-3 .6-5.2-1.6-5.5-4.7-.2-1.4.5-2.9 1.2-4.4zm-1.7 5.2c-2.4-.5-4.6-.6-6.4-.5 1.7-.7 4.5-.6 6.3-.3l.1.8z" fill="#30373E"></path><path fill-rule="evenodd" clip-rule="evenodd" d="M23.9 85c1.1.1 2.1-.2 2.8-.9l-.3-.5c-2.5 3-5.6-1.2-9.4-2.8-5.6-2.4-12.8-2.5-17 2.3 4.9 6.4 14.3 5.3 20.3.6l-.5-.3c-6.9 4.9-14.2 2.5-18.5-.3 3.7-2.4 9.4-4.1 15.5-2 2.5.9 5.2 3.7 7.1 3.9zm2.9 4.7c1.6-3.7.6-10.6-5.4-7l-.4-.3c3.7-2.8 6.8-.8 7.1 3.1.1 1.3-.1 2.8-.7 4.3l-.6-.1zm.9-7.2c.7-1.9.5-4.1-.3-6.3l-.6.2c.6 1.7.9 3.9.4 5.6l.5.5zm5.3 22.6l-1-.5c1.5-21.6-14.4-13.8-16.8-6.1 4.9-.3 8.9-2.9 11.1-7.3l.6.2c-2.6 6.1-7.2 8.3-12.4 7.8 1.3-9.7 19.8-16.8 18.5 5.9zm-.1.6c-1.5-.7-3-1.3-4.4-1.2l-.9.1c-3 .4-4.4 3-3.8 5.4 2.3-.5 3.6-2.2 4.3-4.3l-.9.1c-.6 1.6-1.3 2.7-2.7 3.2.3-1.8 1.2-3.3 2.9-3.7 1.9-.4 3.5.2 5.5 1.1 6.4 3.1 9.4 8 9.9 14.7-7-2.9-9.8-7.5-9.9-14.1l-1.1-.5c0 8.7 4.5 13.8 11.9 15.9-.4-7.7-3.7-13.4-10.8-16.7zm-5.2-1.7l.9-.1c.3-1.8.6-5.2-.3-6.3.1 1.9 0 4-.6 6.4zM33 61c.8 22.9-17.5 15.8-18.5 5.9h.4c5.5.3 9.8 3.1 12 7.7l-.6.2c-2.1-4.2-6-6.9-11.1-7.3C17.6 75.2 33.4 83 32 61.4l1-.4zm-.1-.5c7.1-3.3 10.4-9 10.8-16.7-7.4 2.1-11.9 7.2-11.9 15.9l1.1-.5c.2-6.6 2.9-11.2 9.9-14.1-.5 6.7-3.6 11.6-9.9 14.7-3.4 1.6-7.7 2.3-8.4-2.6 1.4.4 2.1 1.6 2.7 3.2l.9.1c-.7-2.1-2-3.8-4.3-4.3-.6 3 1.6 5.2 4.7 5.5 1.5.1 2.9-.5 4.4-1.2zm-5.2 1.6c.5 2.4.6 4.6.5 6.4.7-1.7.6-4.5.3-6.3l-.8-.1z" fill="#30373E"></path></g></g></svg>