<svg xmlns="http://www.w3.org/2000/svg" viewBox="0 0 24 23"><g fill="none" class="nc-icon-wrapper"><path fill-rule="evenodd" clip-rule="evenodd" d="M6.478 0h11.044c.626 0 1.182-.002 1.696.215.514.216.906.617 1.349 1.068l.09.092L22.648 3.4l.09.092c.444.45.838.85 1.051 1.371.213.523.212 1.088.21 1.726v11.779c0 .832 0 1.55-.075 2.123-.081.616-.265 1.206-.735 1.684-.47.479-1.05.665-1.656.748-.565.077-1.27.077-2.088.077H4.555c-.818 0-1.524 0-2.088-.077-.605-.083-1.185-.27-1.656-.748-.47-.478-.654-1.068-.735-1.684C0 19.917 0 19.201 0 18.368V6.718v-.13c0-.637-.002-1.202.211-1.725.213-.522.607-.921 1.05-1.371l.091-.092 1.991-2.025.09-.092C3.876.832 4.268.43 4.782.215 5.296-.002 5.852-.001 6.478 0zm.128 1.878c-.83 0-.987.016-1.117.071-.13.055-.254.157-.84.754L2.656 4.727c-.586.597-.686.723-.74.855-.054.132-.07.293-.07 1.137v11.587c0 .912.001 1.501.059 1.935.054.407.14.535.21.607.071.071.196.16.597.214.427.058 1.006.06 1.903.06h14.768c.897 0 1.476-.002 1.903-.06.4-.055.526-.143.596-.215.07-.071.157-.199.211-.606.058-.434.06-1.023.06-1.935V6.72c0-.844-.017-1.005-.07-1.137-.055-.132-.155-.258-.741-.855l-1.991-2.024c-.587-.597-.71-.699-.84-.754-.13-.055-.288-.071-1.118-.071H6.606z" fill="currentColor"></path><path fill-rule="evenodd" clip-rule="evenodd" d="M0 8c0-.552.413-1 .923-1h22.154c.51 0 .923.448.923 1s-.413 1-.923 1H.923C.413 9 0 8.552 0 8z" fill="currentColor"></path><path d="M16.25 7h-8.5c-.354 0-.53 0-.64.1-.11.1-.11.261-.11.583v5.694c0 1.045 0 1.568.148 1.849.332.627 1.127.927 1.848.697.323-.103.728-.473 1.54-1.212.375-.342.563-.513.763-.61a1.63 1.63 0 0 1 1.402 0c.2.097.388.268.763.61.812.74 1.217 1.109 1.54 1.212.721.23 1.516-.07 1.848-.697.148-.281.148-.804.148-1.849V7.683c0-.322 0-.483-.11-.583-.11-.1-.286-.1-.64-.1z" fill="currentColor"></path></g></svg>