<svg xmlns="http://www.w3.org/2000/svg" viewBox="0 0 32 32"><g fill="currentColor" class="nc-icon-wrapper"><path d="M2.667 14.667H16v2.222H2.667v-2.222zM.444 9.111h11.111v2.222H.444V9.111z"></path><path d="M31.466 15.34l-3.333-7.778a1.113 1.113 0 0 0-1.021-.674h-3.333V4.666a1.11 1.11 0 0 0-1.111-1.111H4.89v2.222h16.667v13.951a4.457 4.457 0 0 0-2.058 2.685l-.007.031h-6.981c-.511-1.932-2.244-3.333-4.303-3.333a4.444 4.444 0 1 0 4.296 5.586l.007-.031h6.981c.501 1.933 2.23 3.337 4.287 3.337s3.786-1.404 4.28-3.307l.007-.031h2.38a1.11 1.11 0 0 0 1.111-1.111v-7.778c0-.151-.03-.3-.09-.437zM8.222 25.778a2.222 2.222 0 0 1 0-4.444 2.222 2.222 0 0 1 0 4.444zM23.778 9.111h2.6l2.382 5.556h-4.982V9.111zm0 16.667a2.222 2.222 0 0 1 0-4.444 2.222 2.222 0 0 1 0 4.444zm5.555-3.334h-1.268c-.508-1.928-2.233-3.328-4.287-3.333h-.001v-2.222h5.556v5.556z"></path></g></svg>