<svg xmlns="http://www.w3.org/2000/svg" viewBox="0 0 70 70"><g fill="none" class="nc-icon-wrapper"><path d="M12.726 20.86c.926-1.185 1.804-2.289 2.65-3.392.272-.363.576-.511 1.023-.511 8.368.016 16.72 0 25.088 0 4.089 0 8.177-.017 12.281.016.288 0 .639.231.83.478 3.227 4.052 6.42 8.137 9.646 12.206 1.054 1.334.99 1.219-.096 2.454-3.225 3.674-6.467 7.347-9.693 11.037-.08.098-.16.18-.272.329.336.198.64.362.943.544.559.362.559.955-.016 1.317-.32.198-.64.429-1.007.56-1.181.412-1.772 1.384-2.251 2.471-.048.115-.112.214-.176.33-.208.362-.367.922-.862.79-.32-.082-.56-.494-.83-.774-.049-.05-.08-.132-.24-.362-.128.197-.192.379-.32.51L35.722 64.48c-.623.708-.894.692-1.533-.033-5.909-6.737-11.801-13.474-17.71-20.195-3.737-4.266-7.474-8.516-11.211-12.766-.383-.444-.335-.807.016-1.235 1.198-1.483 2.364-2.998 3.561-4.497.368-.445.24-.725-.191-.972-.671-.379-1.342-.741-1.997-1.12-.718-.412-.734-1.087.032-1.417 1.677-.691 2.795-1.86 3.482-3.574.303-.774.974-.758 1.373-.017.383.692.75 1.4 1.182 2.208zM24.16 31.635c3.61 10.196 7.187 20.31 10.764 30.423.048 0 .096 0 .144-.016 3.577-10.114 7.154-20.228 10.763-30.407h-21.67zM7.232 31.6A36709.31 36709.31 0 0 0 32.88 60.822c.064-.28 0-.478-.064-.692-3.29-9.29-6.596-18.597-9.87-27.904-.175-.477-.367-.658-.878-.658-4.695.016-9.374.016-14.07.016-.223.017-.414.017-.766.017zm55.447.049c-.255-.016-.415-.05-.559-.05-4.775 0-9.534 0-14.309-.016-.463 0-.606.198-.734.593-3.306 9.39-6.644 18.762-9.965 28.15-.064.199-.128.38-.256.726a2.03 2.03 0 0 1 .272-.23c3.912-4.448 7.825-8.912 11.737-13.36.352-.395.224-.659-.143-.873-.623-.362-1.278-.675-1.885-1.087-.287-.198-.639-.527-.655-.824-.016-.247.352-.642.64-.757 1.564-.643 2.634-1.763 3.257-3.36.112-.28.495-.643.75-.643.256 0 .592.362.767.642.447.725.815 1.5 1.262 2.323a2193.22 2193.22 0 0 1 9.821-11.234zm-16.944-1.499c-.032-.115-.047-.214-.08-.313-1.453-3.69-2.906-7.38-4.343-11.086-.144-.346-.352-.362-.655-.362-3.785 0-7.586.016-11.37 0-.4 0-.543.148-.687.51-1.405 3.608-2.827 7.199-4.232 10.79-.048.148-.08.296-.128.461h21.495zm17.088 0c-2.986-3.789-5.893-7.462-8.831-11.201-2.028 3.789-3.993 7.462-6.005 11.201h14.836zm-40.835 0c-2.012-3.756-3.992-7.445-6.004-11.201-.719.906-1.39 1.762-2.092 2.652.367.198.702.346.99.576.255.215.623.511.639.791 0 .264-.352.593-.623.79-.543.38-1.166.643-1.709 1.006-.24.148-.463.378-.607.626-.383.642-.703 1.334-1.07 1.993-.351.61-.91.593-1.277 0-.112-.181-.208-.38-.368-.643-.91 1.153-1.772 2.257-2.715 3.443 4.983-.033 9.838-.033 14.836-.033zm20.633-11.728c1.438 3.64 2.827 7.198 4.28 10.855 1.964-3.657 3.865-7.231 5.813-10.855H42.621zm-15.299.016h-10.06c1.948 3.624 3.848 7.166 5.812 10.823 1.438-3.674 2.827-7.215 4.248-10.823zM8.27 22.953c1.294.46 2.092 1.367 2.587 2.652.463-1.318 1.342-2.158 2.572-2.685-1.326-.429-2.06-1.4-2.604-2.817-.43 1.515-1.277 2.356-2.555 2.85zM53.45 44.729c-.607-.379-1.214-.626-1.645-1.054-.415-.429-.639-1.055-1.006-1.713-.431 1.383-1.262 2.24-2.54 2.717 1.246.511 2.109 1.368 2.604 2.685.415-1.367 1.357-2.141 2.587-2.635z" fill="currentColor"></path><path d="M34.27 9.775c0-1.318-.033-2.635.015-3.953.016-.28.224-.593.432-.774.111-.1.495-.033.639.098.16.132.255.429.255.643.016 2.635.016 5.27.016 7.906 0 .445-.192.775-.655.775-.511 0-.703-.33-.703-.808V9.775z" fill="currentColor"></path><path d="M41.71 13.613c.177-.264.272-.462.416-.626 1.022-1.07 2.06-2.125 3.082-3.195.352-.363.735-.478 1.086-.083.352.379.208.741-.127 1.087-1.038 1.07-2.077 2.174-3.147 3.212-.191.181-.575.28-.83.214-.176-.033-.32-.379-.48-.61z" fill="currentColor"></path><path d="M27.562 14.584c-.256-.164-.463-.247-.607-.395a302.416 302.416 0 0 1-3.178-3.277c-.335-.346-.415-.725-.048-1.071.335-.33.687-.247 1.006.066 1.07 1.103 2.156 2.19 3.21 3.327.16.18.224.576.176.823-.064.198-.352.33-.56.527z" fill="currentColor"></path></g></svg>