<svg xmlns="http://www.w3.org/2000/svg" viewBox="0 0 24 24"><g fill="currentColor" class="nc-icon-wrapper"><path fill-rule="evenodd" clip-rule="evenodd" d="M21.958 2.023c-.379.067-.915.243-1.775.53L8.37 6.491c-2.382.794-4.068 1.358-5.17 1.894-1.186.577-1.201.89-1.201.95 0 .06.015.373 1.201.95 1.102.535 2.788 1.1 5.17 1.894l.218.073.16.052c.77.256 1.455.483 1.96.988.505.505.732 1.19.988 1.96l.052.16.073.218c.794 2.382 1.359 4.068 1.895 5.17.577 1.186.89 1.201.95 1.201.06 0 .372-.015.949-1.201.536-1.102 1.1-2.788 1.894-5.17l3.938-11.813c.287-.86.463-1.396.53-1.775a1.43 1.43 0 0 0 .004-.023 3.446 3.446 0 0 0-.023.004zM22.217 2l-.01-.002.01.002zm-.215-.208L22 1.783l.002.01zM21.608.055c.55-.098 1.305-.127 1.884.453.58.58.55 1.333.453 1.884-.096.541-.323 1.22-.578 1.985l-3.989 11.966c-.76 2.283-1.365 4.096-1.966 5.331C16.845 22.84 16.046 24 14.665 24c-1.38 0-2.18-1.16-2.747-2.326-.6-1.235-1.205-3.048-1.966-5.331l-.1-.3c-.341-1.025-.43-1.21-.557-1.338-.128-.128-.313-.216-1.339-.557l-.299-.1c-2.283-.761-4.096-1.366-5.331-1.966C1.16 11.515 0 10.715 0 9.335s1.16-2.18 2.326-2.747c1.235-.601 3.048-1.205 5.331-1.966L19.622.633c.766-.255 1.445-.482 1.986-.578z" fill="currentColor" class="nc-icon-wrapper"></path></g></svg>