<svg xmlns="http://www.w3.org/2000/svg" viewBox="0 0 32 32"><g fill="currentColor" class="nc-icon-wrapper"><path d="M15.401 1.371C6.858 1.544 0 8.51 0 17.078l.002.275v-.014 7.13a6.164 6.164 0 0 0 3.761 5.675l.04.015a6.051 6.051 0 0 0 2.358.469 6.16 6.16 0 0 0 6.033-4.919l.007-.04a6.157 6.157 0 0 0-6.038-7.36H6.16a5.996 5.996 0 0 0-3.106.877l.026-.015v-1.832a10.856 10.856 0 0 1-.003-.266c0-6.866 5.481-12.452 12.306-12.622h.016c6.841.171 12.322 5.758 12.322 12.624 0 .093-.001.186-.003.278v-.014 1.832a5.959 5.959 0 0 0-3.078-.862h-.001a6.16 6.16 0 0 0-6.034 7.399l-.007-.04c.578 2.849 3.063 4.964 6.042 4.964a6.159 6.159 0 0 0 6.159-6.159v-7.137l.002-.261c0-8.568-6.859-15.534-15.385-15.707H15.4zM6.161 21.39l.074-.001a3.08 3.08 0 1 1 0 6.162l-.08-.001h.004a3.081 3.081 0 0 1-.002-6.16h.004zm18.479 6.159a3.083 3.083 0 0 1-3.018-3.701l-.003.02a3.092 3.092 0 0 1 2.4-2.417l.02-.003a3.078 3.078 0 0 1 3.68 3.018v.002a3.08 3.08 0 0 1-3.08 3.08z" fill="currentColor" class="nc-icon-wrapper"></path></g></svg>