<svg xmlns="http://www.w3.org/2000/svg" viewBox="0 0 340 244"><g fill="none" class="nc-icon-wrapper"><path fill-rule="evenodd" clip-rule="evenodd" d="M233.919 243.881c-2.563-.428-4.86-2.804-7.765-8.017-.555-1.007-3.322-6.38-6.152-11.957-6.676-13.198-9.154-17.79-13.245-24.577a109.911 109.911 0 0 1-2.467-4.303c-.534-1.006-1.293-2.237-1.688-2.73l-.716-.91h-.95c-1.314-.01-2.564-.224-4.198-.749-4.689-1.498-9.068-4.656-12.956-9.313-.769-.92-1.912-2.237-2.542-2.922-.631-.685-1.368-1.584-1.645-1.991-.331-.503-.897-1.027-1.699-1.595-2.136-1.498-4.187-3.789-5.767-6.454l-.716-1.199-.107 2.001c-.053 1.103-.171 2.334-.235 2.741-.075.406-.224 1.745-.342 2.986-.48 5.085-1.11 8.564-2.414 13.359-1.73 6.326-3.418 10.876-4.753 12.749-2.51 3.532-8.897 9.987-11.77 11.903-3.098 2.066-9.165 4.282-12.444 4.549-3.29.268-6.74-1.188-8.385-3.521l-.299-.429-.673.6c-1.335 1.177-3.909 2.269-5.81 2.462-1.656.171-4.07-.418-6.409-1.542-4.336-2.098-6.686-5.266-7.22-9.762-.363-3.072.544-6.187 2.371-8.092 1.794-1.873 3.471-2.312 4.7-1.221 1.068.942 1.634 2.976 1.773 6.38l.096 2.259.545-1.039c.822-1.562 3.268-7.889 3.45-8.916.171-.964.149-1.242-.31-4.56-.662-4.657-.011-6.915 4.55-15.842 1.196-2.334 2.307-4.593 2.467-5.021.289-.738.748-2.472.652-2.472-.021 0-.363.513-.748 1.134-2.211 3.565-5.244 6.894-10.681 11.711-1.965 1.744-4.251 3.81-5.095 4.602-.844.793-2.606 2.43-3.93 3.629-3.205 2.912-6.313 6.048-9.763 9.848-7.466 8.232-11.109 12.706-14.676 18.015-1.335 1.991-3.6 6.38-5.351 10.341-1.1 2.504-2.254 4.078-3.44 4.71-1.09.578-2.809.192-3.674-.835-1.335-1.585-2.702-5.877-2.702-8.467 0-.471-.14-1.627-.32-2.569-.439-2.366-.439-5.074 0-7.269.544-2.74 3.278-11.913 5.052-16.977.437-1.241.8-2.312.8-2.376 0-.064-.277.075-.619.311-1.271.867-12.87 7.814-15.028 9.002-9.72 5.341-19.9 9.516-27.942 11.432-6.986 1.67-11.28 1.488-15.53-.653-2.97-1.488-3.9-2.28-3.9-3.297 0-1.659 1.208-2.462 7.339-4.892 4.058-1.595 7.861-3.35 10.766-4.967 2.756-1.52 12.166-7.835 11.974-8.028-.032-.032-.93-.15-1.998-.257-1.068-.117-2.178-.246-2.456-.299-.47-.075-.641.01-1.859.942-2.35 1.777-7.444 4.57-10.254 5.619-3.855 1.435-8.972 2.034-12.657 1.478-4.71-.707-7.54-2.238-8.78-4.71-.352-.707-.416-1.017-.427-1.97 0-1.028.032-1.156.385-1.52.566-.567 1.442-.61 3.578-.15 3.62.782 5.95.803 8.844.075 2.136-.535 4.55-2.002 7.21-4.389l.929-.835-.246-.524c-.502-1.07-.16-2.28.876-3.104 1.164-.921 4.059-2.12 6.783-2.815 1.516-.386 1.634-.45 4.07-2.291 2.434-1.831 5.692-4.978 8.523-8.2 1.09-1.241 2.617-2.922 3.407-3.725.78-.803 1.42-1.509 1.42-1.563 0-.053-.341.022-.768.172-1.944.663-3.215.813-6.954.813-2.713 0-3.91-.064-5.02-.257-1.933-.342-4.166-.91-5.32-1.37-1.174-.46-2.787-1.509-3.257-2.119-.331-.428-.385-.45-.758-.279-.908.418-2.777.75-4.209.75-3.14 0-5.907-1.156-7.979-3.34-1.644-1.734-2.21-3.896-1.442-5.598.716-1.595 2.521-2.965 4.69-3.554.704-.193 1.078-.396 1.484-.803.673-.674 1.431-.91 2.393-.717.384.075 2.061.171 3.727.214l3.023.075 1.645-1.06c2.82-1.82 4.657-3.115 5.779-4.057l1.078-.91-3.044-.246c-11.92-.985-17.42-2.098-22.26-4.528-3.812-1.905-7.455-5.052-10.082-8.692-1.271-1.766-1.987-3.286-2.574-5.491-.716-2.708-.855-3.575-.876-5.47-.011-1.488.021-1.755.33-2.376.61-1.231 1.966-1.82 3.59-1.563 1.698.278 3.001 1.092 6.184 3.864 2.553 2.227 5.33 3.072 13.106 4.004 4.187.492 11.087.931 13.832.856l1.816-.043-1.186-.61c-3.813-1.969-8.64-7.065-10.467-11.036-.502-1.092-.951-2.901-.94-3.843.01-1.466.62-2.847 1.773-4.046.459-.471.822-.867.8-.878-.02-.01-.822-.599-1.783-1.316-2.019-1.499-5.405-4.817-6.323-6.187-1.485-2.206-2.34-4.721-2.34-6.873 0-2.098.61-3.478 1.923-4.335.545-.353.737-.407 1.784-.396 1.773 0 2.574.578 3.578 2.548.3.6.844 1.466 1.197 1.927 1.324 1.712 6.024 5.127 9.356 6.808 2.468 1.241 3.632 1.67 6.783 2.504 1.527.407 3.941 1.124 5.362 1.595 4.347 1.445 6.44 1.948 12.123 2.912 5.522.942 8.78 1.22 14.013 1.209 3.792-.01 6.473-.224 8.663-.695l.95-.204-1.313.054c-.716.032-2.404.139-3.75.235-3.92.3-8.203-.096-14.665-1.349-8.128-1.573-11.994-3.125-15.562-6.24-1.356-1.188-4.604-4.87-5.415-6.144-1.335-2.098-1.667-2.505-2.639-3.212-1.538-1.134-3.813-3.168-5.735-5.127-3.066-3.126-4.337-4.838-5.725-7.718-1.304-2.686-1.474-4.217-.663-5.855.833-1.67 2.243-2.644 3.856-2.655 1.047-.01 1.656.236 2.414.964l.449.428.245-.996c.556-2.237 1.453-3.96 2.83-5.47 2.158-2.354 4.348-2.622 6.303-.749 1.121 1.07 1.762 2.355 3.033 6.102.577 1.68 1.367 3.736 1.763 4.57l.726 1.499.64-.664c2.82-2.911 8.45-3.917 12.754-2.28.427.16.79.279.801.257.022-.021-.192-.674-.46-1.456-.8-2.3-.982-3.5-.896-5.78.085-2.27.373-3.5 1.27-5.341 1.806-3.747 5.02-7.087 7.51-7.825l.64-.193-1.345-1.391c-1.656-1.713-3.525-4.047-4.294-5.374-1.859-3.19-3.172-8.67-2.799-11.657.257-2.055.898-3.436 2.147-4.656 1.464-1.424 3.311-1.81 4.903-1.028.427.214 1.645 1.007 2.702 1.767 1.058.76 2.81 2.012 3.899 2.772 1.079.76 3.194 2.387 4.689 3.596 1.495 1.22 2.798 2.27 2.884 2.345.117.085.352-.064.716-.482 1.132-1.263 3.279-2.515 5.073-2.986 1.122-.29 3.386-.29 4.518.01 1.42.364 1.41.364 1.613-.417.438-1.691 1.549-3.222 2.852-3.918.545-.289.844-.343 2.093-.332 1.709.01 2.478.257 4.123 1.349 1.602 1.06 8.844 7.9 10.916 10.319l.748.878-.299-1.017c-1.784-6.166-2.681-12.192-2.318-15.564.225-2.13.769-4.228 1.453-5.61.737-1.498 2.04-2.782 3.311-3.264 1.186-.45 3.13-.546 4.614-.236.63.129 1.197.236 1.25.236.064 0 .224-.31.363-.696.449-1.199 1.57-2.965 2.446-3.843 1.431-1.445 3.258-2.387 5.49-2.836 3.141-.643 4.871.278 5.704 3.029.256.846.299 1.263.235 2.494-.075 1.51-.203 2.013-1.41 5.374-.513 1.445-.769 3.104-.641 4.196l.086.749.555-1.466c1.485-3.95 3.375-6.883 7.391-11.454 3.75-4.282 5.459-5.395 8.246-5.395.951 0 1.325.075 1.987.385 2.051.953 3.365 3.447 3.13 5.952l-.086.953 1.058-.054c1.078-.053 1.377.075 2.659 1.05.118.085.331.02.62-.183 1.388-.985 4.229-1.466 5.864-.995.972.278 1.837.91 2.307 1.659l.352.567 1.474-.053c1.859-.065 3.215.139 5.202.802 2.478.825 4.39 2.013 7.722 4.807l1.485 1.241.096-.492c.054-.268.203-1.028.331-1.691 1.474-7.408 6.238-13.691 11.119-14.644 1.848-.353 3.931.14 5.127 1.21 1.122 1.017 2.265 2.965 2.671 4.56.566 2.237.619 3.918.149 5.587l-.213.771.641.76c1.452 1.713 4.219 6.251 5.126 8.414 1.346 3.2 2.233 7.204 2.35 10.618l.086 2.366h.534c1.132 0 3.29.717 4.721 1.573l.844.504.512-.268c.278-.15.769-.492 1.079-.76.556-.471.566-.514.566-1.413 0-2.9 1.955-5.373 4.85-6.144.929-.246 2.873-.268 3.887-.032l.748.17 1.1-1.198c1.752-1.916 3.504-2.933 6.377-3.682 1.057-.279 1.688-.343 3.343-.343 1.848 0 2.115.032 2.809.343 1.389.631 2.361 2.14 2.361 3.682v.546l.833-.29c1.228-.427 3.407-.834 4.988-.941 4.913-.321 8.289 2.334 8.812 6.936.118 1.07-.246 3.404-.79 5-.492 1.455-1.474 3.36-3.707 7.257-1.965 3.414-2.072 3.746-1.848 5.973.342 3.446-.395 8.777-1.751 12.76-.737 2.15-1.752 4.152-2.788 5.522-.534.707-.972 1.306-.972 1.35 0 .042.246.074.545.074 1.452.01 4.059 1.017 5.768 2.237 1.42 1.017 3.001 2.773 3.685 4.11.875 1.692 1.794 5.267 1.794 7.012 0 .332.043.632.085.685.139.14 1.261-.396 2.617-1.284 2.051-1.328 3.846-3.319 3.846-4.26 0-.15-.235-.654-.513-1.125-.513-.845-1.026-1.509-3.172-4.056-.599-.707-1.336-1.756-1.645-2.334-.524-.996-.556-1.113-.556-2.355 0-1.177.043-1.391.427-2.087.94-1.692 2.543-2.666 4.583-2.773 1.495-.075 2.52.129 3.952.814 1.378.653 2.905 2.151 3.631 3.554l.502.963.321-.674c.651-1.392 1.538-1.98 2.98-1.98.715 0 1.143.085 1.752.374l.801.375.021-1.253c.011-.685.117-1.573.246-1.97.203-.652.203-.78 0-1.434-.513-1.563.138-3.832 1.431-4.999.331-.3.972-.717 1.421-.92.694-.321 1.025-.386 2.125-.386 1.164 0 1.41.054 2.254.45.523.246 1.228.728 1.559 1.07 1.293 1.306 1.987 3.533 1.666 5.32-.17.932-.235 2.709-.096 2.709.043 0 .342-.182.684-.396 1.047-.696 2.67-.632 4.518.17.171.076.256.044.256-.085 0-.546.364-1.37.823-1.873 1.816-2.012 5.041-.792 6.676 2.526 1.196 2.43 1.239 5.106.138 8.52-.459 1.425-1.837 4.24-2.873 5.888l-.79 1.253 1.324.096c.727.053 1.88.16 2.564.235 1.591.182 2.35.075 3.247-.492.662-.407.844-.45 1.912-.45 1.036 0 1.292.054 2.136.471 1.303.643 2.606 2.023 3.258 3.426.737 1.616 1.014 3.072 1.014 5.298-.01 3.811-1.164 7.493-3.428 10.887-1.154 1.744-3.995 4.602-6.206 6.262l-1.634 1.231 1.784.085c.982.054 2.211.193 2.734.321 3.204.771 5.96 2.398 6.451 3.79.086.235.182.203.962-.289 2.211-1.403 4.176-3.265 5.244-4.946.353-.567.374-.674.278-1.605-.321-2.901-.032-4.025 1.196-4.689.545-.289.791-.342 1.549-.278 2.734.203 4.903 3.511 4.871 7.396-.011 1.681-.428 3.404-1.41 5.909-1.752 4.453-3.707 7.408-6.943 10.512-2.67 2.569-5.116 4.26-8.492 5.909l-2.328 1.134 1.089.086c.598.043 2.104.118 3.354.16 6.249.214 11.621 1.445 13.758 3.147.299.236.566.439.598.439.032 0 .865-.364 1.869-.803 2.392-1.059 3.3-1.07 4.251-.053.513.546 1.036 1.863 1.218 3.029.993 6.434-5.352 14.034-14.388 17.223-2.35.835-6.782 2.056-9.175 2.527l-2.382.471 1.869.685c3.942 1.445 8.364 3.693 11.333 5.759 1.581 1.102 3.963 3.532 4.475 4.549 1.4 2.826.321 5.534-2.702 6.754l-.854.343 2.018.985c2.639 1.284 5.074 2.708 5.95 3.468 1.249 1.102 1.527 2.258.865 3.586-.673 1.348-2.329 2.494-4.881 3.35l-1.239.418.544.62c.631.707 1.336 2.313 1.763 3.993.235.921.288 1.52.245 2.794-.042 1.498-.085 1.702-.544 2.622-.299.611-.823 1.328-1.335 1.852-3.269 3.276-11.376 4.111-20.401 2.098-5.352-1.199-9.934-3.115-15.072-6.315-1.591-.985-7.273-4.913-10.489-7.226-.416-.299-.769-.513-.769-.471 0 .043.31.632.695 1.296.384.663.886 1.691 1.121 2.28.353.888.566 1.177 1.164 1.659 1.827 1.445 2.564 1.862 8.716 4.838 2.233 1.081 4.593 2.323 5.255 2.773 1.4.931 2.746 2.312 2.991 3.082.534 1.627-.673 3.265-2.745 3.693-1.175.247-3.151.193-4.689-.139-1.762-.374-6.355-1.916-7.487-2.526-.481-.257-1.239-.803-1.688-1.22l-.812-.76-.256 1.049c-.363 1.509-1.293 3.746-2.04 4.913l-.652 1.006 3.589 3.575c1.976 1.959 4.08 3.982 4.689 4.485 3.044 2.548 7.456 4.764 10.852 5.438 1.528.3 2.329.375 5.896.525 3.386.139 4.091.31 4.796 1.113.758.867.513 2.109-.609 3.019-.31.256-1.079.888-1.687 1.402-4.284 3.586-8.492 4.603-14.228 3.436-4.956-1.006-11.824-4.549-18.275-9.431-1.731-1.306-7.242-6.486-7.915-7.439l-.374-.525-1.773-.096c-2.168-.107-3.77-.385-5.757-.974-1.901-.567-8.534-3.158-10.297-4.025-1.698-.835-5.084-2.922-6.045-3.725-.545-.449-.716-.546-.662-.342.117.417.64 3.136.886 4.656 1.09 6.626 1.271 15.211.438 19.91-.438 2.462-1.004 3.886-2.35 5.887-1.346 2.013-2.339 2.997-3.599 3.575-.556.257-1.506.718-2.115 1.028-1.389.717-2.649 1.145-3.899 1.327-.534.075-1.015.14-1.047.129-.149.011-.502-.054-.897-.118zm3.237-2.184c.63-.149 2.36-1.059 3.781-2.012.427-.278 1.036-.878 1.356-1.327.801-1.114 1.944-3.501 2.307-4.828 1.186-4.357 1.09-13.584-.224-21.28-1.517-8.884-4.283-17.116-8.801-26.268-3.643-7.375-7.231-13.263-13.149-21.548-3.792-5.32-6.28-8.264-10.521-12.438-1.42-1.402-3.311-3.276-4.197-4.164-2.414-2.419-2.201-2.291-3.066-2.023-.897.278-4.71.931-5.394.931-.299 0-.534.086-.577.203-.16.418.203 2.302.513 2.623.352.375 1.132 2.023 2.596 5.481 2.061 4.87 2.723 7.407 2.723 10.372 0 1.584-.053 1.959-.384 2.879-1.079 3.04-4.038 6.166-7.135 7.547-.534.235-.983.471-.972.514.01.171 1.495 1.209 2.211 1.541 2.232 1.028 5.49 1.317 7.38.664.524-.182 1.026-.396 1.122-.471.096-.086.481-.675.854-1.328.876-1.53 1.891-2.536 3.215-3.2 2.575-1.285 4.551-1.028 6.591.856 2.382 2.205 2.275 5.063-.289 8.489-2.296 3.05-7.434 6.733-10.745 7.696-.758.225-.769.236-.545.546.129.171.588 1.017 1.026 1.873a87.345 87.345 0 0 0 1.976 3.575c5.073 8.639 7.306 12.867 13.949 26.376 2.959 6.015 5.747 11.635 6.206 12.47 1.848 3.415 3.514 5.502 4.903 6.134.694.289 2.232.353 3.29.117zm68.145-9.633c3.237-.782 8.236-4.057 7.424-4.871-.107-.107-1.613-.16-4.7-.171-5.148-.011-5.992-.118-8.865-1.081-3.151-1.049-6.494-2.987-9.218-5.331-1.56-1.338-6.857-6.519-7.306-7.14l-.31-.428-.865.61c-1.752 1.231-3.813 2.056-6.345 2.516-.544.096-.972.225-.95.289.021.053 1.164 1.188 2.531 2.505 5.96 5.769 14.441 11.014 20.455 12.663 2.926.792 5.992.963 8.149.439zM76.457 227.91c.695-.631 1.325-1.819 3.14-5.973.77-1.766 1.763-3.896 2.201-4.731 1.4-2.665 4.753-7.568 7.53-11.025 4.817-5.984 12.519-14.505 16.385-18.133 4.134-3.864 9.133-8.467 10.991-10.116 5.875-5.17 7.68-7.097 11.61-12.385a52.677 52.677 0 0 1 2.393-2.965c.63-.706 1.292-1.509 1.485-1.777.224-.331.683-1.83 1.41-4.688.587-2.312 1.378-5.063 1.751-6.101a123.7 123.7 0 0 0 1.4-4.218c.395-1.274 1.078-3.093 1.516-4.035.438-.942.801-1.777.801-1.863 0-.225-1.217-1.338-1.324-1.21-.053.054-.299.825-.555 1.702-1.004 3.458-1.549 4.732-3.151 7.386-4.155 6.883-9.378 12.139-14.388 14.505-2.991 1.413-5.533 1.819-7.22 1.166-.15-.064-.332.118-.566.578-.438.835-1.677 2.109-2.553 2.623-1.752 1.028-3.44 1.306-6.014 1.006-.94-.107-2.841-.332-4.219-.492-1.388-.161-2.927-.396-3.44-.525l-.918-.235-.726.781c-2.222 2.376-3.995 4.892-6.622 9.388a608.523 608.523 0 0 1-2.756 4.667c-3.93 6.54-5.277 9.591-8.652 19.696-2.307 6.893-3.236 10.008-3.375 11.303-.053.525-.096 2.323-.086 4.014.011 2.794.054 3.287.481 5.62.256 1.402.566 2.912.694 3.351.385 1.37 1.602 3.211 2.126 3.211.032-.011.342-.246.651-.525zm65.198-13.937c1.837-.46 5.202-1.755 6.911-2.665 1.816-.963 3.13-2.055 6.548-5.438 4.528-4.495 5.703-5.951 7.818-9.644 1.25-2.184 1.698-3.351 2.777-7.29a75.882 75.882 0 0 0 2.638-16.238c.171-3.201.107-4.881-.384-8.756a160.31 160.31 0 0 1-.353-2.987c-.224-2.023-.534-3.564-.769-3.843-.619-.706-1.709-3.436-2.136-5.33-.16-.739-.502-2.259-.747-3.372-1.336-6.016-1.677-9.099-1.239-11.165.363-1.691 1.228-3.361 2.317-4.453l.919-.92-1.196-.097c-1.656-.139-1.891-.032-2.596 1.167-.78 1.328-2.339 2.976-3.578 3.8-1.901 1.263-5.469 2.676-9.1 3.597-1.517.385-2.083.449-4.316.514-3.108.085-2.798-.118-4.411 3.029-2.809 5.491-5.362 14.654-6.259 22.468-.705 6.155-.972 12.856-.919 23.346.032 7.204.022 7.707-.288 9.998-.182 1.327-.427 2.954-.556 3.629-.117.674-.192 1.241-.16 1.273.032.033.513-.149 1.068-.417 1.271-.599 2.372-.632 5.074-.139 1.645.3 2.222.332 4.443.278 2.97-.075 3.418-.192 6.398-1.712 1.72-.878 4.251-2.441 4.433-2.751.053-.086.363-.364.705-.632l.609-.482-.353.653c-.523.964-2.606 2.987-4.432 4.282-2.115 1.509-4.166 2.505-5.918 2.89-1.976.428-5.298.525-7.252.214-1.41-.225-1.57-.225-2.233 0-.448.15-.982.493-1.41.91-.587.567-.715.803-.865 1.541-.096.471-.128 1.135-.085 1.456.299 1.863 2.339 3.447 4.753 3.704 1.41.15 2.19.075 4.144-.418zm-15.861-.364c1.719-.652 2.926-1.498 3.546-2.504.31-.503.609-1.916.78-3.683.811-8.456.833-8.98.854-21.537.011-6.593.011-11.978 0-11.967-.011.011-.726 1.242-1.591 2.719-2.34 4.014-3.504 6.647-3.931 8.874-.278 1.423-.256 2.205.085 4.624.342 2.43.374 4.464.086 5.588-.246.942-2.564 6.743-3.29 8.242-.577 1.177-1.399 2.173-2.019 2.43-.245.096-.438.214-.438.257 0 .332 1.101 2.001 1.731 2.622.833.814.769.942-.235.482-.93-.428-1.624-1.006-2.318-1.948-.919-1.253-1.207-2.344-1.367-5.128-.128-2.344-.353-3.532-.865-4.699-.385-.877-.802-.856-1.816.107-1.528 1.445-2.211 3.404-2.062 5.909.246 4.11 2.072 6.84 5.843 8.713 2.894 1.445 4.871 1.702 7.007.899zm149.728.086c3.023-.524 5.768-1.916 7.637-3.875.898-.942 1.004-1.124 1.378-2.344.588-1.927.812-3.34.919-5.887.149-3.458-.182-5.374-1.346-7.954-.897-1.98-1.154-2.451-1.987-3.725-1.516-2.29-2.745-3.446-5.778-5.48-1.827-1.221-5.373-3.201-5.49-3.072-.107.107.245 3.5.491 4.827.384 2.066 1.196 4.25 2.499 6.765 2.831 5.481 3.023 5.995 2.607 7.268-.129.386-.203.728-.171.76.117.118 1.954-.899 2.563-1.423.363-.311.748-.846.972-1.328.449-.995.588-.727.256.493-.544 2.012-2.873 4.035-5.885 5.106-1.794.642-3.493.835-6.494.76-2.681-.075-2.927-.118-4.23-.749-.395-.193-1.495-.643-2.435-1.007-1.987-.76-5.042-2.29-7.295-3.65-2.831-1.713-10.244-6.872-11.995-8.349-.417-.353-.769-.6-.769-.535 0 .064.47 1.295 1.036 2.751a125.917 125.917 0 0 1 1.965 5.48c1.111 3.393 1.485 4.004 3.642 6.027 1.624 1.52 4.091 3.179 6.601 4.431 2.19 1.103 9.475 3.918 11.44 4.421.918.236 2.275.492 3.012.567 1.88.193 4.817.075 6.857-.278zm-249.34-1.466c3.086-.343 7.316-1.392 12.154-3.008 10.115-3.383 20.327-8.617 32.695-16.763 3.087-2.034 4.24-2.987 5.65-4.656 1.047-1.253 2.586-3.308 2.522-3.372-.032-.032-.994.439-2.147 1.027-3.461 1.777-6.313 2.805-10.885 3.939-5.426 1.338-8.886 1.82-13.853 1.938l-3.717.086-1.015.513c-.555.279-1.613.953-2.328 1.488-1.549 1.146-6.345 4.432-8.77 6.005-4.731 3.072-10.36 5.759-16.63 7.932-1.325.46-2.895 1.06-3.493 1.338l-1.09.503.652.568c.866.76 2.265 1.477 3.781 1.948 2.083.642 3.974.792 6.473.514zm275.434-5.834c.705-.3 1.004-.739.791-1.146-.31-.588-1.795-1.766-3.023-2.387-.705-.364-2.831-1.284-4.721-2.044-3.301-1.338-5.052-2.141-6.334-2.933l-.609-.375-.064 1.863c-.075 2.066-.075 2.055.961 3.307.972 1.178 1.966 1.702 5.149 2.751 1.58.525 3.364 1.028 3.962 1.124l1.314.214c.481.086 2.008-.128 2.574-.374zm-28.775-4.517c.235-.172.438-.386.428-.482 0-.096-.267-.471-.599-.824-2.745-3.062-5.522-6.616-7.423-9.495a835.658 835.658 0 0 1-2.061-3.126c-.695-1.038-1.464-2.14-1.731-2.429-.545-.611-1.987-1.231-12.604-5.395-.822-.322-1.527-.568-1.559-.536-.075.075 2.136 3.329 3.845 5.652.737 1.006 2.201 2.997 3.258 4.442 4.721 6.455 7.68 10.373 8.043 10.619.737.503 4.635 1.638 6.462 1.863 1.613.203 3.429.075 3.941-.289zm50.191-.889c4.048-.439 6.494-1.616 7.306-3.532.288-.675.32-.932.256-2.291-.085-1.745-.608-3.65-1.196-4.357-.214-.256-.662-.513-1.132-.663-.759-.236-.865-.236-3.322.118-3.258.47-6.815.813-8.492.813-1.388 0-5.265-.417-7.359-.803a44.526 44.526 0 0 0-3.055-.374c-4.913-.396-13.981-2.591-20.091-4.86-2.916-1.092-2.734-1.028-2.467-.792 1.506 1.316 10.296 7.503 13.896 9.783 2.585 1.638 7.05 3.865 9.314 4.635 5.64 1.938 11.824 2.816 16.342 2.323zm-48.962-2.333c-.214-.418-.887-1.563-1.485-2.527-1.175-1.873-2.115-3.628-2.606-4.838-.225-.557-.556-.963-1.325-1.627-1.057-.91-2.777-2.141-2.873-2.055-.032.032.342.578.823 1.22a95.5 95.5 0 0 1 2.2 3.136 194.4 194.4 0 0 0 3.161 4.518c1.015 1.402 1.966 2.772 2.126 3.04.459.792.449.043-.021-.867zm-17.977-2.345c-2.125-2.462-7.712-9.815-10.457-13.765-.502-.717-1.164-1.638-1.474-2.023-.309-.396-.843-1.253-1.185-1.906l-.62-1.188-1.976-.92a83.037 83.037 0 0 0-4.155-1.767 89.645 89.645 0 0 1-3.183-1.295c-.544-.246-1.025-.449-1.068-.449-.043 0 .022.149.139.331.641.985 2.916 4.989 4.123 7.247 1.549 2.901 1.698 3.072 5.084 5.738.876.695 2.126 1.691 2.767 2.226 2.542 2.087 12.806 9.238 12.999 9.045.032-.043-.417-.61-.994-1.274zm-234.355-.781c2.115-.375 4.785-1.327 7.21-2.548 2.638-1.338 5.64-3.093 5.49-3.222-.064-.053-.876-.331-1.805-.642-.93-.3-2.382-.899-3.215-1.316l-1.517-.771-.79.631c-.759.611-3.91 2.462-5.736 3.372-1.058.525-3.194 1.221-4.882 1.584-.929.204-1.826.268-3.642.257-2.243-.01-2.5-.042-3.856-.449-.8-.246-1.484-.418-1.516-.396-.033.032.128.353.363.738.822 1.328 2.852 2.334 5.81 2.89 1.57.3 6.153.225 8.086-.128zm182.306-7.15c2.521-.439 4.443-1.371 7.317-3.511 3.46-2.591 5.575-5.502 5.415-7.472-.107-1.359-1.581-2.944-2.724-2.944-.982 0-2.798 1.178-3.663 2.387-.577.803-3.707 5.609-4.412 6.776-.854 1.424-1.976 2.537-3.065 3.083-.972.482-2.35.814-1.763.417.641-.428 1.709-1.509 2.179-2.215.395-.6 1.143-2.141 1.934-3.993.064-.139-.011-.15-.321-.032-1.442.546-4.133.61-5.971.15-2.424-.621-4.593-2.066-5.244-3.511-.182-.407-.331-.568-.491-.514-.385.118-5.832.664-6.965.706l-1.057.033 1.025 1.284c3.301 4.11 7.691 7.429 11.696 8.842 2.169.76 3.878.899 6.11.514zm115.997-.011c6.847-.696 11.547-1.777 13.651-3.147 1.143-.739 1.271-1.178.534-1.809-.63-.546-3.973-2.419-5.992-3.361-.801-.375-3.098-1.37-5.095-2.216-4.646-1.959-10.489-4.764-15.936-7.654a487.605 487.605 0 0 1-4.882-2.612c-.94-.545-.512-.192 1.346 1.082.961.653 3.311 2.322 5.223 3.703 5.918 4.271 6.825 5.128 7.552 7.087.63 1.712.47 3.382-.534 5.501-.481 1.007-.812 1.467-1.805 2.441l-1.218 1.199h2.467a47.32 47.32 0 0 0 4.689-.214zm-263.077-.353a77.282 77.282 0 0 0 11.867-2.559c4.176-1.252 9.218-3.468 11.931-5.245 2.072-1.359 2.478-1.819 4.198-4.827 2.617-4.582 4.635-7.547 6.505-9.591l.769-.846-.31-.31-.31-.311-.844.717c-.46.396-1.431 1.231-2.147 1.863-3.962 3.489-8.47 6.412-14.708 9.537-3.962 1.991-7.68 3.533-12.23 5.096-1.74.588-8.416 2.536-8.694 2.515-.256-.011.961-.557 3.963-1.777 2.66-1.081 4.742-2.023 9.047-4.1 8.042-3.885 16.235-9.173 21.373-13.819 2.36-2.13 2.413-2.226 2.36-4.378-.053-1.83.15-3.136.78-4.967.203-.588.342-1.091.32-1.113-.021-.021-.758.182-1.634.471-5.65 1.841-6.6 2.173-7.263 2.612-.395.257-1.025.621-1.378.803-.62.31-2.264 1.263-7.53 4.324a158.381 158.381 0 0 1-4.006 2.238c-.982.524-3.13 1.798-4.763 2.836-1.645 1.038-3.61 2.248-4.369 2.687-2.2 1.274-10.863 5.406-12.305 5.866-.32.107-1.634.664-2.916 1.252-3.13 1.424-3.76 1.659-7.914 2.858-4.508 1.306-7.381 2.409-8.556 3.286-.417.311-.449.386-.288.653.299.493 1.687 1.328 3.332 1.981 3.343 1.348 7.327 2.023 15.264 2.579 2.072.161 8.277-.042 10.456-.331zm252.727-.643c2.265-.481 3.867-1.787 5.02-4.078.577-1.156.652-1.413.577-1.959a4.867 4.867 0 0 0-1.025-2.323c-.513-.61-2.948-2.376-7.723-5.609-4.176-2.826-5.308-3.532-9.207-5.759a234.416 234.416 0 0 1-4.732-2.772c-3.46-2.098-5.992-3.511-9.356-5.224-3.632-1.851-5.373-2.633-7.338-3.286l-1.367-.46-1.325.225c-5.031.856-11.461 1.263-15.381.984a117.884 117.884 0 0 1-3.46-.289l-.93-.107.428.375c.235.203 1.036.899 1.783 1.541 2.916 2.516 6.42 6.519 8.727 9.998 1.613 2.43 2.627 3.276 7.402 6.209 4.037 2.483 6.003 3.586 8.331 4.699 5.864 2.794 10.692 4.453 19.28 6.604 5.586 1.392 8.107 1.692 10.296 1.231zm-41.186-1.07c-.086-.46-.267-1.863-.385-3.104-.128-1.242-.352-2.751-.502-3.351-.406-1.637-2.051-5.341-3.215-7.268-3.375-5.545-9.367-12.021-13.96-15.093a93.586 93.586 0 0 1-2.051-1.424 12.383 12.383 0 0 0-1.965-1.102 19.81 19.81 0 0 1-1.752-.824c-.983-.546-4.529-1.981-5.33-2.152-.812-.182-3.642-.535-6.419-.813-1.912-.193-2.414-.3-4.764-1.082-1.442-.481-3.525-1.305-4.636-1.841-1.1-.535-2.435-1.134-2.958-1.327-.524-.193-2.671-1.22-4.764-2.28l-3.824-1.916-.545.332c-.299.182-.982.535-1.516.792s-.983.546-.983.631c0 .097 1.057 1.189 2.36 2.441 2.543 2.441 6.676 6.776 8.492 8.917 1.421 1.67 4.283 5.502 6.697 8.959l1.88 2.687 1.677.931c3.418 1.895 4.71 2.505 8.299 3.896.919.354 2.265.921 2.98 1.264 2.681 1.252 8.225 3.714 10.553 4.677 3.066 1.263 9.464 4.196 11.045 5.063 1.623.889 4.026 2.505 4.913 3.308.395.353.737.621.769.589.032-.043-.011-.439-.096-.91zM43.72 175.331c3.332-1.284 4.689-1.873 6.91-3.008 3.044-1.541 6.943-3.65 8.31-4.485 2.842-1.723 7.029-4.635 8.14-5.652 1.676-1.541 3.716-3.543 3.716-3.661 0-.053-.117-.075-.256-.042-.32.075-8.342.867-10.937 1.081l-1.955.16-.812.707c-1.26 1.102-7.594 7.568-9.72 9.923-1.858 2.055-3.012 3.168-5.276 5.084-1.293 1.103-1.314 1.113-1.026 1.006.118-.042 1.432-.546 2.906-1.113zm282.527-.739c2.435-.674 3.204-1.434 2.713-2.708-.299-.792-1.816-2.44-3.332-3.628-1.592-1.242-4.422-2.998-6.708-4.175-2.542-1.295-7.381-3.201-10.105-3.961-1.164-.331-2.616-.396-12.966-.631l-4.006-.086.652.386c4.315 2.547 21.212 11.271 25.741 13.294 3.931 1.745 5.843 2.109 8.011 1.509zm-136.858-.289c4.102-.438 5.01-.652 6.911-1.627 2.232-1.145 4.251-3.478 4.871-5.619.341-1.199.213-3.297-.353-5.47-.534-2.077-3.525-9.195-4.411-10.501-.321-.482-1.036-1.317-1.57-1.863-.534-.545-1.164-1.22-1.399-1.509l-.428-.514-2.189-.15c-2.372-.171-5.576-.599-7.766-1.049-.758-.149-1.388-.267-1.409-.246-.022.022.021.396.096.835.192 1.156.192 4.774-.011 6.626-.16 1.488-.096 3.661.117 3.982.182.289 2.489 1.52 4.166 2.237 2.254.953 4.572 1.649 6.558 1.97.876.139 1.859.321 2.179.407.545.139.556.149.214.257-.961.289-4.166.074-6.751-.45-3.022-.61-6.344-1.98-9.677-3.982-2.98-1.798-3.941-2.141-5.96-2.141-1.111 0-1.249.032-1.591.375-.363.364-.374.428-.289 1.477.225 2.622 2.585 7.985 4.882 11.09 1.677 2.269 3.418 3.778 5.618 4.881 1.239.621 1.837.824 3.183 1.059 1.453.268 1.89.257 5.009-.075zm-82.159-9.269c.951-.332 2.179-1.488 2.681-2.527.342-.695.406-1.006.406-2.001 0-1.766-.395-2.484-2.446-4.507-.908-.888-2.126-2.205-2.713-2.911-1.122-1.349-1.602-1.702-2.318-1.702-.235 0-1.346.267-2.467.588-2.308.664-4.262 1.049-4.455.867-.17-.16.481-.556 2.607-1.594 2.788-1.371 3.952-1.788 4.945-1.799 1.143-.01 1.773.321 2.98 1.606a283.91 283.91 0 0 0 2.991 3.04c1.634 1.627 2.157 2.248 2.574 3.061.545 1.071.844 2.173.844 3.147 0 .493.053.6.395.728 1.431.546 5.522-1.049 8.566-3.34 4.7-3.532 10.222-11.078 12.732-17.405.321-.813.566-1.509.534-1.53-.032-.032-.705.685-1.495 1.584-2.307 2.612-6.419 6.754-7.509 7.568-3.856 2.858-7.541 3.671-10.446 2.29-1.41-.674-3.001-2.312-3.738-3.842-.802-1.67-.844-2.858-.214-5.256.577-2.152 1.421-3.95 3.311-7.076.801-1.327 1.442-2.429 1.41-2.462-.032-.032-.438.3-.908.728-.47.428-1.858 1.627-3.097 2.666-4.316 3.607-12.07 10.811-14.687 13.648-2.905 3.157-4.304 5.598-5.116 8.98-.556 2.302-.278 3.672 1.046 5.106 1.122 1.221 2.361 1.66 5.694 2.034 1.142.129 2.659.321 3.385.439 1.624.268 3.579.203 4.508-.128zm-60.231-3.865a46.211 46.211 0 0 0 5.319-.92l1.335-.321-4.571-.022c-6.505-.032-11.365-.439-15.37-1.284-2.115-.45-2.105-.45-1.496.01 1.196.9 3.033 1.553 5.981 2.12 2.852.535 6.26.706 8.802.417zm-19.397-3.489c.876-.279 1.292-.589.8-.6-.362 0-3.513-1.616-4.41-2.258-1.25-.899-2.436-2.248-3.002-3.447-.267-.557-.545-1.006-.63-1.006-.374.01-1.56 1.092-1.965 1.777-.545.952-.556 1.563-.064 2.558.672 1.359 2.435 2.612 4.432 3.168 1.132.332 3.546.225 4.839-.192zm24.983-.45c3.728-.16 5.715-.332 12.497-1.081 9.688-1.081 16.16-2.376 22.815-4.56 4.838-1.584 4.796-1.563 6.964-3.95 1.805-1.991 4.294-4.485 6.943-6.958.758-.706 1.282-1.252 1.164-1.209-.117.043-.908.374-1.752.738-6.11 2.634-14.227 3.544-23.53 2.644-3.952-.385-4.08-.374-7.402.643-1.602.492-3.824 1.091-4.946 1.327a75.083 75.083 0 0 0-3.93.953c-8.93 2.408-13.928 3.297-20.946 3.735-3.172.193-6.783.043-11.194-.471-1.431-.171-2.628-.278-2.66-.235-.245.246 2.617 4.571 4.049 6.123l.769.835 2.179.428c4.913.985 11.6 1.349 18.98 1.038zm260.289-.792c4.177-.567 10.532-2.28 13.822-3.725 5.468-2.408 9.987-7.065 10.852-11.165.363-1.734.256-3.511-.267-4.228-.192-.257-.246-.246-1.175.418-1.41 1.006-3.397 1.905-5.533 2.483-2.606.717-7.338 1.627-9.837 1.895-2.767.3-4.049.492-4.38.674-.235.129-.277.332-.277 1.638 0 4.902-2.82 9.12-7.808 11.721l-1.293.674 2.179-.085c1.207-.054 2.873-.182 3.717-.3zm-13.533-.653c2.137-.471 4.625-1.231 6.334-1.959 4.935-2.087 7.445-5.47 7.733-10.383.086-1.456-.053-2.258-.395-2.258-.085 0-.758.353-1.495.792-2.233 1.327-5.811 2.633-8.214 3.008-.951.149-1.218.267-2.67 1.241-4.134 2.773-10.927 5.909-15.926 7.365-.876.257-1.655.514-1.709.567-.256.236 4.646 1.606 6.772 1.905.502.065 2.51.107 4.475.097 3.087-.032 3.771-.086 5.095-.375zm-119.607-.92c-.097-.578-.246-2.27-.332-3.758-.17-3.018-.95-7.846-1.527-9.505-.491-1.424-1.463-2.783-3.183-4.464-3.044-2.975-5.821-4.217-7.391-3.318-.673.385-1.378 1.466-1.741 2.665-.235.75-.299 1.36-.299 2.666 0 1.894.288 3.575 1.474 8.659.929 3.972.94 4.025 1.474 5.438l.459 1.21.449-.428c.822-.782 1.335-.953 3.044-1.017 2.542-.097 4.507.535 6.643 2.162.524.396.983.717 1.026.728.053.011 0-.46-.096-1.038zm-149.473.289c-1.057-.782-2.446-2.077-3.439-3.201a74.763 74.763 0 0 0-2.125-2.28c-.94-.942-1.111-1.06-1.528-1.028-.448.043-.48.086-.523.664-.14 1.863 2.617 4.228 6.654 5.738 1.335.513 1.527.524.961.107zm235.52-.835c5.629-.364 12.283-1.435 17.613-2.837 6.516-1.713 15.039-5.588 19.429-8.842 1.624-1.199 4.465-4.046 5.223-5.223.93-1.445.759-2.345-.705-3.715-1.217-1.145-3.054-1.841-5.81-2.216-1.688-.235-14.484-.631-20.401-.642-1.965 0-5.789-.096-8.513-.214s-6.74-.214-8.929-.214h-3.985l.748.589c.801.631 1.869 1.991 2.403 3.05.994 1.959 1.368 5.01.887 7.183-.598 2.687-2.297 5.042-5.084 7.033-1.346.952-3.589 2.226-4.86 2.729-1.325.536-3.952 1.221-5.245 1.36-.502.053-.876.15-.843.214.042.064.875.385 1.858.706 1.474.493 2.19.632 4.112.835 4.348.439 7.531.493 12.102.204zm-17.87-4.828c2.265-.257 4.465-.878 6.164-1.755 4.389-2.259 6.814-4.657 7.412-7.354.214-.953.203-3.19-.01-4.1-.438-1.809-1.635-3.425-3.023-4.1-1.56-.76-4.433-.621-7.36.375-.63.214-1.196.492-1.26.61-1.613 3.415-2.521 4.731-4.742 6.861-1.528 1.467-3.984 3.415-5.779 4.582-2.243 1.466-5.81 3.008-7.455 3.243-1.1.15-.556.311 1.655.482 1.154.086 3.578.364 5.384.61 5.244.707 6.782.792 9.014.546zm-127.607-1.97c1.484-.438 3.225-1.498 4.956-2.997.94-.813 4.902-5.052 6.654-7.107.641-.75 1.666-2.205 2.275-3.244.609-1.027 1.431-2.226 1.837-2.665l.727-.792-1.56-.064c-1.239-.054-1.933-.182-3.386-.611-2.521-.749-4.486-1.487-6.099-2.312-.758-.385-1.538-.695-1.751-.695-.652.01-2.094 1.776-5.512 6.743-.812 1.188-1.485 2.173-1.485 2.195 0 .021.46.01 1.026-.022.876-.053 1.132 0 1.794.321 1.058.514 2.179 1.745 2.788 3.04.502 1.071.801 2.302.555 2.302-.074 0-.352-.375-.63-.835-1.42-2.387-3.439-3.554-4.999-2.901-.929.385-2.467 2.259-3.247 3.928-.694 1.499-.331 2.965 1.122 4.485 1.303 1.381 3.012 1.799 4.935 1.231zm-81.166-.503c6.301-.396 12.764-1.541 20.166-3.553 1.88-.514 4.144-1.082 5.02-1.264.876-.182 1.645-.374 1.709-.417.053-.054-1.912-.278-4.369-.503-4.262-.396-4.774-.407-11.098-.364l-6.622.053-1.314.686a17.809 17.809 0 0 0-2.403 1.573c-1.688 1.37-3.023 2.355-4.262 3.115-.62.385-1.132.728-1.132.76.01.107 1.901.064 4.305-.086zm192.389-1.637c2.574-.675 5.618-2.398 8.865-5.021 3.14-2.526 4.988-4.667 6.067-6.99 1.057-2.29 1.944-7.032 1.944-10.415 0-3.736-.791-5.245-2.756-5.245-1.1 0-1.923.439-3.108 1.649-1.314 1.348-2.04 2.483-3.429 5.352-1.773 3.661-2.894 5.234-5.661 7.889-3.941 3.789-7.498 5.534-14.302 7.011-1.089.235-2.2.503-2.489.599-.523.172-2.189 1.157-2.179 1.285 0 .043 1.4.739 3.098 1.563 4.988 2.398 6.654 2.836 10.361 2.761 1.762-.064 2.456-.149 3.589-.438zm-30.751-1.916c4.454-.686 7.669-1.863 10.777-3.94 2.478-1.659 4.411-3.307 7.38-6.272 2.692-2.698 3.899-4.196 4.764-5.963.662-1.348.78-2.033.481-2.761-.192-.471-.438-.643-2.094-1.499-1.847-.953-1.879-.963-2.766-.888-1.154.107-3.172.706-6.013 1.798-6.238 2.387-10.596 3.447-16.578 4.035-4.956.493-9.132.225-14.74-.941-1.548-.322-3.161-.589-3.567-.589-1.314 0-1.538.096-2.019.899-.822 1.381-2.937 3.019-4.774 3.704l-.705.257.779.246c1.848.578 3.29 1.584 5.437 3.81 1.837 1.895 2.831 3.383 3.429 5.128.384 1.113.448 1.209.993 1.445 1.015.428 3.941 1.006 8.962 1.777 1.068.171 8.79-.022 10.254-.246zm107.591-2.912c.844-.428 1.933-.996 2.435-1.263 1.132-.589 2.126-.717 3.012-.375.598.225 1.56 1.103 1.709 1.552.054.161.225.15.929-.053.481-.129 1.912-.407 3.194-.621 2.724-.439 9.111-1.788 9.293-1.959.149-.15-2.521-.792-4.497-1.092-1.837-.278-5.095-.471-9.677-.588a362.237 362.237 0 0 1-3.835-.118c-.181-.022-.32.139-.448.503-.417 1.177-2.072 3.34-3.343 4.346-.31.246-.513.449-.438.449.074 0 .822-.353 1.666-.781zm-220.395-.685c2.36-.171 4.294-.439 6.376-.878 2.778-.589 4.358-1.124 7.381-2.505a67.597 67.597 0 0 1 3.856-1.584c2.136-.792 5.618-2.644 7.787-4.142.715-.504 1.954-1.274 2.734-1.724 1.282-.738 4.614-3.275 4.732-3.607.021-.075-.534-.728-1.239-1.445l-1.282-1.317-1.378.418c-.758.235-1.976.685-2.692.995-2.531 1.113-5.842 2.066-10.702 3.072-7.189 1.488-12.316 1.681-17.432.685-3.525-.695-10.329-2.815-13.255-4.142-1.602-.728-2.286-1.092-8.919-4.721-10.083-5.523-12.315-6.561-14.505-6.776-1.153-.107-1.976.182-2.788 1.017-1.014 1.028-1.239 1.659-1.228 3.533.021 3.446 1.325 6.754 3.888 9.923 3.375 4.164 6.953 6.925 11.813 9.098 4.743 2.12 7.67 2.869 14.142 3.597 5.191.589 9.25.749 12.71.503zm57.283-1.167c2.862-.396 7.872-1.927 10.489-3.19 2.435-1.177 4.208-3.072 4.988-5.32.32-.931.363-1.241.342-3.179-.032-3.522-.406-5.288-1.464-6.936-.662-1.017-1.281-1.574-2.318-2.055-.651-.3-.95-.354-1.815-.3-1.4.075-2.852.771-5.96 2.879-4.145 2.815-6.206 4.646-7.082 6.284-.267.503-.737 1.744-1.036 2.761-.299 1.007-.823 2.494-1.175 3.297-.545 1.274-.63 1.595-.63 2.548-.011 1.317.235 1.862 1.089 2.43 1.303.877 2.468 1.07 4.572.781zm-86.902-.728c-.053-.085-.46-.342-.919-.567-4.817-2.441-10.66-8.264-12.924-12.888-.31-.621-.63-1.135-.726-1.135-.096 0-1.047.129-2.115.289-5.661.846-21.117-.321-27.29-2.055-2.895-.813-4.284-1.605-6.986-4.003-1.816-1.606-2.959-2.334-3.93-2.484-.439-.075-.641-.032-.823.14-.545.545-.502 3.35.117 6.497.342 1.734.406 1.905 1.154 2.997 1.901 2.805 4.828 5.577 8.021 7.59 4.444 2.804 9.197 4.121 17.4 4.806 6.462.546 10.222.696 19.504.803 5.244.053 9.56.117 9.581.128 0 .021-.021-.032-.064-.118zm164.084-2.408c2.606-.803 4.945-1.916 6.601-3.137 1.602-1.188 4.689-4.303 5.586-5.641.395-.578.673-1.092.63-1.134-.042-.043-.427 0-.865.107-1.912.439-5.223.171-7.477-.61l-.769-.268-.096.995c-.246 2.602-2.125 5.984-5.137 9.174-.663.706-1.015 1.177-.876 1.177.149 0 1.217-.299 2.403-.663zm88.397-4.079c1.325-.503 5.683-2.611 6.676-3.221 4.465-2.762 8.491-6.969 10.489-10.972.769-1.531 1.89-4.475 2.189-5.749.353-1.466.364-2.729.054-3.982-.438-1.755-1.624-3.211-2.521-3.104l-.374.043v2.922c0 2.334-.053 3.105-.256 3.865-.406 1.477-1.581 3.725-2.852 5.405-1.132 1.509-3.097 3.64-3.365 3.64-.074 0 .246-.578.705-1.274.94-1.424 2.137-3.522 2.628-4.635.256-.578.876-2.227.876-2.334 0-.01-.673.643-1.495 1.456-1.784 1.766-3.931 3.244-6.591 4.549-2.307 1.135-4.112 1.735-7.712 2.612-5.596 1.349-8.235 1.809-10.606 1.841-1.132.011-1.143.022-1.292.461-.321.931-1.763 3.714-2.382 4.592-.353.503-.641.942-.641.963 0 .022.961.086 2.147.15 6.035.278 9.773 1.199 11.781 2.89l.609.514.694-.214c.417-.129.961-.31 1.239-.418zm-145.413-1.894c3.29-.214 5.554-.91 7.402-2.291 1.997-1.498 2.168-3.425.459-5.277-1.452-1.584-5.693-3.672-8.139-4.025-.897-.128-3.856.011-4.027.193-.032.032.193.439.513.888 1.346 1.927 1.816 3.95 1.827 7.921.01 2.42.042 2.794.224 2.751.107-.042.897-.107 1.741-.16zm88.354-1.178c3.952-.845 7.616-1.006 15.659-.695l5.682.224 1.314-.503c2.628-1.017 4.55-2.151 5.821-3.414.684-.685 1.752-2.195 1.635-2.312-.032-.033-.705.107-1.506.31-2.297.589-6.826 1.477-8.727 1.723-.961.129-4.112.321-6.985.45-2.884.128-5.939.3-6.794.385-.854.086-2.424.139-3.492.118l-1.944-.032-1.56.92c-1.655.985-1.623.942-1.805 2.387l-.107.857.93-.107a29.768 29.768 0 0 0 1.879-.311zm37.684-.342c.448-.236.715-.568 1.431-1.863 1.506-2.686 2.403-4.785 2.937-6.829.652-2.473.737-6.465.235-9.859-.342-2.248-1.164-4.046-2.147-4.667-1.047-.653-2.456-.096-3.268 1.285-.876 1.498-1.293 3.168-2.831 11.485-.384 2.088-1.164 4.432-1.869 5.62-1.121 1.884-2.905 3.479-4.967 4.442-.427.204-.758.375-.715.397.074.032 6.195.192 8.918.235 1.453.032 1.806-.011 2.276-.246zm-153.393-.107c.641-.075.684-.107.855-.685.363-1.199 1.431-2.997 2.51-4.207.844-.942 3.183-2.869 4.956-4.068.94-.642 1.72-1.199 1.72-1.231 0-.032-.406-.267-.908-.524-3.974-2.002-8.364-6.348-13.031-12.888-1.934-2.708-5.501-8.103-7.221-10.897-2.691-4.378-5.864-8.381-7.477-9.41-.886-.566-2.2-.952-2.862-.823-1.634.3-3.215 2.109-5.714 6.53-.631 1.123-1.859 2.986-2.713 4.153-1.848 2.504-2.788 4.303-3.13 5.94-.224 1.103-.224 1.231.021 2.28.289 1.21 1.122 2.816 2.286 4.368.983 1.316 3.183 3.939 3.172 3.8 0-.064-.128-.739-.288-1.51-.342-1.648-.363-2.569-.075-3.639.534-2.023 1.998-4.185 5.618-8.317 2.062-2.355 3.29-4.014 3.611-4.86.16-.439.331-1.37.384-2.151.054-.76.203-1.745.342-2.184l.235-.803.096 1.092c.31 3.436.321 4.196.064 4.988-.384 1.21-1.249 2.548-3.877 6.048-4.208 5.598-4.7 6.701-4.144 9.377.587 2.772 1.378 4.335 3.375 6.604 4.892 5.556 6.815 7.6 7.872 8.393.299.224.822.642 1.175.942 1.26 1.081 4.86 2.59 8.502 3.553 1.367.375 2.414.396 4.646.129zm-40.342-1.948c2.755-.279 9.089-1.467 12.86-2.398 2.093-.525 2.745-.792 4.625-1.895l1.111-.653-3.333-3.404c-1.837-1.873-3.941-4.121-4.689-5.009-.748-.889-1.453-1.681-1.57-1.788-.118-.096-.705-.289-1.293-.428-1.474-.343-6.846-.343-10.157 0-2.275.235-7.83 1.006-10.788 1.499-2.575.428-6.452 1.391-8.214 2.044-.961.353-2.895 1.07-4.305 1.595-2.37.878-5.063 1.67-5.693 1.67-.438 0-.32.193.353.556 7.615 4.229 8.79 4.732 15.947 6.798 2.691.781 4.86 1.241 7.167 1.53 1.26.182 5.8.107 7.979-.117zm99.569-1.103c3.557-.385 4.732-.599 5.661-1.07 1.784-.9 5.256-3.79 6.484-5.395.609-.792 1.25-1.916 1.25-2.173 0-.236-1.795-1.542-2.916-2.12l-1.09-.567-1.378.086c-.758.042-2.435.278-3.717.524-1.281.246-3.332.6-4.561.803-1.228.203-2.83.557-3.567.792-3.941 1.252-7.039 1.274-11.803.075-1.442-.364-2.254-.707-3.055-1.263l-.427-.3.107.428c.053.236.459 1.049.887 1.809.427.76.918 1.799 1.078 2.291.385 1.156.396 2.74.022 3.8-.15.428-.225.792-.182.824.459.268 5.608 1.274 7.872 1.531 2.809.321 5.843.3 9.335-.075zm38.634-1.959c.609-.235.919-.46 1.09-.771 1.698-3.093 3.236-4.774 5.34-5.823 1.282-.631 1.282-.631 2.895-.631 1.752 0 2.243.16 3.461 1.124 1.142.899 2.264 3.211 2.531 5.213l.096.749.673-.396c1.239-.728 3.279-2.323 5.042-3.961 5.554-5.159 8.705-10.233 9.378-15.125.192-1.413.203-4.1.01-5.288-.245-1.498-.854-3.404-1.548-4.838-1.571-3.265-5.138-5.31-6.249-3.596-.427.652-.32 2.29.353 5.18.929 4.036 1.046 4.806 1.046 7.076 0 3.2-.416 5.159-1.634 7.611-1.015 2.044-3.546 5.138-3.909 4.763-.118-.118-.075-.321.128-.728.16-.31.673-1.317 1.143-2.237.876-1.702 1.538-3.49 1.719-4.657l.107-.642-.747.653c-2.329 2.034-6.676 3.757-11.525 4.56-3.45.568-5.266.675-11.643.696l-5.885.011-1.752.92c-2.702 1.413-5.202 2.184-8.449 2.591l-1.452.182 1.677 1.102c2.125 1.392 8.384 4.935 9.912 5.609 2.051.899 2.99 1.081 5.298 1.028 1.698-.032 2.179-.097 2.894-.375zm-58.351-.514c.182-.481.235-.931.182-1.744-.064-.996-.139-1.21-.951-2.666-1.175-2.108-1.399-2.826-1.314-4.239.075-1.327.374-1.991 1.496-3.393 1.377-1.723 1.559-2.366.747-2.697-2.008-.846-5.234-.022-7.007 1.777-1.1 1.113-1.783 2.547-2.072 4.335-.288 1.745-.213 1.937.93 2.419 3.706 1.541 6.526 4.121 7.38 6.765.128.375.321.193.609-.557zm34.842-.995c1.805-.589 3.514-1.135 3.802-1.21l.513-.139-1.73-1.134c-.951-.621-1.816-1.167-1.923-1.21-.107-.043-.288.128-.438.417-.438.867-1.623 2.366-2.659 3.372-.556.546-.983.985-.94.985.053-.011 1.57-.492 3.375-1.081zm47.52-.032c.235-.032 3.077-.161 6.334-.289 3.258-.129 6.762-.321 7.808-.45 1.934-.235 10.222-1.595 10.617-1.755.118-.043.246-.193.289-.321.16-.578.395-1.82.673-3.447.16-.964.48-2.74.715-3.939.235-1.199.406-2.216.374-2.238-.021-.032-.331.118-.673.322-1.698.995-5.052 2.076-9.591 3.093-1.592.353-3.942.91-5.224 1.231-2.114.535-4.731 1.049-6.376 1.274-.577.075-.694.171-1.602 1.338-.534.696-1.891 2.194-3.012 3.34l-2.03 2.087.652-.086c.341-.053.822-.128 1.046-.16zm-217.137-2.013c-.192-.513-.256-2.611-.107-3.735.193-1.445.737-2.687 1.613-3.693l.588-.675-.481-.085c-.267-.043-1.132-.182-1.933-.3-2.158-.332-3.824-.76-4.764-1.22-.46-.225-.833-.386-.833-.354 0 .032.192.429.427.889s.587 1.263.801 1.766c.652 1.606.46 1.734-.694.482-2.286-2.452-2.884-3.404-3.835-6.155-.737-2.12-1.132-2.848-1.869-3.501-.587-.524-.844-.503-1.634.086-.566.428-1.025 1.285-1.143 2.13-.3 2.227 1.923 6.07 5.49 9.527 2.393 2.312 4.027 3.372 6.964 4.528 1.41.557 1.517.589 1.41.31zm260.471-.406c2.606-.439 8.214-1.724 9.827-2.248.801-.268 2.04-.75 2.766-1.092l1.314-.61-.363-.3c-.588-.492-2.617-1.392-4.091-1.82-1.314-.374-1.506-.396-5.149-.406l-3.781-.022-1.239.749a128.56 128.56 0 0 0-2.179 1.36c-.523.332-1.025.61-1.121.61-.224 0-.289.321-.395 1.895-.043.685-.15 1.498-.214 1.798l-.128.567 1.549-.107a33.407 33.407 0 0 0 3.204-.374zm-150.743-2.965c1.175-.311 1.848-.397 3.492-.439 1.122-.032 2.628-.15 3.344-.268a35.2 35.2 0 0 1 2.296-.321c1.154-.107 1.111 0 .769-2.152-.117-.738-.352-3.842-.513-6.893-.331-6.176-.491-7.74-1.239-11.967-1.292-7.344-2.221-10.34-4.069-13.124-.801-1.21-2.884-3.34-3.471-3.564-.332-.129-2.126.042-3.023.278-1.464.396-2.596 1.616-3.771 4.089-2.136 4.496-3.257 9.773-3.257 15.307 0 4.143.576 7.643 2.008 12.16.769 2.43 1.548 3.768 3.343 5.78 1.613 1.799 1.591 1.788 4.091 1.114zm-88.942-1.317c2.777-.375 4.753-.781 6.259-1.306l1.452-.503-3.717-.011c-3.343-.011-5.949-.118-9.602-.374l-1.239-.086 1.965 1.049c1.08.578 2.094 1.145 2.254 1.252.374.247.652.247 2.628-.021zm126.358-1.606c1.837-.321 3.354-.867 5.757-2.055 4.411-2.194 8.096-4.849 13.319-9.58 5.79-5.245 8.684-10.18 9.314-15.885.15-1.317.107-5.053-.074-6.476-.47-3.843-1.816-7.675-3.376-9.624a82.751 82.751 0 0 1-1.452-1.894c-1.709-2.302-4.422-4.25-6.292-4.528-2.36-.353-2.937 1.595-1.634 5.502.62 1.852.812 3.318.812 6.198 0 3.168-.459 6.39-1.314 9.152-.523 1.712-2.296 6.048-3.354 8.189-1.089 2.237-3.61 6.476-5.073 8.542-2.126 2.997-5.02 5.994-7.509 7.76-1.869 1.327-5.084 2.751-7.477 3.318-.448.107-.726.236-.651.311.213.214 2.905.845 4.475 1.07 1.987.257 3.012.257 4.529 0zm27.824-.813a20.621 20.621 0 0 0 6.665-2.077c4.807-2.398 8.748-6.123 11.344-10.715 2.018-3.564 3.311-7.675 2.884-9.152-.107-.375-.203-.45-.663-.482-.619-.053-1.805.44-2.531 1.05-.256.213-1.56 1.733-2.884 3.382-1.324 1.638-2.852 3.372-3.386 3.853-1.356 1.21-8.064 6.252-9.293 6.99-1.388.825-3.343 1.606-5.874 2.345-3.044.888-3.183.942-4.187 1.83-.502.439-1.026.856-1.164.942-.203.118-.225.214-.107.546.117.321.363.503 1.164.835.555.235 1.474.503 2.04.61 1.271.214 4.486.246 5.992.043zm84.018-1.906c8.609-5.512 12.294-9.43 13.779-14.632.545-1.916.694-3.158.619-5.042-.138-3.34-1.388-5.47-3.3-5.652-.705-.064-.716-.064-.993.493-.566 1.113-.908 2.997-1.271 6.818-.267 2.794-.684 4.667-1.41 6.24-.673 1.467-1.763 3.084-2.724 4.068-.79.803-2.905 2.387-3.033 2.27-.033-.032.331-.536.822-1.114.737-.877 2.061-3.072 2.061-3.414 0-.054-.47.332-1.046.867-1.741 1.616-3.899 2.965-6.398 4.003l-1.122.46.278.814c.32.931.651 2.804.801 4.453.096 1.06.117 1.113.384.974.139-.075 1.293-.803 2.553-1.606zm-134.476-1.22c.257-.375.834-1.038 1.271-1.477l.812-.803.118-2.002c.064-1.102.277-3.446.48-5.213.524-4.635.716-8.627.641-13.059-.064-3.318-.128-4.174-.459-6.048-.641-3.65-1.666-7.257-2.713-9.505-.876-1.895-1.346-2.152-2.574-1.434-1.314.77-3.205 3.64-4.091 6.197-.47 1.36-1.047 3.822-1.047 4.496 0 .236.385 1.188.855 2.12 1.356 2.697 2.531 6.519 3.514 11.485.833 4.175 1.025 6.016 1.378 12.535.117 2.291.256 4.453.309 4.806l.086.653.48-1.049c.257-.557.684-1.338.94-1.702zm103.042 1.734c1.474-.353 3.962-.91 5.532-1.231 5.021-1.038 8.033-1.969 10.671-3.286 1.143-.578 1.549-.867 1.41-1.006-.032-.032-1.325.118-2.895.31-2.499.321-3.514.364-8.384.407l-5.544.043-.79.546c-1.549 1.081-2.436 2.087-3.205 3.607l-.715 1.424.619-.097c.342-.032 1.827-.364 3.301-.717zm-193.66-.792a162.9 162.9 0 0 0 10.04-.942c10.147-1.252 13.971-1.477 17.228-1.006.727.107.769.268-.384-1.552-.566-.899-.78-1.113-1.196-1.22a75.711 75.711 0 0 1-2.04-.621 269.16 269.16 0 0 0-9.143-2.687l-2.233-.6-2.36.664c-5.17 1.456-6.356 1.616-12.327 1.606-6.462 0-10.36-.396-17.4-1.756-3.545-.685-6.055-1.338-9.174-2.376a107.598 107.598 0 0 0-5.426-1.616c-3.258-.857-4.732-1.413-7.456-2.784-2.414-1.22-4.133-2.355-6.045-3.981-.801-.686-1.474-1.22-1.506-1.189-.129.118.95 1.874 1.73 2.837.865 1.06 1.004 1.317.716 1.317-.3 0-2.852-2.045-3.397-2.73-.748-.931-1.517-2.537-2.275-4.785-.748-2.216-1.143-2.74-1.987-2.676-1.164.096-1.623 1.724-1.09 3.896.845 3.469 3.002 6.113 8.13 9.966.896.674 2.135 1.51 2.766 1.863.63.353 1.527.899 2.008 1.209 3.193 2.098 12.4 5.813 18.264 7.386 3.814 1.017 5.555 1.328 9.186 1.617 6.366.535 8.887.556 15.37.16zm129.156-.963c2.264-1.221 3.386-2.27 6.131-5.781.427-.546.726-.984.684-.984-.054 0-.759.642-1.581 1.423-1.496 1.424-4.636 4.175-6.281 5.502-.48.386-.908.739-.95.782-.171.171.598-.182 1.997-.942zm-23.093-.717c2.158-.75 2.542-.985 3.878-2.345 1.388-1.413 1.42-1.466 2.189-3.768.791-2.365.962-3.51.962-6.422 0-4.496-1.047-8.531-3.568-13.723-2.136-4.41-4.187-6.476-6.419-6.476-1.87 0-2.916 1.284-2.574 3.168.202 1.092.405 1.52 2.713 5.823 2.798 5.213 3.482 6.937 4.037 10.18.758 4.421-.278 10.373-2.339 13.359-.278.407-.481.728-.438.728.032-.011.737-.246 1.559-.524zm-41.742-.9c-.512-1.905-1.057-5.373-1.249-7.878-.193-2.558-.022-5.951.459-8.788.16-.92.32-1.906.363-2.184.086-.514-.256.493-1.805 5.406-1.164 3.704-1.367 4.742-1.378 7.225l-.011 2.055.492.793c.63 1.016 3.268 4.645 3.386 4.656.042-.011-.075-.589-.257-1.285zm103.084.889c5.789-.792 10.575-2.548 12.871-4.699l.769-.728-.107-1.221c-.053-.674-.139-1.273-.181-1.338-.043-.064-.246.043-.46.236a4.502 4.502 0 0 1-.897.61c-.277.139-1.228.76-2.115 1.381-3.321 2.333-5.981 3.618-11.204 5.427-1.933.664-1.998.696-1.164.621a41.403 41.403 0 0 0 2.488-.289zm-201.404-.546c-.032-.032-.908-.407-1.954-.824a81.62 81.62 0 0 1-3.386-1.467c-.823-.385-1.464-.653-1.42-.589.117.193 1.997 1.413 2.776 1.799.759.396 4.251 1.327 3.984 1.081zm194.301-1.028c6.249-1.445 12.647-4.206 16.3-7.032 1.484-1.157 2.147-1.916 2.713-3.105l.438-.93-.353-1.553c-.47-2.077-.491-4.581-.042-5.555.437-.964.993-1.542 1.869-1.97.833-.407 1.997-.525 3.023-.321l.544.117v-.92c0-2.066-.694-5.32-1.463-6.83-1.752-3.478-6.345-5.855-9.848-5.095-1.164.247-1.175.279-.577 1.35.662 1.177.919 1.401 3.076 2.579 2.639 1.445 3.643 2.505 3.717 3.939.064 1.22.032 1.274-.427.546-.609-.963-1.538-1.563-3.738-2.43l-.737-.289.363 1.413c.31 1.199.363 1.755.363 3.672.011 2.826-.288 4.164-1.421 6.497-1.388 2.847-3.054 4.85-7.541 9.088-4.443 4.196-5.607 5.213-7.017 6.176-1.389.942-1.645 1.135-1.495 1.135.053.021 1.068-.203 2.253-.482zm-22.644-1.316c3.514-1.52 4.283-1.981 7.007-4.154A218.39 218.39 0 0 1 225 98.549c3.29-2.483 3.557-2.815 4.337-5.555.844-2.965.854-4.978.032-7.61-.641-2.034-1.164-2.977-2.286-4.1-1.207-1.21-2.019-1.638-3.311-1.767-1.057-.096-1.623.107-2.147.771-.278.353-.299.514-.213 1.648.106 1.424-.139 4.668-.47 6.284-.225 1.102-.342 1.456-1.923 6.133-.897 2.655-2.542 6.166-3.771 8.082-.523.824-1.698 2.419-2.691 3.682-.075.097-.118.182-.086.182.022.022.876-.331 1.88-.77zm-33.026-1.531l.62-1.231v-2.933c0-2.194-.064-3.243-.257-4.196-.299-1.499-1.1-3.96-1.677-5.18-.459-.975-3.14-5.877-3.193-5.835-.022.022.16.814.384 1.777 1.463 6.123 2.286 14.729 1.688 17.577-.107.524-.15.963-.096.984.064.022.395.225.747.461l.641.417.257-.31c.149-.161.544-.857.886-1.531zm-7.68.931a19.237 19.237 0 0 1 1.784-.299l.908-.097.182-.599c.288-.953.203-6.294-.161-10.405a69.527 69.527 0 0 0-.972-7c-.79-4.196-1.207-5.813-1.986-7.59-.62-1.402-.93-1.862-.695-1.017.075.268.31 1.467.513 2.666.321 1.82.395 2.772.459 5.855.075 3.779-.106 8.413-.47 11.785-.48 4.432-.672 6.016-.79 6.541-.117.492-.096.546.118.46.128-.054.63-.182 1.11-.3zm98.032-2.355c3.087-1.67 5.469-3.34 7.925-5.534 4.337-3.875 6.783-8.167 6.836-12.031.022-1.338 0-1.445-.523-2.505-1.816-3.693-7.071-5.181-8.491-2.42-.332.654-.161 1.275.907 3.212 1.229 2.226 1.806 3.81 1.902 5.224.074 1.07-.096 1.894-.374 1.894-.075 0-.513-.792-.972-1.755-.459-.964-.876-1.756-.929-1.756-.054 0-.278.428-.502.953-.791 1.809-2.468 3.886-4.657 5.748-1.036.889-3.205 2.344-3.75 2.526-.096.032-.064.621.097 1.724.192 1.295.224 2.183.16 3.907l-.086 2.237.62-.375c.32-.203 1.164-.674 1.837-1.049zm13.683.482c4.144-.503 4.988-.653 11.076-2.055 4.005-.921 7.188-2.377 10.254-4.678 1.239-.931 1.164-.664 1.303-4.581.096-2.473.278-4.175.577-5.363l.192-.77h-3.033c-4.177 0-4.219.01-5.629 1.562-1.656 1.82-4.518 4.42-5.95 5.395-2.093 1.424-3.087 1.98-6.035 3.361-4.016 1.884-5.97 3.008-8.876 5.106-.843.61-1.986 1.424-2.552 1.82l-1.015.717 3.279-.075c2.2-.043 4.315-.193 6.409-.439zm11.717.353c.181-.075.213-.128.075-.128a1.49 1.49 0 0 0-.513.128c-.182.075-.214.129-.075.129a2.14 2.14 0 0 0 .513-.129zm-102.988-3.875c1.73-2.312 3.771-5.63 3.931-6.433.63-3.104.534-9.987-.214-14.001-.609-3.308-2.104-6.326-4.059-8.2-1.121-1.08-1.922-1.488-2.948-1.488-1.506-.01-2.958 1.5-3.076 3.19-.043.632.054 1.22.385 2.398.534 1.863.822 3.254 1.025 4.87.192 1.52.748 3.747 1.41 5.556 1.036 2.858 1.794 6.294 2.029 9.152.129 1.606-.149 4.87-.566 6.519l-.342 1.36.727-.803a44.483 44.483 0 0 0 1.698-2.12zm49.475-3.789c2.489-2.43 3.728-4.003 4.679-5.973.982-2.023 1.217-3.083 1.228-5.395 0-1.53-.064-2.151-.331-3.211-.459-1.766-1.196-3.575-1.805-4.421-.278-.375-.705-1.113-.951-1.638-.566-1.199-1.837-2.708-3.194-3.8-1.847-1.488-3.727-2.183-5.885-2.173-2.222.01-3.087.782-3.087 2.773 0 2.397 1.261 4.046 5.971 7.824 1.175.942 2.51 2.077 2.969 2.527 2.115 2.066 2.895 4.485 2.019 6.23-.523 1.049-.673.974-.662-.364.011-1.51-.427-2.43-1.773-3.779l-.972-.974-.086 1.23c-.096 1.307-.181 1.606-.865 2.945l-.427.834.32.546c.396.675.534 2.676.267 4.036-.395 2.034-1.741 5.609-2.905 7.686-.246.438-.448.867-.448.942 0 .074.865-.739 1.922-1.83a241.338 241.338 0 0 1 4.016-4.015zM96.805 98.678c-2.734-1.595-5.373-3.629-8.833-6.797-1.474-1.349-2.008-1.67-4.508-2.698-3.418-1.402-5.287-1.98-11.14-3.425-2.243-.557-4.358-1.103-4.7-1.231-.342-.118-.62-.203-.62-.171s1.015.717 2.244 1.53c4.72 3.094 9.848 5.791 16.534 8.681 2.126.921 4.946 2.163 6.28 2.773 2.02.92 5.929 2.387 6.441 2.42.097 0-.683-.493-1.698-1.082zm5.351-.492c.396-1.381 1.506-3.511 2.703-5.139.555-.76 1.324-1.83 1.709-2.376l.694-.995-.363-.29c-.203-.16-1.239-.888-2.318-1.626-2.275-1.553-3.482-2.505-5.49-4.293-.79-.706-2.393-2.12-3.568-3.136-5.554-4.85-10.68-11.229-14.067-17.512-1.837-3.394-3.354-5.63-4.838-7.14-1.474-1.499-2.158-1.82-2.97-1.38-1.11.599-1.612 2.515-1.602 6.218 0 2.28.043 2.708.385 4.014 1.313 5.02 4.368 11.122 7.466 14.88 3.471 4.227 11.567 12.191 15.562 15.306 1.058.825 6.185 4.41 6.356 4.453.032 0 .192-.439.341-.984zm32.546.556c0-.76.288-1.905 1.239-4.967 3.429-11.057 3.824-12.47 3.963-14.333.192-2.494-.705-3.318-3.6-3.318-1.367 0-2.499.257-3.973.91-2.959 1.306-4.604 3.008-6.099 6.316-.363.802-.695 1.584-.737 1.744-.064.214.352.9 1.548 2.58.898 1.263 2.19 3.2 2.863 4.303 1.698 2.805 4.572 7.193 4.71 7.193.032 0 .086-.192.086-.428zM88.1 98.517c-.214-.117-1.912-.867-3.781-1.68-6.719-2.901-11.899-5.663-17.09-9.11-8.748-5.812-14.1-10.575-17.912-15.917-1.795-2.515-2.596-4.217-4.145-8.745-.491-1.445-1.1-3.008-1.345-3.468-.47-.878-1.272-1.713-1.656-1.713-.78 0-2.435 1.691-3.194 3.276-.822 1.712-1.143 3.243-1.046 4.891.181 2.923 1.207 4.882 4.101 7.814 2.136 2.152 4.22 3.822 7.936 6.327 4.614 3.115 8.61 5.352 17.763 9.933 10.66 5.342 15.22 7.365 18.265 8.093 2.275.546 2.67.61 2.104.3zm-10.329.022c-.032-.032-2.157-.664-4.72-1.403-5.854-1.69-9.582-2.932-15.21-5.063-4.455-1.69-7.082-2.783-9.24-3.864l-1.154-.578.737.856c1.154 1.339 3.237 3.287 4.198 3.94 2.136 1.455 5.02 2.6 9.08 3.628 3.962.996 10.093 2.141 13.116 2.452.737.064 3.268.096 3.193.032zm-4.07-3.511c-.031-.032-1.11-.514-2.392-1.081-10.393-4.55-16.395-7.697-22.708-11.925-3.93-2.633-6.046-4.292-8.31-6.562-1.912-1.905-2.895-3.19-3.899-5.105-.299-.557-.875-1.52-1.292-2.141a55.199 55.199 0 0 1-1.389-2.152c-.886-1.456-1.548-1.552-2.446-.364-.587.77-.566 1.777.064 3.34 1.143 2.794 2.628 4.87 5.918 8.22 4.144 4.24 6.676 6.188 12.091 9.292 3.46 1.991 4.219 2.323 9.271 4.057 5.095 1.755 7.028 2.355 11.536 3.575 2.98.824 3.706.996 3.557.846zm216.711-3.972c1.314-.93 3.973-3.543 5.287-5.18 2.051-2.559 3.525-5.46 4.24-8.371.438-1.766.481-5.127.075-6.337-.534-1.638-1.634-2.665-3.055-2.858-.908-.129-1.046.096-.929 1.52.054.62.289 2.173.545 3.457.577 2.955.673 4.197.438 5.32-.192.91-1.827 4.486-1.987 4.336-.043-.043.032-.728.182-1.52.277-1.488.363-4.271.149-4.785-.096-.236-.192-.096-.523.803-1.015 2.761-2.564 5.191-4.999 7.814-.758.813-.844.974-1.057 2.023a18.154 18.154 0 0 1-2.201 5.652c-.267.45-.491.856-.491.91.011.085 2.916-1.777 4.326-2.784zm-21.277 1.895c2.521-1.52 5.373-4.485 6.43-6.69.737-1.541.758-1.809.16-2.804-1.036-1.735-1.164-3.126-.427-4.71.352-.76.47-1.296.609-2.698.16-1.627.149-1.83-.128-2.89-.631-2.387-1.923-4.153-3.653-4.978-.833-.395-1.1-.449-2.211-.449-1.047 0-1.335.053-1.667.3-1.57 1.166-1.313 2.216 1.271 5.17 2.169 2.494 2.81 3.393 3.771 5.32 1.303 2.633 1.581 4.185 1.079 5.92-.588 2.022-2.628 4.217-3.899 4.217-.566 0-.587-.246-.085-.985 1.249-1.895 1.773-3.49 1.474-4.55-.096-.353-.118-.342-.556.3-.929 1.35-4.027 3.779-5.372 4.218-.31.096-.748.278-.972.385l-.406.204.876.93c.94 1.007 1.89 2.495 2.296 3.608.139.386.32.696.406.696.064.021.523-.214 1.004-.514zm-33.827-4.795c.555-.29 1.41-.61 1.912-.707.875-.182.918-.203 1.388-.974.641-1.06.812-1.766.705-2.9-.139-1.5-.598-2.238-2.104-3.394-2.937-2.248-4.828-4.42-5.341-6.133-.673-2.248-.352-4.218.972-6.113.428-.6-1.1-3.2-2.574-4.4-2.157-1.744-6.195-3.168-8.993-3.157-1.378 0-2.414.246-3.664.867-1.431.707-2.841 2.312-2.841 3.222 0 .171.395.782.886 1.36.823.984 1.293 1.648 2.81 4.035.939 1.488 1.847 2.098 6.718 4.55 4.187 2.108 5.736 2.997 6.195 3.553.192.236.182.246-.075.171-.16-.042-.683-.16-1.164-.256-1.196-.236-5.074-1.542-7.68-2.59-1.185-.472-2.147-.825-2.147-.782 0 .107.631 2.986.663 3.05.01.022.523-.128 1.121-.331 1.293-.44 2.585-.482 3.749-.14 3.664 1.082 6.58 6.305 6.601 11.84l.011 1.637.929-.931c.545-.567 1.325-1.156 1.923-1.477zm-31.98-5.096c1.068-2.858 1.442-4.399 1.432-5.983-.011-2.002-.62-5.17-1.304-6.712a38.65 38.65 0 0 1-.875-2.226c-.342-.985-.449-1.124-1.656-2.205-1.837-1.627-3.439-2.42-5.693-2.805-1.111-.182-2.264-.021-3.247.482-1.271.631-1.453 1.081-1.015 2.547.214.739.214.739 1.026.9 1.239.246 2.478.984 3.717 2.215 1.239 1.231 2.008 2.302 2.862 4.014 1.613 3.222 2.318 6.573 2.596 12.375l.096 2.012.79-1.627c.417-.91.994-2.248 1.271-2.986zM109.43 85.8l.684-1.112-.395-.525a25.99 25.99 0 0 0-1.207-1.402c-2.35-2.559-4.027-5.02-5.437-7.986a55.649 55.649 0 0 0-2.275-4.196c-1.88-3.061-2.051-3.36-2.425-4.367-.544-1.445-.79-2.708-.897-4.528l-.096-1.67-.844 1.017c-.46.557-1.047 1.424-1.292 1.927-.246.503-.502.91-.566.91-.225 0-.289-.557-.14-1.22.396-1.756 1.699-3.854 3.322-5.342.61-.557 1.069-1.07 1.005-1.124-.203-.203-1.73.225-2.436.685-2.382 1.53-3.695 3.993-3.695 6.926.01 4.42 2.403 9.858 6.889 15.66 1.73 2.237 3.461 3.907 5.276 5.106.748.492 1.848 1.22 2.457 1.616.598.396 1.164.728 1.25.728.064.011.448-.481.822-1.102zm-28.252-.716c-1.132-1.21-2.05-2.024-3.246-2.87-2.404-1.701-3.6-2.74-5.832-5.105-2.617-2.772-3.386-3.704-4.7-5.695-.609-.92-1.335-1.852-1.624-2.066-.769-.588-2.061-1.188-3.204-1.488-1.282-.331-4.55-.374-5.747-.075-2.04.514-4.219 1.949-4.219 2.773 0 .91.203 1.488.759 2.151 1.014 1.242 3.076 3.276 3.973 3.918 1.218.867 3.46 2.045 4.732 2.484.587.203 1.901.824 2.927 1.402 2.552 1.423 3.353 1.734 7.038 2.74 3.44.942 7.808 2.355 9.464 3.061.555.236 1.068.44 1.143.44.064.01-.598-.74-1.463-1.67zm62.261-4.1c1.666-3.062 3.418-4.753 5.576-5.374.47-.139.865-.32.886-.417.481-1.98 1.421-3.65 3.055-5.449.523-.578.961-1.08.961-1.113 0-.043-.288-.182-.651-.321-1.432-.546-3.91-.064-6.697 1.327-2.5 1.242-3.611 2.44-4.508 4.85l-.502 1.337.47.985c.438.931.47 1.07.459 2.666-.01 1.359-.096 2.044-.47 3.639-.256 1.081-.459 2.002-.459 2.044 0 .043.289-.62.641-1.477.331-.856.897-2.066 1.239-2.697zm-19.739.428c.363-.707 1.09-1.766 1.602-2.366.577-.674.908-1.177.866-1.316-.086-.236-.396-1.906-.652-3.5-.085-.525-.203-4.004-.278-7.729-.128-7.129-.203-7.857-.897-9.72-.598-1.594-1.709-1.776-3.984-.652-4.112 2.044-6.804 7.92-6.825 14.9-.011 3.158.384 5.191 1.527 7.975l.427 1.049 1.047-.075c1.923-.15 3.803.524 5.554 1.98.481.396.887.728.908.739.032-.011.342-.579.705-1.285zm166.018-.032c.737-1.413 2.082-6.38 2.36-8.724.203-1.745.032-2.73-.812-4.475-.662-1.37-1.516-2.408-2.691-3.264-1.058-.76-1.816-.546-2.275.631-.364.942-.214 2.409.523 5.245.513 2.002.598 2.548.598 3.79-.011 1.273-.352 3.553-.662 4.303-.054.128.171.567.566 1.092a10.68 10.68 0 0 1 1.057 1.798l.406.92.331-.406a5.56 5.56 0 0 0 .599-.91zm-176.272-.257c.321-.225.577-.45.588-.525 0-.064-.15-.331-.353-.588-.929-1.22-2.061-4.271-2.446-6.583-.363-2.184-.171-6.155.406-8.446l.214-.846-.652-2.001c-.801-2.462-.993-3.48-1.014-5.374-.022-1.734-.032-1.734-1.261-.385-1.602 1.755-3.055 4.196-3.589 5.994-.309 1.07-.566.91-.555-.353.021-1.777 1.175-4.55 2.82-6.733 1.089-1.445 1.986-2.27 3.781-3.458 1.613-1.07 1.955-1.402 1.837-1.787-.107-.343-.961-.77-1.538-.77-1.293 0-3.151 1.134-4.988 3.05-2.67 2.772-4.123 6.07-4.283 9.72-.064 1.551-.032 1.948.32 3.5 1.015 4.474 2.841 8.68 5.084 11.646 1.923 2.547 2.671 3.34 3.632 3.843.491.257 1.015.47 1.154.47.149.022.523-.16.843-.374zm189.602-2.237c2.948-4.956 3.621-8.189 2.275-11.036-.695-1.467-1.869-2.516-2.82-2.516-.449 0-.908.514-1.111 1.242-.267.974-.192 1.627.267 2.44.801 1.435.961 2.26.951 5 0 2.943-.235 4.27-1.303 7.289-.214.61.662-.61 1.741-2.42zM158.585 74.84c.374-1.36 1.388-3.554 2.168-4.7l.577-.856-.545-.15a4.107 4.107 0 0 0-2.382.064c-1.783.61-4.87 3.865-5.436 5.706-.086.267-.011.342.459.492 1.324.428 3.012 1.52 4.037 2.612l.438.46.182-1.263c.107-.685.331-1.755.502-2.365zm27.664 1.284c-.331-.9-.651-2.002-.726-2.451-.257-1.617.267-3.361 1.388-4.689l.545-.642-.726-.653c-1.602-1.456-2.809-2.001-4.198-1.894-1.431.117-3.151 1.166-3.375 2.076-.128.493.256 1.68 1.1 3.404.406.824.737 1.595.737 1.691 0 .107.374.332.833.493 1.624.6 3.226 1.916 4.411 3.65.278.396.524.706.545.674.032-.01-.213-.76-.534-1.659zm-11.6.856c.129-.813.428-1.359 1.229-2.215.673-.718 2.125-1.563 2.713-1.563.737-.01.662-.225-.502-1.638-2.126-2.569-3.942-3.372-5.181-2.28-1.41 1.242-1.303 2.537.513 6.358.502 1.06.961 1.938 1.025 1.938.065 0 .15-.268.203-.6zm109.995-.524c.192-.931.117-2.922-.16-4.004-.214-.824-1.079-1.701-2.222-2.237-1.559-.728-2.061-.374-2.061 1.445 0 1.07.053 1.306.555 2.398.31.664.588 1.434.641 1.702.075.471.139.514 1.047.803.534.171 1.132.396 1.324.514.588.332.694.257.876-.621zm-6.003-.16c.15-.097.15-.204.011-.547l-.171-.428-.107.364c-.224.717-.149.867.267.61zm-148.863-1.039c2.51-1.338 5.052-1.916 7.252-1.627.716.096 1.4.203 1.517.257.331.128.32-.246-.224-5.588-.086-.813-.246-1.862-.374-2.333-.737-2.869-2.649-4.86-4.646-4.86-2.008 0-3.536 1.798-4.828 5.663l-.524 1.552.086 2.558c.085 2.515.384 4.956.598 4.956.053 0 .555-.257 1.143-.578zm-57.294-2.376c-1.175-2.484-2.478-6.016-2.97-8.06-.341-1.446-.384-1.874-.384-4.379 0-2.74.01-2.783.48-4.153.738-2.162 1.603-3.233 3.12-3.864.758-.321 2.083-.278 2.862.075.353.16.673.257.705.225.128-.129-.523-3.436-.79-3.982-.62-1.274-1.944-1.553-3.557-.739-1.773.889-4.155 3.672-5.373 6.273-1.078 2.323-1.335 5.266-.672 7.867.736 2.901 2.606 6.765 4.443 9.227.758 1.017 2.873 3.447 3.001 3.447.022-.01-.363-.878-.865-1.937zm19.974 0c-.406-.9-.972-2.355-1.26-3.233-.481-1.466-.61-1.68-1.56-2.772-.566-.653-1.816-1.906-2.766-2.784-.951-.877-2.414-2.258-3.248-3.06l-1.516-1.467.555 1.017c2.414 4.42 5.138 8.146 9.186 12.577.684.739 1.26 1.349 1.282 1.349.043.01-.267-.728-.673-1.627zm155.87-2.13c2.457-1.606 3.835-3.597 5.202-7.558 1.431-4.12 2.147-10.372 1.506-13.037-.545-2.27-1.987-4.539-4.529-7.087-1.538-1.552-1.912-1.84-2.991-2.365-1.538-.739-2.649-.964-4.432-.878-1.731.075-2.169.332-2.233 1.274-.107 1.477.684 2.27 5.33 5.33 1.592 1.05 3.172 2.206 3.642 2.677 1.058 1.06 2.073 2.569 2.062 3.072l-.011.385-.245-.343c-.684-.93-1.154-1.391-2.041-1.98-1.11-.738-2.713-1.616-3.193-1.766-.321-.096-.321-.075.107.589.619.974 1.271 2.6 1.634 4.1.395 1.584.427 4.024.085 5.437-.192.782-.203 1.178-.075 2.409.267 2.494-.256 7.568-.929 9.141-.31.728-.288 1.156.064 1.156.096 0 .577-.246 1.047-.556zm-106.053-2.388c0-.064.416-.578.929-1.134 1.282-1.402 1.613-2.13 1.613-3.511 0-.846-.075-1.253-.342-1.777-.555-1.135-1.442-2.12-2.585-2.869l-1.079-.706-1.26.631c-.694.353-1.485.675-1.752.728-.267.054-.48.129-.48.16 0 .044.363.461.801.932.897.963 1.986 3.03 2.339 4.432.117.481.288 1.466.374 2.183.256 2.184.192 2.055.865 1.51.31-.247.577-.503.577-.578zm102.379.14c.277-1.146.555-4.764.502-6.53-.054-1.648-.128-2.162-.46-3.136-.982-2.901-3.311-6.145-5.543-7.729-2.072-1.477-3.92-2.098-6.569-2.215-1.816-.086-3.151.064-4.497.492-.876.278-1.986.942-1.922 1.145.021.086.438.418.908.76.619.44 1.441.814 2.905 1.296 4.112 1.38 7.071 2.986 8.224 4.442.556.706.823 1.252.684 1.391-.043.043-.449-.171-.919-.47-.459-.3-1.303-.75-1.869-1.018-.961-.45-3.268-1.23-3.599-1.23-.086 0 .064.267.331.599 1.292 1.584 2.189 3.158 2.745 4.806.374 1.124.758 3.896.641 4.646l-.086.556 1.581.086c.919.053 2.029.214 2.649.385 1.143.332 3.076 1.242 3.664 1.734.459.396.534.386.63-.01zm-67.452-1.07c0-.311.406-1.082.769-1.489l.299-.332-1.004-.46c-1.88-.867-2.969-.685-4.464.728-.663.632-1.41 1.627-1.229 1.627.032 0 .353-.16.694-.353.353-.193.908-.396 1.25-.45.759-.117 2.019.15 2.767.59.673.406.918.449.918.138zm-18.873-1.071l.758-.096-.043-.868c-.075-1.552-1.132-3.36-2.286-3.885-1.014-.46-2.841-.246-3.076.364-.042.117.193.61.513 1.092.78 1.134 1.292 2.44 1.41 3.51l.085.857.93-.439c.523-.236 1.292-.482 1.709-.535zm5.714.31c.331-.214.491-.77.481-1.595-.011-1.07-.096-1.263-.705-1.712-.652-.482-1.058-.471-1.645.053-.406.364-.47.514-.46 1.081.011.76.374 1.403 1.079 1.916.492.375.951.46 1.25.257zm4.689-.642c.107-.931-1.057-2.248-2.328-2.623-.684-.203-.78-.128-.577.46.085.247.203.836.256 1.296l.096.856.673.225c.374.129.94.214 1.261.204.512-.022.587-.065.619-.418zm19.664-.418c-.246-1.091-.096-2.354.353-3.04l.395-.599h-.449c-.908 0-2.905 1.445-2.905 2.098 0 .107.31.407.694.653.385.246.983.707 1.346 1.017.363.31.673.557.684.546.021-.01-.033-.31-.118-.675zm-40.182.022c1.708-.428 2.723-.503 3.877-.257.555.118 1.036.203 1.057.182.128-.118-.982-1.97-1.538-2.58-.801-.867-1.218-.995-3.194-1.006-.982 0-1.345.043-1.335.182 0 .096.064.514.128.91.107.664.011 1.852-.213 2.569-.107.343-.139.343 1.218 0zm24.171-2.184c.566-.364.822-.6.652-.6-.15 0-.556-.128-.898-.288-.352-.16-.619-.214-.619-.129 0 .086-.395.546-.876 1.017l-.876.857.235.46.235.46.609-.589a11.135 11.135 0 0 1 1.538-1.188zm119.479.31c-.224-1.69-.961-2.91-2.05-3.403-1.186-.546-2.532-.16-3.109.877-.17.31-.32.61-.32.654 0 .042.395.042.876 0 .78-.086.972-.043 1.794.363.513.247 1.346.846 1.859 1.328.513.481.961.878.982.878.033-.011.011-.311-.032-.696zm-201.36-2.943c.138-.514.512-1.456.854-2.077l.608-1.145-.33-.546c-1.133-1.884-2.286-4.87-2.724-7.033-.663-3.297.448-7.043 2.809-9.505l.64-.674-.662-.386c-.363-.214-1.367-.963-2.232-1.67a87.058 87.058 0 0 0-3.61-2.75 122.561 122.561 0 0 1-4.006-3.02c-3.791-2.986-10.51-7.942-11.546-8.509-.331-.182-.748-.332-.94-.332-1.015 0-2.318 1.306-2.756 2.762-.534 1.788-.181 4.988.93 8.36.961 2.911 2.478 5.084 6.366 9.141 1.356 1.413 2.723 2.89 3.044 3.297.715.9 1.26 2.077 1.922 4.207.972 3.104 3.44 6.176 9.175 11.379l2.04 1.852.086-1.21c.053-.664.203-1.627.331-2.141zm9.911-1.98c.139-.643.289-1.231.342-1.317.054-.086-.235.086-.63.375l-.726.524v1.734c0 1.22.085 2.088.288 2.912l.288 1.167.086-2.12c.053-1.156.213-2.633.352-3.275zm82.01 4.656c1.111-.332 2.147-1.456 2.553-2.783.096-.31.086-.31-.598.053-.609.31-.823.354-1.688.279-.993-.075-.993-.075-1.239.364a12.35 12.35 0 0 1-.683 1.038c-.235.321-.502.685-.588.792-.352.503.951.642 2.243.257zm19.75-.739c-.15-1.166-.428-1.862-1.165-2.89-1.121-1.573-2.841-2.975-4.432-3.607-1.079-.428-3.066-.46-4.241-.075-1.751.589-3.054 1.81-3.054 2.858 0 .642.267 1.05.95 1.477l.524.321.907-.3c1.453-.481 2.713-.534 4.326-.203 2.265.471 4.059 1.317 5.501 2.612.374.343.705.621.737.621.022.01 0-.353-.053-.813zm31.231-1.102c-.16-.664-.566-1.745-.897-2.409-.673-1.37-2.125-3.371-2.809-3.885-.374-.278-1.506-.674-1.912-.674-.043 0-.064.3-.032.663.054.621.139.739 1.41 1.938 1.624 1.52 2.531 2.708 2.831 3.725.149.524.427.963.907 1.445.374.385.705.631.737.556.043-.085-.064-.695-.235-1.359zm-63.317.6c.566-.568 1.004-1.35 1.004-1.799 0-.128-.214-.246-.577-.31-.673-.118-1.709-.76-2.297-1.445l-.416-.471-.182 1.498c-.203 1.702-.117 2.034.705 2.73.652.556 1.058.503 1.763-.204zm42.916-.215c.962-1.702 2.81-3.093 5.181-3.885.897-.3 1.282-.343 3.204-.332 1.901.01 2.371.064 3.642.407.801.214 1.998.62 2.66.877.662.268 1.196.44 1.196.396-.01-.15-1.538-1.359-2.649-2.108-2.841-1.895-5.148-2.634-8.256-2.634-2.393 0-3.397.225-5.512 1.242-1.751.846-3.001 1.98-3.77 3.436-.534.996-.545 1.06-.267 1.06.342 0 2.756 1.274 3.45 1.809.352.278.651.514.662.514 0 .032.214-.332.459-.782zm-51.963.31c.096-.117.395-.31.662-.438.47-.225.48-.257.342-.675-.118-.32-.214-.417-.396-.353-.128.054-.555.16-.929.257-.384.086-.673.204-.651.246.021.043.17.332.32.632.299.6.395.642.652.332zm17.794-.192c.299-.14.844-.6 1.207-1.017l.673-.76-.769-.878c-.587-.663-.865-.877-1.164-.877-.534 0-1.175.567-1.421 1.263-.106.31-.363.813-.555 1.124-.417.663-.353.91.288 1.188.631.267 1.09.257 1.741-.043zm-50.254-1.081c1.345-1.98 3.663-2.826 6.269-2.29l.823.17 1.217-.642c1.571-.824 2.756-1.937 2.756-2.58 0-.695-.213-1.123-.886-1.766-1.229-1.188-3.397-2.066-5.085-2.066-1.986 0-4.283 1.264-5.661 3.115-.694.932-.822 1.692-.523 3.083.118.557.267 1.627.31 2.366.053.738.128 1.349.181 1.349.054.01.321-.332.599-.74zm36.732-.01a3.91 3.91 0 0 0 .513-.975c.235-.685.203-1.97-.043-2.569-.192-.45-.267-.503-.769-.503-.299 0-.897-.16-1.324-.364-.759-.353-.77-.353-.673-.053.053.17.106 1.102.117 2.076.032 1.948.139 2.27.887 2.633.662.322.908.279 1.292-.246zm9.538-.086c.321-.343 1.261-1.799 1.453-2.248.032-.064-.053-.118-.171-.118-.117 0-.523-.225-.886-.514-.364-.278-.695-.514-.737-.514-.033 0-.171.193-.289.428-.117.236-.545.74-.95 1.135-.652.632-.727.77-.727 1.317 0 .738.225.91 1.207.91.598.01.78-.054 1.1-.396zm12.113.032c.277-.107.63-.193.779-.204.203 0 .033-.267-.651-1.006-.502-.556-.961-.942-1.015-.856-.053.075-.096.663-.096 1.306 0 1.027.021 1.145.235 1.06.128-.054.459-.193.748-.3zm18.2-.514c.267-.096.481-.386.748-1.038.321-.771.363-1.028.278-1.713-.192-1.53-1.314-2.462-2.97-2.473-.918 0-1.602.268-1.847.728-.129.246-.011.46.875 1.499.567.663 1.272 1.68 1.56 2.269.406.813.587 1.038.758.974a6.26 6.26 0 0 1 .598-.246zm-90.448-2.698c1.57-2.312 4.134-4.174 6.708-4.86.652-.17.844-.438 1.004-1.402.118-.695-.213-2.012-.705-2.74-.972-1.466-5.81-6.166-9.805-9.516a210.797 210.797 0 0 1-3.963-3.425c-2.2-1.96-2.862-2.387-3.46-2.237-1.56.396-2.265 3.832-1.336 6.53.214.63.716 1.83 1.111 2.675.673 1.435 2.51 4.87 2.799 5.256.096.128.374.043 1.078-.332 1.389-.739 2.361-.985 3.675-.92 1.292.064 2.168.428 2.98 1.241 1.463 1.467 1.175 3.48-.705 4.87-.705.525-.823.686-1.09 1.553-.16.535-.299 1.306-.299 1.712 0 .825.374 3.533.524 3.768.053.086.267-.17.48-.556.225-.407.673-1.124 1.004-1.617zm37.32 1.745c.331-.332-3.268-3.864-4.635-4.538-1.111-.557-1.271-.536-1.837.256-.385.536-.748.835-1.474 1.189-.524.257-.94.492-.919.514.021.02.395.181.844.353.438.171 1.42.663 2.179 1.092 1.271.717 2.275 1.123 3.204 1.306.534.085 2.499-.033 2.638-.172zm8.983-.75c.427-.652.31-1.744-.31-2.996-.769-1.563-1.174-1.841-2.67-1.841-.641 0-1.485-.097-1.88-.215-.395-.117-.769-.214-.833-.214-.064 0 .224.407.641.91.737.889 1.581 2.43 1.581 2.89 0 .257 1.068 1.328 1.591 1.606.951.46 1.506.428 1.88-.14zm22.74-.031c1.101-1.178 1.816-5.17 1.154-6.412-.481-.889-1.527-.91-2.489-.043-.726.653-.801.814-1.143 2.152-.149.588-.406 1.327-.566 1.637-.245.493-.267.621-.096 1.007.406.952 1.72 2.076 2.457 2.098.149 0 .459-.204.683-.44zm-27.984-.172c.256-.256.213-.974-.107-1.67-.288-.63-3.867-5.159-4.08-5.159-.064 0-.16.171-.214.375-.053.203-.438.728-.865 1.167l-.769.803 1.976 1.798c3.055 2.772 3.61 3.136 4.059 2.686zm16.289-1.209c.972-1.017 1.292-2.237 1.164-4.442-.118-2.013-.278-2.923-.545-3.105-.267-.181-1.367-.01-2.093.31-.994.44-1.25.846-1.4 2.206-.074.664-.267 1.499-.416 1.852-.16.353-.289.824-.289 1.038 0 .503.663 1.541 1.432 2.237.843.782 1.324.76 2.147-.096zm16.203-.236c.577-.942 1.944-2.108 3.097-2.665 1.474-.696 2.361-.867 4.017-.792 1.345.064 1.644.15 3.439.92.085.033.363-.203.63-.524.598-.728.555-1.028-.32-1.937-1.912-1.97-4.935-2.227-8.257-.696-1.495.685-2.51 2.044-2.959 3.992-.224.975-.288 2.302-.106 2.302.053-.01.256-.278.459-.6zm-10.457-.685c.481-.31.865-.792 1.25-1.562.694-1.392.523-2.773-.47-3.811-.545-.578-.673-.632-1.293-.632-.374 0-.876.097-1.111.214-.779.397-.875.707-.875 2.612 0 1.702.01 1.756.448 2.452.246.385.556.77.694.845.374.214.93.171 1.357-.118zM94.786 54.92c.962-.642 2.083-1.07 3.194-1.188l.876-.096-.662-.9c-1.645-2.215-3.098-6.144-3.098-8.36v-1.092l-.47.386c-1.591 1.284-2.873 2.248-2.873 2.151 0-.203.513-.877 1.997-2.644 1.549-1.83 2.254-2.933 1.89-2.933-.362 0-1.548.9-2.285 1.724-.865.985-1.794 2.708-2.104 3.896-.385 1.499-.3 3.083.278 4.806.672 2.034 2.147 4.978 2.403 4.817.064-.032.448-.289.854-.567zm48.482-.182c1.859-1.595.716-4.87-2.403-6.915-1.378-.9-2.553-1.23-3.995-1.113-1.356.118-2.969.546-4.091 1.113-.747.375-3.471 2.152-3.471 2.259 0 .021.459-.15 1.015-.386 1.409-.588 3.054-.824 4.347-.6 1.431.247 2.937.846 4.197 1.67 1.955 1.285 3.002 2.58 3.194 3.961.118.771.321.771 1.207.011zm66.213.14c.95-.729 3.054-1.714 4.55-2.11 1.784-.481 5.447-.481 7.338-.01 1.378.342 3.3 1.188 4.336 1.884 1.015.685 1.047.696.866.364-.332-.61-1.934-1.884-3.098-2.462-2.863-1.413-4.967-1.874-7.968-1.756-3.749.15-5.576.985-6.42 2.944-.267.62-.502 1.68-.363 1.68.032 0 .385-.246.759-.535zm-43.227-.194c.171-.16.352-.438.417-.62.053-.182.256-.514.448-.75.289-.353.342-.567.342-1.477 0-1.027-.021-1.102-.577-1.798-.641-.814-1.164-1.22-1.89-1.467-1.485-.503-2.767.193-3.077 1.67-.149.717-.128.825.235 1.542.652 1.284 1.539 2.45 2.158 2.826.726.438 1.517.47 1.944.075zm79.66-2.14c-.171-.707-.566-1.841-.897-2.516-.491-1.028-.833-1.466-2.072-2.708-2.083-2.098-2.703-2.483-5.768-3.65-2.574-.974-4.262-1.873-4.881-2.601-.62-.728-1.004-1.938-.876-2.751.342-2.109 2.136-3.233 5.426-3.394.961-.042 1.314-.117 1.442-.3.651-.898-1.57-2.921-4.785-4.345-.983-.428-1.175-.471-2.66-.471-1.463 0-1.677.032-2.435.407-2.852 1.402-3.237 4.806-.866 7.792.951 1.188 4.882 4.72 6.644 5.962.876.621 2.425 1.67 3.418 2.334 3.888 2.601 5.917 4.496 7.723 7.236.769 1.167.801 1.199.843.75.032-.257-.085-1.039-.256-1.745zm-38.943.139c.203-.46.608-1.113.886-1.445.278-.343.459-.653.395-.685-.309-.172-1.794-.279-3.856-.257-3.022.021-3.61-.204-4.24-1.617l-.31-.685-.982.61c-.545.332-.983.653-.983.696 0 .054.278.214.619.364.748.332 2.286 1.745 2.66 2.44l.267.504 1.196-.075c.951-.064 1.4-.01 2.201.225.544.171 1.132.407 1.292.524.16.118.331.225.385.225.042 0 .256-.364.47-.824zm-103.821-.3l.363-.546-1.88-1.809c-1.036-.995-2.403-2.451-3.033-3.254-.641-.792-1.165-1.413-1.165-1.37 0 .257 1.42 2.847 2.2 4.014.844 1.263 2.788 3.5 3.034 3.5.064.011.278-.235.481-.535zm86.25-2.162c.459-.3.865-.567.897-.6.032-.032-.074-.203-.245-.374-.385-.407-.695-1.146-.823-1.96l-.096-.61-.684.9c-.373.492-1.153 1.252-1.73 1.691l-1.047.792.417.354c.224.192.566.706.748 1.145l.331.803.694-.782a8.775 8.775 0 0 1 1.538-1.36zm-40.887 1.745c.416-.29.886-1.285.875-1.874 0-.235-.149-.888-.32-1.434l-.32-.995-1.816-.043c-1.004-.022-2.04-.097-2.297-.16l-.48-.108.801 1.113c.47.653.929 1.52 1.121 2.088.182.535.492 1.124.695 1.316.416.396 1.239.45 1.741.097zm10.456-.996c1.09-1.274.972-4.142-.245-6.059-.62-.974-2.072-2.29-2.703-2.472-.662-.182-1.677.107-2.499.706-.758.546-1.784 2.516-1.784 3.404 0 .771.609 1.713 1.827 2.858 2.125 2.002 4.454 2.666 5.404 1.563zm-53.747-1.038l.352-.225-1.153-1.52c-.63-.835-1.293-1.798-1.464-2.14-.17-.343-.608-.953-.961-1.339-.673-.75-3.546-5.277-3.984-6.283-.555-1.263-1.015-3.65-1.228-6.39-.086-1.092-.107-1.146-.545-1.37-.609-.311-2.83-.429-3.92-.204-1.25.257-3.076 1.241-4.016 2.151l-.833.782.94.835c.523.46 1.666 1.52 2.542 2.376.876.846 1.826 1.702 2.093 1.884.481.332.502.343 1.25.096 1.004-.32 1.656-.3 2.222.043.63.386.822.792.705 1.52a25.074 25.074 0 0 0-.171 1.702l-.075 1.092 2.307 2.27c2.265 2.226 5.245 4.923 5.469 4.945.064 0 .278-.097.47-.225zm118.347-.739c.897-1.83 3.343-2.944 7.231-3.297l1.848-.171-.352-.471c-.524-.685-1.912-1.734-3.066-2.312-3.268-1.638-7.338-1.392-9.292.567-.812.814-.876 1.702-.15 2.173.203.14 1.057.418 1.901.621 1.357.332 2.243.75 2.243 1.05 0 .053-.342.117-.769.128-1.068.042-2.82.535-2.756.78a.538.538 0 0 0 .214.29c.096.053.395.268.684.47.491.365 1.581.954 1.762.954.064.032.288-.332.502-.782zm-11.504-.374c.759-.204 1.827-.332 3.034-.386 1.271-.053 1.848-.128 1.805-.235-.128-.407-2.595-2.345-3.674-2.869-1.602-.792-2.938-1.049-5.02-.974-2.799.118-4.786 1.006-5.512 2.473-.523 1.049-.438 1.134 1.325 1.134 2.584 0 4.56.45 5.468 1.242.374.321.428.321.898.128a20.652 20.652 0 0 1 1.676-.513zm-35.578-.236l.63-.107.021-1.285.021-1.284-.491.589c-.267.32-.908.931-1.431 1.338l-.94.75.246.406.245.407.534-.354a3.683 3.683 0 0 1 1.165-.46zm5.383.61c1.164-.342 2.873-1.252 3.802-2.002 1.506-1.23 2.275-2.857 2.072-4.41-.192-1.53-1.217-2.194-3.225-2.076-1.218.075-1.859.374-2.767 1.284-1.847 1.852-2.819 4.85-2.104 6.466.438.984.897 1.134 2.222.738zm-53.961-1.338l.416-.32-.662-1.65c-.919-2.29-1.196-3.617-1.175-5.651.021-2.997.897-5.224 2.82-7.161 1.933-1.949 4.037-2.634 6.376-2.077.321.075.332.043.332-.92 0-1.167.288-3.201.737-5.17l.309-1.392-.544-1.092c-.791-1.574-1.592-2.57-4.102-5.063-3.258-3.244-3.802-3.64-5.949-4.314-2.489-.792-4.508-.878-5.822-.236-1.783.867-2.926 3.715-3.086 7.665-.15 3.885.47 7.792 2.157 13.701 1.218 4.228 2.371 6.915 4.529 10.554.652 1.092 1.431 2.527 1.741 3.19l.566 1.21.47-.482c.267-.257.662-.61.887-.792zm44.54-.717c1.378-.728 2.649-1.938 3.803-3.65 1.121-1.649 1.11-1.691-.502-1.906-3.76-.503-6.11-.342-6.933.482-.587.589-1.078 2.141-1.1 3.48-.021 1.23.257 1.669 1.282 2.044 1.057.363 2.158.224 3.45-.45zm22.26-.129c.48-.128 1.442-.513 2.136-.856a90.76 90.76 0 0 1 3.001-1.402c.962-.428 2.136-1.028 2.617-1.327.481-.31 1.357-.728 1.955-.953l1.079-.396-.502-.214c-1.934-.814-5.031-1.113-7.125-.685-2.659.535-4.39 1.638-5.223 3.318-.342.685-.448 1.092-.448 1.723 0 .46.042.867.096.921.181.182 1.516.107 2.414-.129zm-31.617-.535c.492-.139 1.88-.075 2.382.118.16.064.246.021.246-.14 0-.192-.16-.235-.844-.235-.459 0-1.324-.128-1.912-.3-.587-.16-1.1-.267-1.143-.224-.042.043.011.31.107.6.139.406.235.502.417.427.128-.053.459-.16.747-.246zm93.567-1.07c.246-.567.962-1.948 1.603-3.061 2.243-3.918 2.937-5.567 3.225-7.708.289-2.087-.235-3.725-1.581-4.934-.993-.9-1.762-1.146-3.791-1.231-3.386-.15-6.131.728-9.923 3.168-1.399.9-5.191 3.682-5.213 3.811-.01.043.438.268.983.482.545.214 1.431.685 1.976 1.038.673.45 1.346.739 2.168.942a11.71 11.71 0 0 1 4.006 1.852c1.677 1.199 4.091 3.81 5.49 5.93.31.46.566.824.587.803.011-.043.225-.525.47-1.092zm-124.606-.128c1.463-.621 2.478-.889 4.101-1.092.673-.086 1.314-.236 1.41-.332.139-.15.118-.396-.106-1.2-.524-1.872-.737-3.67-.695-5.79.043-1.938.032-2.002-.299-2.366-.512-.546-1.474-.867-2.318-.792-2.093.203-4.08 2.227-4.753 4.85-.459 1.776-.149 3.874.898 6.1.288.622.534 1.135.544 1.135.011-.01.556-.235 1.218-.513zm16.663.107c.598-.279.694-.375.694-.75 0-.867-1.624-1.862-3.621-2.237-1.463-.268-2.681.128-4.273 1.424-.886.717-1.121 1.08-.694 1.08.075 0 .438.194.812.418l.673.418 2.852-.022c2.606-.01 2.926-.032 3.557-.331zm68.85-2.794c.663-.996 2.008-1.949 3.557-2.505.502-.182.908-.375.908-.439 0-.203-1.506-1.477-2.254-1.905-1.046-.61-2.852-1.146-3.824-1.146-1.078 0-1.879.396-2.766 1.381-.705.77-1.602 2.312-1.987 3.404l-.203.567 1.068.257c1.24.29 2.724.985 3.856 1.788l.801.567.235-.696c.129-.385.406-.952.609-1.273zm-52.22.674c.128-.417.374-1.466.545-2.334l.31-1.562-1.368-1.424c-.758-.781-1.484-1.445-1.634-1.477-.534-.097-2.254.556-3.097 1.188-1.538 1.135-2.094 1.97-1.88 2.837.139.567 1.474 1.809 2.467 2.301 1.036.503 3.333 1.22 3.973 1.231.428.01.47-.032.684-.76zm-44.978-.985c-.609-1.22-.855-1.509-3.461-4.12-1.538-1.542-3.92-3.79-5.276-4.989a286.808 286.808 0 0 1-4.017-3.618c-2.745-2.558-4.005-3.318-5.522-3.318-.651 0-.779.064-1.292.578-1.079 1.08-1.56 3.821-1.186 6.861.192 1.584.47 2.719.556 2.259.566-3.158 2.189-4.914 4.56-4.946 1.368-.021 2.201.45 4.764 2.666a246.904 246.904 0 0 0 4.187 3.51c2.051 1.66 3.322 2.784 5.864 5.15.759.706 1.399 1.273 1.432 1.273.021.01-.257-.578-.609-1.306zm73.636-1.97c2.029-.984 3.172-1.262 5.554-1.348 1.848-.064 3.621.075 4.39.342.181.065.224.043.128-.053-.267-.268-2.35-1.049-3.877-1.456-1.346-.353-1.763-.396-3.835-.407-2.531 0-3.193.118-4.614.825-.972.481-1.485 1.091-1.73 2.066-.193.76-.118 2.076.149 2.58.16.299.214.256 1.335-.793.887-.835 1.496-1.263 2.5-1.755zm-41.945 1.735c1.025-.91 2.275-1.606 3.151-1.745.555-.086.587-.118.673-.717.267-1.798 2.755-4.132 5.351-5.01l.758-.257.374-1.306c.673-2.312 2.179-4.667 3.706-5.758.641-.46.652-.493.342-.61-.726-.268-2.937-.3-3.909-.054-2.211.556-4.433 2.076-5.031 3.436-.256.589-.502.664-.502.14 0-.45.545-1.414 1.207-2.131 1.239-1.349 3.621-2.73 5.309-3.094 1.046-.224 3.161-.203 4.827.043 3.023.44 3.429.418 3.824-.214.524-.835-.897-1.734-3.322-2.098-1.709-.257-3.054-.278-4.689-.075-4.945.621-7.808 2.655-9.944 7.054-.822 1.691-1.89 4.528-1.89 5.02 0 .129.128.504.288.836 1.068 2.215.481 4.71-1.463 6.133l-.737.546.32.343c.182.192.342.342.363.342.054 0 .492-.375.994-.824zm86.603-.76c-.129-1.36.822-2.826 2.104-3.233.908-.289.865-.396-.225-.642-1.719-.396-3.439-.45-4.721-.171-1.794.396-2.424 1.166-1.655 2.055.245.289 4.037 2.44 4.475 2.537.043.01.054-.236.022-.546zm-97.092-.6c1.42-.824 3.621-.952 5.597-.3l1.047.343 1.025-.91c1.1-.974 1.42-1.595 1.271-2.398-.32-1.701-2.318-2.804-4.401-2.44-2.115.375-3.589 1.477-4.496 3.404-.449.942-.834 2.58-.599 2.58.032.01.289-.118.556-.279zm38.676-.47c1.09-1.007 2.382-1.606 3.653-1.692l.994-.075-.353-.77a4.175 4.175 0 0 1-.363-1.51c-.011-.407-.043-.75-.064-.75-.032 0-.363.236-.748.536-1.089.846-1.858 1.124-3.065 1.135l-1.058.01-.342.739c-.192.407-.555.985-.811 1.285-.257.3-.449.556-.417.578.032.021.246.128.481.246.235.117.598.396.801.61.203.214.395.396.427.396.021.01.406-.321.865-.739zm29.117-.943c.908-1.766 1.837-2.815 3.546-4.035.246-.182.225-.29-.47-1.938-1.271-3.018-2.595-4.645-5.105-6.272-2.574-1.67-5.64-2.751-8.876-3.126-2.542-.289-4.572.246-5.597 1.51-.566.695-.833 1.284-.684 1.52.054.085.417.246.791.353.619.16.875.15 2.253-.14.855-.181 2.03-.32 2.617-.32 2.596 0 5.982.62 6.996 1.273.737.482.951.889.267.514-.406-.225-.897-.257-3.888-.257-1.879 0-3.546.054-3.685.107-.213.086-.064.246.834.846.608.407 1.751 1.38 2.531 2.151 1.602 1.584 2.339 2.826 2.467 4.121.075.814-.032.707 1.837 1.756.695.385 1.624 1.092 2.329 1.766.652.621 1.207 1.124 1.25 1.135.064 0 .32-.428.587-.964zm16.268-.45c-.267-.385-.599-.91-.737-1.177l-.246-.481-.545.481c-.523.46-.534.503-.363.92.096.236.214.558.256.697.064.214.257.257 1.101.257h1.025l-.491-.696zM139.765 36.7c.662-1.423 1.997-2.761 3.45-3.457.651-.31 1.581-.642 2.083-.739 1.11-.214 3.086-.117 3.962.204.353.128.662.214.673.203.032-.032.203-1.392.577-4.592.214-1.852 1.431-6.98 2.35-9.955.577-1.852 1.538-4.153 2.809-6.712 1.111-2.237 1.549-3.371 1.752-4.57.427-2.484-.994-4.464-3.226-4.464-1.047 0-1.624.193-2.553.888-2.905 2.163-7.156 7.386-9.004 11.069-1.399 2.804-2.179 5.095-3.119 9.195-1.1 4.838-1.271 6.861-.737 8.895.32 1.23.363 2.676.128 4.57-.181 1.51-.053 2.152.235 1.092.096-.396.374-1.123.62-1.627zm36.39 1.296c.449-.236 1.207-1.467 1.207-1.97 0-.364-1.078-2.077-1.431-2.27-.139-.074-.577-.406-.972-.749-.395-.331-.854-.653-1.015-.717a4.957 4.957 0 0 0-2.403-.214c-1.506.268-4.86 2.109-5.383 2.944-.15.246-.054.407.886 1.36.652.652 1.303 1.166 1.656 1.305.652.246 5.234.664 6.355.567.374-.02.865-.139 1.1-.256zm15.616-2.099c.673-.331 1.624-.706 2.104-.834 1.154-.3 3.141-.429 4.187-.257 1.09.182.994.064-1.089-1.295-2.254-1.478-3.354-1.917-4.956-2.002-2.959-.15-5.245 1.413-5.458 3.746-.043.471-.032 1.028.011 1.231.138.557.811 1.274 1.463 1.563l.577.257.961-.91a9.645 9.645 0 0 1 2.2-1.498zM181.4 34.486c1.1-.557 4.39-3.586 4.39-4.036 0-.439-.876-1.456-1.752-2.023-1.196-.77-2.425-1.081-3.952-1.006-2.061.107-2.638.6-2.617 2.216.022 1.937.983 4.142 2.136 4.902.577.386.962.375 1.795-.053zm59.836-2.334c1.591-1.295 3.407-2.515 5.073-3.404.695-.375 1.282-.792 1.367-.974.31-.674-.395-2.216-1.217-2.665-.395-.214-.801-.257-2.222-.247-2.125.022-3.493.354-5.405 1.285-1.068.524-1.516.856-2.296 1.68-.534.568-.972 1.092-.972 1.157 0 .075.342.331.769.578 1.581.92 3.012 2.355 3.247 3.264.054.214.15.396.203.396.075.011.726-.481 1.453-1.07zm-75.954.064c.983-.781 2.905-1.82 4.358-2.344 1.613-.589 2.937-.685 4.368-.31.599.16 1.101.278 1.122.256.011-.01.096-.47.192-1.027.086-.546.278-1.242.438-1.541.31-.6 1.271-1.531 1.741-1.681.171-.054.31-.15.31-.214 0-.225-4.134-4.303-5.682-5.598l-1.528-1.285-.192.471a5.787 5.787 0 0 1-.566.963c-.203.268-.353.514-.321.536.032.021.449.128.93.224 2.659.568 4.379 2.302 4.069 4.11-.149.879-.897 1.874-1.741 2.313-.651.332-.897.375-2.36.375h-1.635l-.94.685c-.512.374-1.239 1.06-1.602 1.53-.641.814-1.933 3.115-1.762 3.115.032 0 .406-.257.801-.578zm48.172-3.939c-1.271-4.7-2.158-6.754-4.326-10.062-2.788-4.26-4.838-6.24-7.669-7.429-1.741-.728-3.151-1.038-4.7-1.038-1.335 0-1.377.01-1.815.45-.417.417-.438.503-.364 1.22.161 1.552 1.346 3.361 3.621 5.545 1.827 1.744 2.799 2.826 4.006 4.431.438.589.94 1.124 1.111 1.188.171.065.961.375 1.751.675 3.867 1.477 7.285 4.335 8.695 7.236.181.374.363.664.395.631.021-.021-.288-1.306-.705-2.847zm-24.791 1.253a9.114 9.114 0 0 1 1.613-.46l.737-.097-.491-.46c-1.122-1.06-.94-2.773.459-4.325l.523-.578-.993-1.135c-2.457-2.804-6.751-6.476-9.41-8.05-2.361-1.401-5.191-2.172-7.392-2-1.474.117-2.424.427-3.001.984-.438.428-.908 1.37-.748 1.52.032.032.545-.107 1.143-.31.865-.3 1.378-.386 2.606-.397 1.037-.01 1.667.043 1.966.182.427.193.416.204-.823.375-1.292.182-1.751.385-3.001 1.327l-.63.471.908.696c2.157 1.66 3.065 2.451 4.721 4.079.961.952 2.05 2.108 2.414 2.58l.662.845 1.004.064c2.841.182 5.244 1.691 6.334 3.982.267.567.491 1.028.502 1.028.011.021.416-.129.897-.322zm5.789-.086c-.053-.075-.171-.15-.267-.14-.107 0-.085.054.043.14.288.182.342.182.224 0zm-36.091-7.547c2.061-1.038 4.881-1.637 7.69-1.637.951 0 1.848-.065 1.997-.15.417-.225.716-.92.716-1.649 0-1.23-1.303-2.451-3.247-3.04-3.14-.952-6.003 1.028-8.556 5.952-.897 1.734-.918 1.959-.096 1.391a14.273 14.273 0 0 1 1.496-.867zm36.764.022c.737-.16 1.634-.214 2.841-.182l1.763.053-.588-.695c-.32-.386-1.239-1.306-2.04-2.045-1.89-1.755-3.001-3.147-3.834-4.828-.566-1.145-.695-1.552-.78-2.515l-.096-1.145-.524 1.605c-.79 2.398-.982 3.254-1.196 5.342l-.203 1.905.566.878c.502.781 1.154 2.248 1.154 2.59 0 .075.416-.064.918-.3a10.648 10.648 0 0 1 2.019-.663zm-38.602-4.282c.769-1.124 2.169-2.633 3.066-3.297.587-.428.812-.76 1.453-2.076l.758-1.563-.32-.268c-.673-.546-1.934-.193-2.874.792-.801.835-2.969 5.663-3.599 7.996-.203.76-.374 1.456-.363 1.531 0 .075.288-.385.64-1.038.353-.643.908-1.585 1.239-2.077zm-19.525-4.528c1.154-3.532 1.325-4.967.769-6.433-.448-1.178-.609-1.295-1.837-1.295-3.108 0-5.96 1.97-7.028 4.87-.502 1.36-.513 1.306.139 1.606.929.428 2.489 1.777 4.935 4.239l2.253 2.28.086-1.713c.074-1.488.181-2.002.683-3.554zm31.136-.085c.213-.44.705-1.103 1.1-1.467.385-.364.705-.685.705-.717 0-.032-.246-.129-.545-.214-.854-.236-1.954-.182-3.023.15-.769.235-1.132.45-1.687 1.017-.395.396-.705.781-.705.867 0 .085.214.15.481.15.64 0 2.029.374 2.691.727.299.16.556.29.566.29 0 0 .193-.354.417-.803zm37.971-3.383c-.203-2.334-1.046-4.57-2.221-5.877-.865-.963-1.581-1.295-2.777-1.306-1.667-.01-3.247.793-4.978 2.505-.854.846-2.328 2.783-2.328 3.051 0 .064.224-.021.502-.182 2.029-1.199 7.38-.075 10.702 2.27.524.363 1.004.663 1.068.663.075 0 .096-.503.032-1.124z" fill="currentColor"></path></g></svg>