<svg xmlns="http://www.w3.org/2000/svg" viewBox="0 0 70 70"><g fill="none" class="nc-icon-wrapper"><path d="M54.075 67.976h-33.2a3.358 3.358 0 0 1-3.355-3.354V41.297c0-.412.334-.744.745-.744h38.42c.412 0 .745.332.745.744v23.325a3.36 3.36 0 0 1-3.355 3.354zM19.008 42.04v22.581c0 1.03.837 1.866 1.866 1.866h33.201a1.868 1.868 0 0 0 1.866-1.866V42.041H19.008z" fill="currentColor"></path><path d="M40.935 67.976h-6.922a.744.744 0 0 1-.743-.744V41.297c0-.412.333-.744.743-.744h6.922c.411 0 .743.332.743.744v25.935a.743.743 0 0 1-.743.744zm-6.177-1.488h5.433V42.041h-5.433v24.447z" fill="currentColor"></path><path d="M7.098 53.168a.742.742 0 0 1-.526-.218L3.28 49.658a3.358 3.358 0 0 1 0-4.743l23.476-23.477a3.33 3.33 0 0 1 2.372-.982 3.33 3.33 0 0 1 2.371.982l3.292 3.292c.29.291.29.762 0 1.052L7.624 52.95a.742.742 0 0 1-.526.218zm22.03-31.224c-.498 0-.967.194-1.32.547L4.332 45.968a1.868 1.868 0 0 0 0 2.638l2.766 2.766 26.115-26.115-2.766-2.766a1.854 1.854 0 0 0-1.319-.547z" fill="currentColor"></path><path d="M15.543 34.447a.744.744 0 0 1-.741-.803l.781-9.9a4.363 4.363 0 0 1 2.869-3.789 4.362 4.362 0 0 1 4.64 1.019 4.411 4.411 0 0 1 0 6.232l-7.021 7.023a.746.746 0 0 1-.528.218zm4.462-13.285c-.344 0-.694.063-1.039.19a2.853 2.853 0 0 0-1.9 2.508l-.622 7.89 5.596-5.597a2.923 2.923 0 0 0 0-4.127 2.858 2.858 0 0 0-2.035-.864z" fill="currentColor"></path><path d="M5.93 42.543a4.373 4.373 0 0 1-3.115-1.291 4.361 4.361 0 0 1-1.02-4.641 4.364 4.364 0 0 1 3.79-2.869l9.9-.781c.31-.02.604.147.734.43.13.283.07.617-.15.838L9.048 41.25a4.376 4.376 0 0 1-3.116 1.292zm7.66-7.94l-7.89.623a2.853 2.853 0 0 0-2.508 1.9 2.853 2.853 0 0 0 .675 3.074c1.103 1.103 3.025 1.103 4.128 0l5.596-5.596z" fill="currentColor"></path><path d="M18.233 42.031a.742.742 0 0 1-.526-.218l-5.138-5.137a.742.742 0 0 1 0-1.052l4.894-4.894a.766.766 0 0 1 1.052 0l5.138 5.138a.742.742 0 0 1 0 1.051l-4.894 4.894a.742.742 0 0 1-.526.218zm-4.085-5.88l4.086 4.084 3.842-3.841-4.086-4.086-3.842 3.842z" fill="currentColor"></path><path d="M57.164 36.074l-.268-.317c-1.239-1.466-2.91-4.446-3.438-6.133-1.135-3.63-.309-7.138 1.966-8.34 1.1-.581 2.371-.676 3.583-.267 1.19.402 2.203 1.258 2.908 2.443 1.31-.427 2.637-.402 3.797.082 1.178.49 2.072 1.401 2.515 2.564.917 2.403-.775 5.585-4.024 7.566-1.509.92-4.73 2.057-6.629 2.342l-.41.06zm.346-13.818c-.484 0-.96.116-1.392.345-1.613.852-2.147 3.68-1.24 6.58.436 1.396 1.802 3.875 2.89 5.289 1.75-.345 4.412-1.308 5.66-2.07 2.594-1.58 4.059-4.058 3.407-5.763a3.033 3.033 0 0 0-1.697-1.722c-.97-.405-2.134-.35-3.273.156l-.669.296-.307-.665c-.524-1.13-1.362-1.94-2.359-2.275a3.164 3.164 0 0 0-1.02-.17z" fill="currentColor"></path><path d="M43.24 20.859l-.269-.317c-1.545-1.829-3.626-5.54-4.281-7.639-1.399-4.474-.4-8.785 2.377-10.253 1.335-.705 2.879-.82 4.35-.325 1.495.505 2.764 1.601 3.627 3.119 1.652-.572 3.327-.559 4.785.05 1.431.596 2.516 1.701 3.054 3.113 1.12 2.933-.974 6.833-4.976 9.272-1.878 1.145-5.89 2.563-8.257 2.917l-.41.063zm.358-17.348c-.638 0-1.265.153-1.837.455-2.106 1.113-2.817 4.764-1.652 8.493.563 1.799 2.344 5.02 3.734 6.797 2.216-.418 5.679-1.665 7.29-2.646 3.335-2.033 5.21-5.245 4.36-7.471-.39-1.027-1.185-1.833-2.236-2.271-1.27-.53-2.785-.46-4.265.196l-.669.296-.307-.664c-.68-1.468-1.772-2.52-3.075-2.96a4.174 4.174 0 0 0-1.343-.225z" fill="currentColor"></path><path d="M45.318 36.856l-.411-.061c-1.326-.2-3.578-.995-4.631-1.638-2.36-1.439-3.535-3.687-2.856-5.469a3.322 3.322 0 0 1 1.854-1.89c.794-.331 1.694-.37 2.588-.116.507-.78 1.207-1.345 2.024-1.62a3.32 3.32 0 0 1 2.64.198c1.685.89 2.286 3.355 1.46 5.994-.368 1.18-1.535 3.262-2.4 4.285l-.268.317zm-4.614-7.85a2.22 2.22 0 0 0-.857.165 1.849 1.849 0 0 0-1.035 1.048c-.407 1.065.556 2.642 2.24 3.667.788.481 2.494 1.105 3.66 1.359.708-.959 1.579-2.554 1.855-3.436.587-1.881.27-3.702-.737-4.234a1.85 1.85 0 0 0-1.468-.104c-.623.21-1.148.72-1.48 1.436l-.307.665-.67-.297a2.99 2.99 0 0 0-1.2-.27z" fill="currentColor"></path></g></svg>