<svg xmlns="http://www.w3.org/2000/svg" viewBox="0 0 32 32"><g fill="currentColor" class="nc-icon-wrapper"><path d="M16.238 0c8.416 0 15.238 6.822 15.238 15.238s-6.822 15.238-15.238 15.238c-2.466 0-4.849-.587-6.99-1.694l-5.83 1.626a1.905 1.905 0 0 1-2.344-2.361l-.003.013 1.627-5.825C1.628 20.21 1 17.808 1 15.26v-.024.001C1 6.821 7.822-.001 16.238-.001zm0 2.286c-7.153 0-12.952 5.799-12.952 12.952 0 2.239.568 4.394 1.635 6.305l.23.411-1.696 6.071L9.53 26.33l.411.229a12.73 12.73 0 0 0 6.274 1.631h.025-.001c7.153 0 12.952-5.799 12.952-12.952S23.392 2.286 16.239 2.286zm0 18.285h.039a1.524 1.524 0 1 1 0 3.048l-.041-.001h.002a1.525 1.525 0 0 1-.002-3.046h.002zm0-13.333a4.19 4.19 0 0 1 4.19 4.19c0 1.54-.453 2.398-1.602 3.594l-.257.262c-.948.948-1.189 1.35-1.189 2.24a1.143 1.143 0 0 1-2.286 0c0-1.54.453-2.398 1.602-3.594l.257-.262c.948-.948 1.189-1.35 1.189-2.24a1.905 1.905 0 0 0-3.799-.203l-.001.008-.01.195a1.143 1.143 0 0 1-2.286 0 4.19 4.19 0 0 1 4.19-4.19z" fill="currentColor" class="nc-icon-wrapper"></path></g></svg>