<svg xmlns="http://www.w3.org/2000/svg" viewBox="0 0 16 15"><g fill="none" class="nc-icon-wrapper"><path fill-rule="evenodd" clip-rule="evenodd" d="M15.485 5.396L8.986.322A1.604 1.604 0 0 0 8 0c-.37 0-.72.114-.986.322L.515 5.396C.222 5.626 0 6.081 0 6.454v.689a.8.8 0 0 0 .798.8h1.114c.128 0 .232.105.232.233v4.751c0 1.106.896 2.006 1.998 2.006h7.716c1.102 0 1.998-.9 1.998-2.006V8.176c0-.128.104-.232.232-.232h1.115A.8.8 0 0 0 16 7.143v-.689c0-.373-.222-.828-.515-1.058zM6.31 14.365v-3.331c0-.936.758-1.696 1.689-1.696s1.69.76 1.69 1.696v3.331H6.31zm8.891-6.99a.232.232 0 0 0 .232-.232v-.689a.918.918 0 0 0-.297-.609L8.638.77A1.053 1.053 0 0 0 8 .568c-.242 0-.474.074-.639.202L.863 5.845a.916.916 0 0 0-.297.61v.688c0 .128.104.233.231.233h1.115a.8.8 0 0 1 .797.8v4.751c0 .793.643 1.438 1.432 1.438h1.604v-3.331A2.262 2.262 0 0 1 8 8.769a2.262 2.262 0 0 1 2.255 2.265v3.331h1.603c.79 0 1.432-.645 1.432-1.437V8.176a.8.8 0 0 1 .798-.8h1.114z" fill="currentColor"></path></g></svg>