<svg xmlns="http://www.w3.org/2000/svg" viewBox="0 0 17 20"><g fill="none" class="nc-icon-wrapper"><path d="M12.225 4.634a.698.698 0 1 1 .846-1.11 8.14 8.14 0 0 1-4.263 14.588l.699.697.067.078a.698.698 0 0 1-1.054.909l-1.86-1.86-.068-.079a.698.698 0 0 1 .068-.908l.31-.31a6.778 6.778 0 0 0 1.912.06l-.005.005a6.745 6.745 0 0 0 3.348-12.07zM6.772 1.19A.698.698 0 1 1 7.76.204l1.86 1.86a.698.698 0 0 1 0 .987l-.31.31a6.782 6.782 0 0 0-1.913-.06l.005-.005a6.745 6.745 0 0 0-3.553 11.906.698.698 0 0 1-.89 1.076 8.14 8.14 0 0 1 4.51-14.39l-.696-.697zm4.186 7.907a.698.698 0 1 0-.986-.987l-2.763 2.763-.902-.902a.698.698 0 0 0-.986.986l1.395 1.396a.698.698 0 0 0 .987 0l3.255-3.256zM8.14 15.581a5.581 5.581 0 1 0 0-11.162 5.581 5.581 0 0 0 0 11.162zm0-1.395a4.186 4.186 0 1 1 0-8.372 4.186 4.186 0 0 1 0 8.372z" fill="currentColor"></path></g></svg>