<svg xmlns="http://www.w3.org/2000/svg" viewBox="0 0 32 32"><g fill="currentColor" class="nc-icon-wrapper"><path d="M10.325 10.601a7.428 7.428 0 0 1 5.472-2.268h-.006c2.133 0 3.934.755 5.402 2.268 1.51 1.466 2.266 3.266 2.266 5.399s-.755 3.955-2.266 5.468c-1.468 1.466-3.268 2.197-5.402 2.197s-3.955-.732-5.466-2.197C8.857 19.955 8.126 18.134 8.126 16s.732-3.934 2.197-5.399zm1.933 8.932c.977.979 2.155 1.468 3.533 1.468s2.556-.491 3.535-1.468c.977-.977 1.466-2.155 1.466-3.533s-.491-2.556-1.466-3.533a4.803 4.803 0 0 0-3.463-1.468l-.076.001h.004c-1.376 0-2.556.491-3.533 1.468a4.806 4.806 0 0 0-1.463 3.537v-.004c0 1.378.489 2.556 1.466 3.533zM24.992 6.799c.356.311.533.713.533 1.201 0 .491-.177.911-.533 1.267a1.518 1.518 0 0 1-1.157.534l-.046-.001h.002-.016c-.491 0-.934-.204-1.249-.533l-.001-.001a1.725 1.725 0 0 1-.533-1.249v-.019.001c0-.491.177-.89.533-1.201a1.725 1.725 0 0 1 1.249-.533h.016-.001c.491 0 .89.179 1.201.533zm5.666 3.068c.043 1.201.066 3.243.066 6.133 0 2.889-.021 4.934-.064 6.133-.134 2.709-.958 4.821-2.468 6.334-1.468 1.466-3.556 2.244-6.268 2.334-1.199.087-3.243.132-6.133.132-2.889 0-4.932-.043-6.133-.134-2.709-.132-4.8-.932-6.266-2.398a6.38 6.38 0 0 1-1.399-1.869 10.473 10.473 0 0 1-.781-1.988l-.019-.077a11.699 11.699 0 0 1-.2-2.342v.008C.903 20.932.859 18.89.859 16c0-2.889.045-4.956.134-6.199.132-2.667.932-4.734 2.4-6.202 1.466-1.508 3.556-2.33 6.266-2.464 1.201-.045 3.245-.068 6.133-.068 2.891 0 4.934.021 6.133.066 2.711.134 4.8.956 6.268 2.468 1.51 1.466 2.334 3.554 2.466 6.266zm-3.2 14.933c.14-.38.256-.829.328-1.293l.005-.041c.09-.576.156-1.244.201-2.001a37.9 37.9 0 0 0 .066-1.933v-7.066c0-.491-.021-1.111-.064-1.867a18.884 18.884 0 0 0-.217-2.109l.014.108a7.222 7.222 0 0 0-.348-1.45l.016.05a4.836 4.836 0 0 0-2.834-2.856l-.033-.011a6.948 6.948 0 0 0-1.362-.329l-.038-.004a17.662 17.662 0 0 0-1.956-.199l-.043-.002a34.322 34.322 0 0 0-1.867-.066h-7.068a35.7 35.7 0 0 0-1.933.066c-.755.045-1.423.111-2.001.201a7.48 7.48 0 0 0-1.333.333 4.838 4.838 0 0 0-2.854 2.834l-.011.033a6.936 6.936 0 0 0-.331 1.361l-.004.038a18.796 18.796 0 0 0-.198 2.001 32.596 32.596 0 0 0-.068 1.867v8c.045.666.09 1.244.134 1.732.103.982.268 1.866.495 2.724l-.028-.123c.576 1.378 1.532 2.334 2.865 2.867.356.132.8.243 1.333.333.578.09 1.246.156 2.001.201.8.043 1.423.066 1.867.066h7.134c.489 0 1.109-.021 1.867-.066.742-.035 1.43-.107 2.106-.215l-.107.014c.576-.09 1.045-.201 1.399-.333 1.378-.578 2.334-1.534 2.867-2.867z" fill="currentColor" class="nc-icon-wrapper"></path></g></svg>