<svg xmlns="http://www.w3.org/2000/svg" viewBox="0 0 32 32"><g fill="currentColor" class="nc-icon-wrapper"><path d="M0 16c0 .715.531 1.306 1.22 1.399l.19.013h23.896l-4.173 4.179A1.407 1.407 0 0 0 21 23.432l-.003-.004.136.158a1.41 1.41 0 0 0 1.837.137l.158-.137 6.583-6.588a1.407 1.407 0 0 0 .133-1.841l.003.004-.136-.158-6.583-6.588a1.408 1.408 0 0 0-2.422.981c0 .323.109.621.292.859l-.002-.003.137.158 4.173 4.179H1.41A1.412 1.412 0 0 0 0 16.001z" fill="currentColor" class="nc-icon-wrapper"></path></g></svg>