<svg xmlns="http://www.w3.org/2000/svg" viewBox="0 0 24 31"><g fill="none" class="nc-icon-wrapper"><path d="M3.39 3.39C5.652 1.13 8.397 0 11.626 0c3.23 0 5.974 1.13 8.234 3.39 2.26 2.261 3.391 5.006 3.391 8.235 0 .686-.04 1.292-.121 1.816-.04.485-.202 1.07-.485 1.756-.242.687-.484 1.252-.726 1.696-.202.444-.646 1.21-1.332 2.3a70.89 70.89 0 0 1-1.816 2.664c-.525.727-1.413 1.978-2.665 3.754-1.21 1.776-2.3 3.37-3.27 4.784-.282.403-.685.605-1.21.605-.525 0-.928-.202-1.21-.605a465.794 465.794 0 0 0-3.331-4.784 194.81 194.81 0 0 0-2.604-3.754 70.962 70.962 0 0 1-1.816-2.664c-.686-1.09-1.15-1.856-1.393-2.3a52.914 52.914 0 0 1-.726-1.696C.303 14.511.14 13.926.06 13.441.02 12.917 0 12.311 0 11.625c0-3.23 1.13-5.974 3.39-8.234zm8.235 25.31a165.68 165.68 0 0 1 2.846-4.057c1.05-1.494 1.816-2.584 2.3-3.27.485-.727 1.03-1.534 1.635-2.422a45.36 45.36 0 0 0 1.272-1.937c.242-.444.504-.929.787-1.454.282-.565.464-1.029.545-1.392.08-.363.141-.747.181-1.15.081-.404.122-.868.122-1.393 0-2.664-.95-4.945-2.846-6.842-1.897-1.897-4.178-2.846-6.842-2.846-2.664 0-4.945.95-6.842 2.846-1.897 1.897-2.846 4.178-2.846 6.842 0 .525.02.989.061 1.393.08.403.162.787.242 1.15.081.363.263.827.545 1.393.283.524.545 1.009.787 1.453.242.403.666 1.05 1.272 1.937.605.888 1.15 1.695 1.635 2.422.524.686 1.291 1.776 2.3 3.27a165.735 165.735 0 0 1 2.846 4.056zM8.174 8.233c.969-.968 2.119-1.453 3.451-1.453 1.332 0 2.462.485 3.39 1.453.97.929 1.454 2.059 1.454 3.391 0 1.332-.485 2.482-1.453 3.451-.929.929-2.059 1.393-3.391 1.393-1.332 0-2.482-.464-3.451-1.393-.929-.969-1.393-2.119-1.393-3.451 0-1.332.464-2.462 1.393-3.39zm1.392 5.45a2.803 2.803 0 0 0 2.059.847c.807 0 1.493-.282 2.059-.847a2.803 2.803 0 0 0 .847-2.059c0-.807-.282-1.493-.847-2.059a2.803 2.803 0 0 0-2.059-.847c-.807 0-1.493.282-2.059.847a2.803 2.803 0 0 0-.847 2.059c0 .807.282 1.493.847 2.059z" fill="currentColor"></path></g></svg>