<svg xmlns="http://www.w3.org/2000/svg" viewBox="0 0 26 32"><g fill="currentColor" class="nc-icon-wrapper"><path d="M23.687 7.013c-.046-.418-.372-.743-.79-.743h-3.855c0-3.437-2.833-6.27-6.27-6.27s-6.27 2.787-6.27 6.27H2.647c-.418 0-.743.325-.789.743L0 27.727v.093C0 30.142 2.137 32 4.737 32h16.07c2.601 0 4.737-1.858 4.737-4.18v-.093L23.686 7.013zM12.772 1.626a4.658 4.658 0 0 1 4.644 4.644H8.127a4.658 4.658 0 0 1 4.644-4.644zm8.035 28.795H4.737c-1.718 0-3.112-1.161-3.158-2.554L3.344 7.896h3.158v2.787c0 .418.372.79.79.79s.79-.372.79-.79V7.896h9.335v2.787c0 .418.372.79.789.79s.79-.372.79-.79V7.896h3.158l1.765 19.971c0 1.393-1.393 2.554-3.111 2.554zM17.51 20.017c0 .418-.372.79-.79.79h-3.158v3.158c0 .418-.372.789-.79.789s-.789-.372-.789-.789v-3.158H8.825c-.418 0-.79-.372-.79-.79s.372-.79.79-.79h3.158v-3.158c0-.418.372-.789.789-.789s.79.372.79.789v3.158h3.158c.464 0 .79.372.79.79z" fill="currentColor" class="nc-icon-wrapper"></path></g></svg>