<svg xmlns="http://www.w3.org/2000/svg" viewBox="0 0 38 29"><g fill="none" class="nc-icon-wrapper"><path d="M8.637 11.496c-.423 0-.828.066-1.232.125.131-.446.266-.9.482-1.309.216-.593.553-1.107.888-1.625.28-.56.775-.94 1.139-1.42.38-.465.9-.776 1.31-1.163.404-.404.932-.606 1.353-.891.44-.256.822-.54 1.231-.674l1.021-.428.898-.379L14.81 0l-1.131.277c-.362.093-.804.2-1.306.33-.513.096-1.06.36-1.67.6-.603.274-1.3.459-1.948.898-.651.42-1.403.77-2.066 1.332-.643.58-1.417 1.083-1.99 1.82-.625.69-1.242 1.414-1.722 2.238-.555.785-.932 1.648-1.33 2.501-.36.853-.65 1.726-.886 2.573a23.6 23.6 0 0 0-.727 4.693c-.065 1.383-.027 2.532.053 3.364.028.393.081.774.119 1.038l.047.323.05-.011a8.71 8.71 0 0 0 2.237 4.24 8.491 8.491 0 0 0 4.118 2.374 8.392 8.392 0 0 0 4.728-.225 8.526 8.526 0 0 0 3.881-2.755 8.74 8.74 0 0 0 1.838-4.434 8.792 8.792 0 0 0-.774-4.748 8.621 8.621 0 0 0-3.145-3.596 8.423 8.423 0 0 0-4.548-1.336zm20.838 0c-.423 0-.828.066-1.232.125.131-.446.266-.9.482-1.309.216-.593.553-1.107.888-1.625.28-.56.775-.94 1.139-1.42.38-.465.9-.776 1.31-1.163.404-.404.933-.606 1.353-.891.44-.256.822-.54 1.231-.674l1.021-.428.898-.379L35.647 0l-1.131.277c-.362.093-.803.2-1.305.33-.514.096-1.061.36-1.671.6-.6.276-1.3.459-1.948.9-.651.42-1.403.77-2.066 1.332-.643.58-1.418 1.083-1.99 1.818-.625.69-1.242 1.414-1.722 2.238-.555.785-.932 1.648-1.33 2.501-.36.853-.65 1.726-.886 2.573a23.607 23.607 0 0 0-.727 4.693c-.065 1.383-.027 2.532.053 3.364.028.393.081.774.119 1.038l.047.323.05-.011a8.71 8.71 0 0 0 2.237 4.24 8.491 8.491 0 0 0 4.117 2.374 8.392 8.392 0 0 0 4.73-.225 8.526 8.526 0 0 0 3.88-2.755 8.741 8.741 0 0 0 1.837-4.434 8.793 8.793 0 0 0-.773-4.748 8.621 8.621 0 0 0-3.145-3.596 8.423 8.423 0 0 0-4.548-1.336z" fill="#30373E"></path></g></svg>