<svg xmlns="http://www.w3.org/2000/svg" viewBox="0 0 60 43"><g fill="none" class="nc-icon-wrapper"><path d="M0 29.232c0-2.208.576-4.368 1.728-6.48v-.144L14.976 0h6.048L11.52 16.272l1.584-.144c3.552 0 6.576 1.296 9.072 3.888 2.592 2.496 3.888 5.568 3.888 9.216 0 3.648-1.296 6.768-3.888 9.36-2.496 2.496-5.52 3.744-9.072 3.744-3.648 0-6.768-1.248-9.36-3.744C1.248 36 0 32.88 0 29.232zm46.656-13.104c3.648 0 6.72 1.296 9.216 3.888 2.592 2.496 3.888 5.568 3.888 9.216 0 3.552-1.296 6.624-3.888 9.216-2.496 2.592-5.568 3.888-9.216 3.888-3.552 0-6.624-1.296-9.216-3.888-2.592-2.592-3.888-5.664-3.888-9.216 0-2.304.624-4.464 1.872-6.48v-.144L48.528 0h6.192l-9.504 16.272 1.44-.144z" fill="currentColor"></path></g></svg>