<svg xmlns="http://www.w3.org/2000/svg" viewBox="0 0 70 70"><g fill="none" class="nc-icon-wrapper"><path d="M51.938 45.416c-9.96 0-18.062-8.011-18.062-17.858 0-9.847 8.103-17.858 18.062-17.858C61.897 9.7 70 17.71 70 27.558c0 9.846-8.103 17.858-18.062 17.858zm0-34.578c-9.326 0-16.911 7.5-16.911 16.72 0 9.22 7.585 16.72 16.91 16.72 9.326 0 16.912-7.5 16.912-16.72 0-9.22-7.586-16.72-16.911-16.72zm0 31.102c-8.023 0-14.546-6.45-14.546-14.382 0-7.932 6.523-14.382 14.546-14.382s14.546 6.45 14.546 14.382c0 7.932-6.523 14.382-14.546 14.382zm0-27.617c-7.38 0-13.395 5.938-13.395 13.244 0 7.305 6.006 13.243 13.395 13.243 7.38 0 13.395-5.938 13.395-13.243 0-7.306-6.015-13.244-13.395-13.244z" fill="currentColor"></path><path d="M18.062 64.853C8.103 64.853 0 56.84 0 46.995c0-9.847 8.103-17.858 18.062-17.858 9.96 0 18.062 8.011 18.062 17.858 0 9.846-8.103 17.858-18.062 17.858zm0-34.578c-9.325 0-16.91 7.5-16.91 16.72 0 9.22 7.585 16.72 16.91 16.72 9.326 0 16.911-7.5 16.911-16.72 0-9.22-7.585-16.72-16.91-16.72zm0 31.101c-8.023 0-14.546-6.45-14.546-14.381 0-7.932 6.524-14.382 14.546-14.382 8.023 0 14.546 6.45 14.546 14.382 0 7.932-6.523 14.381-14.546 14.381zm0-27.616c-7.38 0-13.395 5.938-13.395 13.244 0 7.296 6.006 13.243 13.395 13.243 7.38 0 13.395-5.938 13.395-13.243 0-7.306-6.006-13.244-13.395-13.244z" fill="currentColor"></path><path d="M27.03 22.556H9.104a.574.574 0 0 1-.518-.327.562.562 0 0 1 .08-.609l2.972-3.476a.586.586 0 0 1 .437-.203H24.39c.179 0 .349.088.465.23l2.641 3.476a.562.562 0 0 1 .053.6.606.606 0 0 1-.517.309zm-16.696-1.139H25.88l-1.785-2.338H12.333l-1.999 2.338z" fill="currentColor"></path><path d="M20.704 30.275H15.26a.582.582 0 0 1-.455-.22l-6.158-7.721a.563.563 0 0 1-.062-.6.576.576 0 0 1 .517-.318h17.929c.223 0 .428.124.517.327a.562.562 0 0 1-.071.6l-6.327 7.72a.583.583 0 0 1-.446.212zm-5.167-1.138h4.89l5.39-6.582H10.29l5.248 6.582z" fill="currentColor"></path><path d="M14.823 22.555h-.018a.604.604 0 0 1-.437-.22l-2.749-3.477a.57.57 0 0 1 .098-.803.585.585 0 0 1 .812.097l2.32 2.938 2.624-2.964a.602.602 0 0 1 .41-.195c.152-.026.313.053.43.16l3.123 3.043 2.516-3a.592.592 0 0 1 .812-.079.576.576 0 0 1 .08.803l-2.918 3.476a.576.576 0 0 1-.41.203.574.574 0 0 1-.438-.159l-3.14-3.052-2.678 3.026a.584.584 0 0 1-.437.203z" fill="currentColor"></path><path d="M17.072 30.275a.57.57 0 0 1-.553-.414l-2.258-7.72c-.09-.3.089-.618.392-.706a.58.58 0 0 1 .714.388l2.258 7.72c.09.3-.09.618-.393.706a.51.51 0 0 1-.16.026z" fill="currentColor"></path><path d="M18.776 30.275a.563.563 0 0 1-.544-.75l2.65-7.72a.57.57 0 0 1 .732-.353.563.563 0 0 1 .357.724l-2.65 7.72a.577.577 0 0 1-.545.38z" fill="currentColor"></path><path d="M7.586 18.673a.55.55 0 0 1-.348-.114l-3.213-2.453a.578.578 0 0 1-.107-.803.584.584 0 0 1 .803-.106l3.213 2.453c.25.194.294.547.107.803a.595.595 0 0 1-.455.22z" fill="currentColor"></path><path d="M10.173 16.696a.557.557 0 0 1-.482-.264l-3.043-4.65a.564.564 0 0 1 .17-.785.579.579 0 0 1 .794.167l3.043 4.65a.564.564 0 0 1-.17.785.522.522 0 0 1-.312.097z" fill="currentColor"></path><path d="M18.063 14.985a.576.576 0 0 1-.58-.574v-8.69a.587.587 0 0 1 .58-.574c.321 0 .58.256.58.574v8.7a.574.574 0 0 1-.58.564z" fill="currentColor"></path><path d="M14.216 15.576a.57.57 0 0 1-.553-.432l-1.785-7.068a.558.558 0 0 1 .42-.688.578.578 0 0 1 .696.415l1.784 7.067a.558.558 0 0 1-.42.688c-.053.018-.097.018-.142.018z" fill="currentColor"></path><path d="M28.539 18.672c-.17 0-.34-.08-.455-.22a.563.563 0 0 1 .107-.803l3.212-2.453a.575.575 0 0 1 .803.106.563.563 0 0 1-.107.803l-3.212 2.452a.608.608 0 0 1-.348.115z" fill="currentColor"></path><path d="M25.95 16.696a.578.578 0 0 1-.311-.088.557.557 0 0 1-.17-.785l3.043-4.65a.579.579 0 0 1 .794-.168c.268.168.348.521.17.786l-3.043 4.65a.591.591 0 0 1-.482.255z" fill="currentColor"></path><path d="M21.909 15.576c-.045 0-.09-.009-.143-.018a.565.565 0 0 1-.42-.688l1.785-7.067c.08-.3.384-.486.697-.415.312.08.5.388.419.688l-1.785 7.068a.553.553 0 0 1-.553.432z" fill="currentColor"></path></g></svg>