<svg xmlns="http://www.w3.org/2000/svg" viewBox="0 0 32 32"><g fill="currentColor" class="nc-icon-wrapper"><path d="M16.046 10.39A5.61 5.61 0 1 0 21.657 16v-.001a5.613 5.613 0 0 0-5.61-5.611zM12.306 16a3.74 3.74 0 1 1 7.48 0 3.74 3.74 0 1 1-7.48 0zm13.351 10.466l-2.154-.945c-.616-.27-1.34-.231-1.922.107s-.954.932-1.028 1.602l-.259 2.343a1.152 1.152 0 0 1-.868.991l-.008.002c-1.013.252-2.177.397-3.374.397s-2.361-.145-3.474-.417l.1.021a1.154 1.154 0 0 1-.876-.988v-.005l-.259-2.339c-.076-.669-.464-1.261-1.046-1.598s-1.288-.375-1.902-.107l-2.154.946a1.146 1.146 0 0 1-1.3-.267l-.001-.001a15.027 15.027 0 0 1-3.346-5.718l-.029-.107a1.15 1.15 0 0 1 .413-1.265l.003-.002 1.904-1.405a2.122 2.122 0 0 0 .005-3.412l-.006-.004-1.903-1.403a1.152 1.152 0 0 1-.414-1.276l-.002.008a15.07 15.07 0 0 1 3.385-5.827l-.008.008a1.146 1.146 0 0 1 1.307-.264l-.007-.003 2.145.944c.617.271 1.327.23 1.912-.112.57-.336.966-.917 1.044-1.594l.001-.01.26-2.341c.055-.489.413-.889.892-.996a15.827 15.827 0 0 1 3.362-.388h.009c1.124.013 2.244.143 3.341.388.479.107.837.507.892.996l.261 2.343a2.122 2.122 0 0 0 2.105 1.892c.29 0 .578-.06.846-.179l2.145-.944a1.147 1.147 0 0 1 1.3.266l.001.001a15.017 15.017 0 0 1 3.348 5.713l.029.107a1.15 1.15 0 0 1-.413 1.265l-.003.002-1.901 1.404c-.542.399-.87 1.033-.87 1.708s.328 1.308.871 1.708l1.903 1.405c.394.291.561.799.416 1.267a15.087 15.087 0 0 1-3.383 5.826l.008-.009a1.143 1.143 0 0 1-1.307.266l.007.003zm-6.79-.247a3.964 3.964 0 0 1 1.759-2.2l.018-.01a3.968 3.968 0 0 1 2.004-.536 3.98 3.98 0 0 1 1.631.346l-.026-.01 1.676.736a13.137 13.137 0 0 0 2.427-4.144l.029-.092-1.483-1.095c-1.011-.744-1.631-1.932-1.631-3.214s.62-2.468 1.63-3.213l.001-.001 1.48-1.093a13.187 13.187 0 0 0-2.471-4.252l.014.016-1.664.733a3.869 3.869 0 0 1-1.596.338h-.007a3.993 3.993 0 0 1-3.96-3.538l-.002-.018V4.97l-.202-1.82a13.78 13.78 0 0 0-2.422-.24h-.01c-.878.011-1.728.098-2.554.255l.091-.014-.203 1.822a3.999 3.999 0 0 1-5.594 3.209l.025.01-1.666-.733a13.124 13.124 0 0 0-2.428 4.143l-.029.092 1.483 1.094a3.991 3.991 0 0 1 .011 6.418l-.011.008-1.485 1.096a13.205 13.205 0 0 0 2.471 4.258l-.014-.016 1.677-.736c1.159-.507 2.491-.432 3.587.201s1.826 1.749 1.969 3.006l.001.006.202 1.825c1.616.318 3.279.318 4.895 0l.202-1.829c.03-.274.088-.544.172-.804z" fill="currentColor" class="nc-icon-wrapper"></path></g></svg>