<svg xmlns="http://www.w3.org/2000/svg" viewBox="0 0 32 32"><g fill="currentColor" class="nc-icon-wrapper"><path d="M24.9 15.834c.467-.467.7-1.033.7-1.7s-.235-1.233-.7-1.7l-8-8c-.768-.768-1.634-.932-2.601-.499-1.001.397-1.5 1.133-1.5 2.199v3.648c-1.434.036-2.701.134-3.799.303-1.135.166-2.283.448-3.45.849s-2.133.917-2.901 1.551c-.8.597-1.434 1.417-1.899 2.449-.501 1.033-.751 2.234-.751 3.601 0 2.999 1.301 5.382 3.9 7.149.934.668 1.867.668 2.801 0 .898-.666 1.199-1.549.898-2.65-.265-.8-.399-1.434-.399-1.899a1.773 1.773 0 0 1 .449-1.303l-.002.002c.303-.401.868-.683 1.702-.851.832-.198 1.984-.333 3.45-.399v3.55c0 1.067.499 1.801 1.5 2.199.966.401 1.835.235 2.601-.499l8-8zm-1.7-1.701l-8 8v-6.001c-1.101 0-2.048.017-2.85.051-.901.04-1.745.129-2.572.266l.123-.017a9.502 9.502 0 0 0-2.215.573l.065-.022a6.552 6.552 0 0 0-1.551.9 2.952 2.952 0 0 0-1.043 1.33l-.007.02c-.235.533-.333 1.182-.299 1.95 0 .732.149 1.583.448 2.549C3.366 22.431 2.4 20.698 2.4 18.531c0-.966.166-1.815.499-2.549a4.001 4.001 0 0 1 1.502-1.801A9.08 9.08 0 0 1 6.5 13.082c.734-.299 1.649-.516 2.75-.651a35.438 35.438 0 0 1 2.901-.25c.832-.034 1.85-.051 3.049-.051V6.133l8 8zm8.1-1.7l-8-8c-.533-.499-1.118-.734-1.749-.7-.668.034-1.216.267-1.651.7l9.7 9.7-9.7 9.7c.433.433.983.666 1.651.7.631.034 1.216-.201 1.749-.7l8-8c.467-.467.7-1.033.7-1.7s-.235-1.233-.7-1.7z" fill="currentColor" class="nc-icon-wrapper"></path></g></svg>