<svg xmlns="http://www.w3.org/2000/svg" viewBox="0 0 24 24"><g fill="none" class="nc-icon-wrapper"><path fill-rule="evenodd" clip-rule="evenodd" d="M8.518 2h6.964c.679-.001 1.281-.002 1.838.228.556.23.981.657 1.46 1.138l.099.098.657.657.098.098c.48.48.907.905 1.138 1.461.23.557.23 1.16.228 1.838v9.548c0 .886 0 1.65-.082 2.262-.088.655-.287 1.284-.797 1.793-.51.51-1.138.709-1.793.797-.612.082-1.376.082-2.262.082H7.934c-.886 0-1.65 0-2.262-.082-.655-.088-1.284-.287-1.793-.797-.51-.51-.709-1.138-.797-1.793C3 18.716 3 17.952 3 17.066v-9.41-.138c-.001-.679-.002-1.281.228-1.838.23-.556.658-.981 1.138-1.46l.099-.099.656-.657.098-.098c.48-.48.905-.907 1.461-1.138.557-.23 1.16-.23 1.838-.228zm.139 2c-.9 0-1.07.018-1.211.076-.141.059-.275.167-.91.803l-.657.657c-.636.635-.744.769-.803.91-.058.14-.076.312-.076 1.21V17c0 .971.002 1.599.064 2.061.059.434.153.57.229.646.076.076.212.17.646.229C6.4 19.998 7.029 20 8 20h8c.971 0 1.599-.002 2.061-.064.434-.059.57-.153.646-.229.076-.076.17-.212.229-.646.062-.462.064-1.09.064-2.061V7.657c0-.9-.018-1.07-.076-1.211-.058-.141-.167-.275-.803-.91l-.656-.657c-.636-.636-.77-.744-.91-.803-.142-.058-.313-.076-1.212-.076H8.657z" fill="currentColor"></path><path fill-rule="evenodd" clip-rule="evenodd" d="M3 7a1 1 0 0 1 1-1h16a1 1 0 1 1 0 2H4a1 1 0 0 1-1-1z" fill="currentColor"></path><path fill-rule="evenodd" clip-rule="evenodd" d="M9 10a1 1 0 0 1 1 1 2 2 0 0 0 4 0 1 1 0 0 1 2 0 4 4 0 1 1-8 0 1 1 0 0 1 1-1z" fill="currentColor"></path></g></svg>