<svg xmlns="http://www.w3.org/2000/svg" viewBox="0 0 32 32"><g fill="currentColor" class="nc-icon-wrapper"><path d="M6.4 6.501V1.333H3.2v5.168C1.333 7.17 0 8.981 0 11.112c0 2.128 1.333 3.939 3.2 4.611v14.944h3.2V15.723c1.867-.672 3.2-2.483 3.2-4.613 0-2.128-1.333-3.939-3.2-4.608zm-3.2 4.611c0-.901.717-1.629 1.6-1.629s1.6.728 1.6 1.627v.016c0 .887-.714 1.607-1.599 1.616H4.8a1.616 1.616 0 0 1-1.6-1.616v-.014.001z"></path><path d="M14.4 17.907c-1.867.672-3.2 2.483-3.2 4.613 0 2.128 1.333 3.939 3.2 4.608v3.539h3.2v-3.539c1.867-.669 3.2-2.48 3.2-4.611 0-2.128-1.333-3.939-3.2-4.611V1.333h-3.2v16.573zm0 4.613c0-.901.717-1.632 1.6-1.632s1.6.731 1.6 1.629v.016c0 .887-.714 1.607-1.599 1.616H16a1.616 1.616 0 0 1-1.6-1.616v-.017.001z"></path><path d="M28.8 9.76V1.333h-3.2V9.76c-1.867.672-3.2 2.48-3.2 4.611 0 2.128 1.333 3.939 3.2 4.611v11.685h3.2V18.982c1.867-.672 3.2-2.48 3.2-4.613 0-2.125-1.333-3.936-3.2-4.608zm-3.2 4.611c0-.901.717-1.629 1.6-1.629s1.6.728 1.6 1.627v.016c0 .887-.714 1.607-1.599 1.616H27.2a1.616 1.616 0 0 1-1.6-1.616v-.014.001z"></path></g></svg>