<svg xmlns="http://www.w3.org/2000/svg" viewBox="0 0 32 32"><g fill="none" class="nc-icon-wrapper"><path d="M2.635 20.061a2.418 2.418 0 0 0-1.332 1.272 2.373 2.373 0 0 0-.242 1.816l1.332 5.752c.161.605.484 1.11.968 1.514.485.403 1.05.605 1.696.605 3.632 0 7.124-.726 10.474-2.18 3.31-1.412 6.176-3.31 8.598-5.69 2.381-2.423 4.299-5.289 5.752-8.599A26.694 26.694 0 0 0 32 4.077c0-.646-.202-1.211-.605-1.695a2.899 2.899 0 0 0-1.514-.97L24.129.082c-.606-.162-1.211-.081-1.817.242a2.418 2.418 0 0 0-1.271 1.332L18.377 7.83a2.622 2.622 0 0 0-.121 1.756c.121.565.424 1.05.908 1.453l2.422 1.998c-1.776 3.27-4.299 5.792-7.568 7.568l-1.998-2.422a2.325 2.325 0 0 0-1.454-.908 2.623 2.623 0 0 0-1.755.121l-6.176 2.664zm1.635 8.416l-1.332-5.752c-.081-.444.08-.747.484-.908l6.176-2.664c.363-.121.666-.04.908.242l2.543 3.088c.323.404.706.484 1.15.242 4.239-2.099 7.407-5.267 9.506-9.506.242-.444.162-.827-.242-1.15l-3.088-2.543c-.283-.242-.363-.545-.242-.908l2.664-6.176c.121-.323.363-.484.726-.484h.182l5.752 1.332c.404.12.605.383.605.787 0 4.52-1.11 8.698-3.33 12.533-2.26 3.835-5.308 6.882-9.142 9.143-3.835 2.22-8.013 3.33-12.533 3.33-.404 0-.666-.202-.787-.606z" fill="currentColor"></path></g></svg>