<svg xmlns="http://www.w3.org/2000/svg" viewBox="0 0 16 16"><g fill="none" class="nc-icon-wrapper"><path d="M1.8 0A1.8 1.8 0 0 0 0 1.8v9.6a1.8 1.8 0 0 0 1.632 1.792 2.4 2.4 0 0 0 4.735.008h1.666a2.4 2.4 0 0 0 4.734 0H14.2a1.8 1.8 0 0 0 1.8-1.8V7.07a1.8 1.8 0 0 0-.173-.77l-1.36-2.87a1.8 1.8 0 0 0-1.626-1.03H11.6v-.6A1.8 1.8 0 0 0 9.8 0h-8zm10.863 12a2.408 2.408 0 0 0-1.063-1.279V7.6h3.2V10h-1a.6.6 0 1 0 0 1.2h1v.2a.6.6 0 0 1-.6.6h-1.537zM10.4 10.4A2.4 2.4 0 0 0 8.137 12H6.263a2.4 2.4 0 0 0-4.525-.003.6.6 0 0 1-.538-.597V1.8a.6.6 0 0 1 .6-.6h8a.6.6 0 0 1 .6.6v8.6zm1.2-6.8h1.24a.6.6 0 0 1 .543.343L14.547 6.4H11.6V3.6zM4 14a1.2 1.2 0 1 1 0-2.4A1.2 1.2 0 0 1 4 14zm7.6-1.2a1.2 1.2 0 1 1-2.4 0 1.2 1.2 0 0 1 2.4 0z" fill="currentColor"></path></g></svg>