<svg xmlns="http://www.w3.org/2000/svg" viewBox="0 0 32 32"><g fill="currentColor" class="nc-icon-wrapper"><path d="M26.805 9.267c.038.156.058.407.058.757a17.367 17.367 0 0 1-1.208 6.303l.041-.118a19.647 19.647 0 0 1-3.349 5.628l.023-.028c-1.399 1.673-3.228 3.031-5.483 4.083-2.255 1.05-4.745 1.574-7.467 1.574l-.135.001a16.909 16.909 0 0 1-9.32-2.782l.064.04c.427.038.913.058 1.457.058 2.839 0 5.387-.875 7.642-2.624l-.087.001a5.886 5.886 0 0 1-3.544-1.179l.015.011a6.353 6.353 0 0 1-2.087-2.989l-.013-.045c.388.038.757.058 1.109.058.542 0 1.088-.058 1.632-.175a5.948 5.948 0 0 1-2.521-1.176l.012.009a6.522 6.522 0 0 1-1.732-2.064l-.017-.035a6.06 6.06 0 0 1-.642-2.741v-.117a5.748 5.748 0 0 0 2.741.817C2.166 11.29 1.253 9.579 1.253 7.401c0-1.088.292-2.121.875-3.093 2.994 3.753 7.491 6.198 12.564 6.416l.035.001a8.288 8.288 0 0 1-.115-1.395v-.005c0-1.673.582-3.11 1.749-4.316C17.566 3.804 19.006 3.2 20.677 3.2c1.79 0 3.285.64 4.493 1.924a12.427 12.427 0 0 0 3.965-1.487l-.059.032a6.119 6.119 0 0 1-2.656 3.368l-.027.015a13.15 13.15 0 0 0 3.582-1.025l-.083.033a13.568 13.568 0 0 1-3.054 3.183l-.035.025z" fill="currentColor" class="nc-icon-wrapper"></path></g></svg>