<svg xmlns="http://www.w3.org/2000/svg" viewBox="0 0 32 32"><g fill="currentColor" class="nc-icon-wrapper"><path d="M21.714 17.6c2.516-1.829 4.343-4.571 4.343-8C26.057 4.343 21.486 0 16 0S5.943 4.343 5.943 9.6c0 3.2 1.828 6.171 4.343 8C4.343 19.886 0 25.371 0 32h2.971c0-6.857 5.943-12.571 13.029-12.571S29.029 25.143 29.029 32H32c0-6.629-4.343-12.114-10.286-14.4zM16 2.971c3.886 0 7.086 2.972 7.086 6.859 0 3.657-2.972 6.857-7.086 6.857-3.886 0-7.086-2.972-7.086-6.857 0-3.886 3.2-6.859 7.086-6.859z" fill="currentColor" class="nc-icon-wrapper"></path></g></svg>