<svg xmlns="http://www.w3.org/2000/svg" viewBox="0 0 29 32"><g fill="currentColor" class="nc-icon-wrapper"><path d="M11.748 26.387H7.839c-.378 0-.725.336-.725.773v4.067c0 .403.315.773.725.773h3.909c.378 0 .725-.336.725-.773V27.16c0-.437-.315-.773-.725-.773z"></path><path d="M19.911 20.706h-3.909c-.378 0-.725.336-.725.773v9.748c0 .403.315.773.725.773h3.909c.378 0 .725-.336.725-.773v-9.748c0-.403-.315-.773-.725-.773z"></path><path d="M28.075 15.059h-3.908c-.378 0-.725.336-.725.773v15.395c0 .403.315.773.725.773h3.908c.378 0 .725-.336.725-.773V15.798a.73.73 0 0 0-.725-.74z"></path><path d="M21.897 9.075L8.375 21.445c-.536.504-.599 1.344-.126 1.916s1.261.639 1.797.134l13.491-12.37.977 1.244c.378.471 1.072.302 1.261-.269l1.671-5.445c.158-.571-.284-1.109-.82-1.008l-5.295.908c-.567.101-.819.807-.441 1.277l1.008 1.244z"></path><path d="M8.69 16.908c.662 0 1.292-.336 1.702-.908l6.556-9.244c.536-.739.567-1.748.126-2.555l-1.765-3.126a2.09 2.09 0 0 0-1.828-1.076H3.899c-.725 0-1.418.403-1.828 1.076L.306 4.234c-.441.807-.41 1.782.126 2.521l6.556 9.244c.41.605 1.04.908 1.702.908zm6.084-10.051l-4.255 5.983 1.86-6.252c.031-.101.126-.202.252-.202h1.954c.189.034.315.269.189.471zm-3.058-5.008h1.734c.158 0 .284.101.378.235l1.198 2.118c.094.168-.031.403-.221.403h-2.269c-.094 0-.189-.067-.252-.168l-.788-2.219c-.063-.202.063-.37.22-.37zM6.957 4.235l.819-2.219c.031-.101.126-.168.252-.168h1.324c.094 0 .189.067.252.168l.819 2.219c.063.168-.063.37-.252.37H7.177c-.157 0-.284-.202-.221-.37zm-4.634-.033l1.198-2.118c.095-.134.221-.202.347-.202h1.765c.189 0 .315.202.252.37l-.819 2.219c-.031.101-.126.168-.252.168H2.545c-.189-.034-.315-.269-.221-.437zm.284 2.655c-.126-.168 0-.437.189-.437H4.75c.126 0 .221.067.252.202l1.86 6.252-4.255-6.017zm4.224-.101c-.063-.168.063-.37.252-.37h3.215c.158 0 .284.168.252.37l-1.86 6.252-1.86-6.252z"></path></g></svg>