<svg xmlns="http://www.w3.org/2000/svg" viewBox="0 0 38 28"><g fill="none" class="nc-icon-wrapper"><path d="M26.125 18.418c-.787 0-1.425.651-1.425 1.454 0 .803.638 1.454 1.425 1.454h4.75c.787 0 1.425-.65 1.425-1.454 0-.803-.638-1.454-1.425-1.454h-4.75zM5.225 0C2.339 0 0 2.387 0 5.332v16.48c0 2.944 2.34 5.33 5.225 5.33h27.55c2.886 0 5.225-2.386 5.225-5.33V5.331C38 2.387 35.66 0 32.775 0H5.225zM2.85 21.811V11.633h32.3V21.81c0 1.339-1.063 2.424-2.375 2.424H5.225c-1.312 0-2.375-1.085-2.375-2.424zm0-13.087V5.332c0-1.339 1.063-2.424 2.375-2.424h27.55c1.312 0 2.375 1.085 2.375 2.424v3.392H2.85z" fill="currentColor"></path></g></svg>