<svg xmlns="http://www.w3.org/2000/svg" viewBox="0 0 12 11"><g fill="none" class="nc-icon-wrapper"><path fill-rule="evenodd" clip-rule="evenodd" d="M8.485 6.083l1.656-1.322-2.02-.134a1.468 1.468 0 0 1-.823-.273 1.298 1.298 0 0 1-.509-.781l-.804-1.825-.721 1.933-.015.033c-.265.58-.813.898-1.37.913l-2.02.134 1.656 1.322.053.058.007.007c.042.045.222.235.32.503.117.319.093.636-.011.915L3.42 9.398l1.823-1.137.025-.014a1.592 1.592 0 0 1 1.563 0l.032.018 1.728 1.118-.455-1.74c-.177-.375-.096-.747-.05-.9.072-.235.202-.447.345-.602l.053-.058zm.584 1.172l.805 3.079c.1.44-.402.77-.805.55l-2.717-1.76a.594.594 0 0 0-.604 0l-2.817 1.76c-.403.329-.906-.11-.805-.44l.805-3.189c.1-.22 0-.33-.1-.44L.213 4.728c-.402-.33-.201-.88.302-.88l3.32-.22c.202 0 .403-.11.504-.33L5.447.33a.549.549 0 0 1 1.006 0L7.76 3.298c0 .22.201.33.402.33l3.321.22c.503 0 .704.55.302.88L9.17 6.815c-.101.11-.202.33-.101.44z" fill="currentColor"></path></g></svg>